<?xml version="1.0" encoding="utf-8"?>
<!-- Generator: Adobe Illustrator 18.0.0, SVG Export Plug-In . SVG Version: 6.00 Build 0)  -->
<!DOCTYPE svg PUBLIC "-//W3C//DTD SVG 1.1//EN" "http://www.w3.org/Graphics/SVG/1.1/DTD/svg11.dtd">
<svg version="1.1" id="bd68eab2-97cb-49fc-9871-65ace3a0e319"
	 xmlns="http://www.w3.org/2000/svg" xmlns:xlink="http://www.w3.org/1999/xlink" x="0px" y="0px" viewBox="0 0 738.4 504.7"
	 enable-background="new 0 0 738.4 504.7" xml:space="preserve">
<path fill="#F2F2F2" d="M725.2,458.9c-5.1,17.5-19.8,29.8-35.2,40.2c-2.1,1.5-4.3,2.9-6.4,4.3c0,0,0,0,0,0c-0.1,0.1-0.2,0.1-0.3,0.2
	c-0.4,0.3-0.9,0.6-1.3,0.9l0.2,0.1c0,0,0.2,0.1,0,0c-0.1,0-0.2-0.1-0.2-0.1c-8.9-3.6-18-7.5-24.9-14.2c-7.1-7-11.3-18-7.4-27.2
	c0.5-1.2,1.1-2.4,1.9-3.4c0.3-0.4,0.6-0.9,1-1.3c6.6-8.1,18.5-9.2,26.5-2.6c2.7,2.2,4.7,5.1,5.8,8.4c1.1-10.5-7.5-19.3-15.9-25.8
	c-8.4-6.5-17.9-13.6-19.5-24.1c-0.9-5.8,1.1-11.5,4.8-16c0.1-0.1,0.2-0.3,0.3-0.4c4.5-5.3,10.8-8.7,17.7-9.5
	c12.8-1.3,25.3,5.5,34.6,14.4C721.9,417,731,439,725.2,458.9z"/>
<path fill="#FFFFFF" d="M701.1,436c2.5,3.8,4.3,8,5.6,12.4c1.1,3.9,1.5,8,1.4,12c-0.3,8.3-2.7,16.4-6.8,23.7
	c-3.1,5.5-6.9,10.6-11.3,15.1c-2.1,1.5-4.3,2.9-6.4,4.3c0,0,0,0,0,0c-0.1,0.1-0.2,0.1-0.3,0.2c-0.4,0.3-0.9,0.6-1.3,0.9
	c0,0,0.5,0.2,0.2,0.1c-0.1,0-0.2-0.1-0.2-0.1c1.6-13.3-3.3-26.6-13.2-35.7c-4.9-4.4-10.8-7.5-17.1-9.2c0.3-0.4,0.6-0.9,1-1.3
	c2.5,0.7,4.8,1.6,7.1,2.7c8.2,3.9,14.9,10.4,19.2,18.5c3.8,7.3,5.4,15.6,4.7,23.8c0.4-0.3,0.7-0.7,1.1-1c6.8-6.3,12.8-13.6,16.9-22
	c3.5-7.1,5.3-15,5.1-22.9c-0.3-8.7-3.8-16.7-8.8-23.6c-5.5-7.4-11.9-14.1-19.2-19.8c-7.3-5.9-15.4-10.8-23.9-14.8
	c-0.4-0.2-0.6-0.7-0.4-1.1c0.1-0.2,0.2-0.3,0.3-0.4c0.2-0.1,0.4-0.1,0.5,0c1.1,0.5,2.1,1,3.1,1.5c8.6,4.3,16.7,9.6,24.1,15.9
	C689.5,421.2,696.1,428.1,701.1,436z"/>
<path fill="#3F3D56" d="M615.7,0H8.7C3.9,0,0,3.9,0,8.7V420c0,4.8,3.9,8.7,8.7,8.7h607c2.6,0,5-1.1,6.6-3.1c0.1-0.1,0.1-0.2,0.2-0.2
	c0.5-0.6,0.9-1.3,1.3-2.1c0.4-1,0.7-2.2,0.7-3.3V8.7C624.4,3.9,620.5,0,615.7,0z M622,420c0,1.2-0.4,2.4-1,3.4
	c-0.6,0.9-1.4,1.6-2.4,2.1c-0.9,0.5-1.9,0.7-2.9,0.7H8.7c-3.4,0-6.2-2.8-6.2-6.2V8.7c0-3.4,2.8-6.2,6.2-6.2h607
	c3.4,0,6.2,2.8,6.2,6.2V420z"/>
<rect x="1.2" y="34.9" fill="#3F3D56" width="622" height="2.5"/>
<circle fill="#3F3D56" cx="22.4" cy="18.7" r="7.5"/>
<circle fill="#3F3D56" cx="43.9" cy="18.7" r="7.5"/>
<circle fill="#3F3D56" cx="65.4" cy="18.7" r="7.5"/>
<path fill="#2B2B2B" d="M402.8,175.4c-11.1,0-20.2-9-20.2-20.2c0-11.1,9-20.2,20.2-20.2c11.1,0,20.2,9,20.2,20.2v0
	C423,166.3,413.9,175.3,402.8,175.4z M402.8,136.9c-10.1,0-18.3,8.2-18.3,18.3s8.2,18.3,18.3,18.3c10.1,0,18.3-8.2,18.3-18.3v0
	C421.1,145.1,412.9,136.9,402.8,136.9z"/>
<path id="f1f767dc-4b88-4f47-9e03-7555881e6705" fill="#2B2B2B" d="M400.9,162.5c-0.4,0-0.9-0.1-1.2-0.4l0,0l-4.5-3.5
	c-0.9-0.7-1-1.9-0.4-2.8c0.7-0.9,1.9-1,2.8-0.4l2.9,2.2l6.9-9c0.7-0.9,1.9-1,2.8-0.4c0,0,0,0,0,0l0,0l0,0.1l0-0.1
	c0.9,0.7,1,1.9,0.4,2.8l-8.1,10.6C402.1,162.2,401.5,162.5,400.9,162.5L400.9,162.5z"/>
<path fill="#E6E6E6" d="M460.5,175.4c-11.1,0-20.2-9-20.2-20.2c0-11.1,9-20.2,20.2-20.2c11.1,0,20.2,9,20.2,20.2v0
	C480.7,166.3,471.7,175.3,460.5,175.4z M460.5,136.9c-10.1,0-18.3,8.2-18.3,18.3s8.2,18.3,18.3,18.3c10.1,0,18.3-8.2,18.3-18.3v0
	C478.8,145.1,470.6,136.9,460.5,136.9z"/>
<path fill="#E6E6E6" d="M467.8,162.2c-0.5,0.5-1.3,0.5-1.8,0l-4.8-4.8c-0.2-0.2-0.6-0.2-0.8,0l-4.8,4.8c-0.5,0.5-1.3,0.5-1.8,0
	s-0.5-1.3,0-1.8l4.8-4.8c0.2-0.2,0.2-0.6,0-0.8l-4.8-4.8c-0.5-0.5-0.5-1.3,0-1.8s1.3-0.5,1.8,0l0,0l4.8,4.8c0.2,0.2,0.6,0.2,0.8,0
	l4.8-4.8c0.5-0.5,1.3-0.5,1.8,0s0.5,1.3,0,1.8l-4.8,4.8c-0.2,0.2-0.2,0.6,0,0.8c0,0,0,0,0,0l4.8,4.8
	C468.3,160.8,468.3,161.7,467.8,162.2z"/>
<path fill="#2B2B2B" d="M402.8,239.4c-11.1,0-20.2-9-20.2-20.2c0-11.1,9-20.2,20.2-20.2c11.1,0,20.2,9,20.2,20.2
	C423,230.4,413.9,239.4,402.8,239.4z M402.8,201c-10.1,0-18.3,8.2-18.3,18.3s8.2,18.3,18.3,18.3c10.1,0,18.3-8.2,18.3-18.3v0
	C421.1,209.2,412.9,201,402.8,201L402.8,201z"/>
<path id="a793c70c-1521-4e6e-9b61-9683a9490971" fill="#2B2B2B" d="M400.9,226.6c-0.4,0-0.9-0.1-1.2-0.4l0,0l-4.5-3.5
	c-0.9-0.7-1-1.9-0.4-2.8c0.7-0.9,1.9-1,2.8-0.4l2.9,2.2l6.9-9c0.7-0.9,1.9-1,2.8-0.4c0,0,0,0,0,0l0,0l0,0.1l0-0.1
	c0.9,0.7,1,1.9,0.4,2.8l-8.1,10.6C402.1,226.3,401.5,226.6,400.9,226.6L400.9,226.6z"/>
<path fill="#E6E6E6" d="M460.5,239.4c-11.1,0-20.2-9-20.2-20.2c0-11.1,9-20.2,20.2-20.2c11.1,0,20.2,9,20.2,20.2
	C480.7,230.4,471.7,239.4,460.5,239.4z M460.5,201c-10.1,0-18.3,8.2-18.3,18.3s8.2,18.3,18.3,18.3c10.1,0,18.3-8.2,18.3-18.3v0
	C478.8,209.2,470.6,201,460.5,201L460.5,201z"/>
<path fill="#E6E6E6" d="M467.8,226.2c-0.5,0.5-1.3,0.5-1.8,0l-4.8-4.8c-0.2-0.2-0.6-0.2-0.8,0l-4.8,4.8c-0.5,0.5-1.3,0.5-1.8,0
	s-0.5-1.3,0-1.8l0,0l4.8-4.8c0.2-0.2,0.2-0.6,0-0.8l-4.8-4.8c-0.5-0.5-0.5-1.3,0-1.8s1.3-0.5,1.8,0l0,0l4.8,4.8
	c0.2,0.2,0.6,0.2,0.8,0l4.8-4.8c0.5-0.5,1.3-0.5,1.8,0s0.5,1.3,0,1.8l-4.8,4.8c-0.2,0.2-0.2,0.6,0,0.8l4.8,4.8
	C468.3,224.9,468.3,225.7,467.8,226.2z"/>
<path fill="#E6E6E6" d="M402.8,303.5c-11.1,0-20.2-9-20.2-20.2c0-11.1,9-20.2,20.2-20.2c11.1,0,20.2,9,20.2,20.2
	C423,294.4,413.9,303.4,402.8,303.5z M402.8,265c-10.1,0-18.3,8.2-18.3,18.3s8.2,18.3,18.3,18.3c10.1,0,18.3-8.2,18.3-18.3v0
	C421.1,273.2,412.9,265,402.8,265z"/>
<path id="b02a55c8-7c5c-410c-bde7-66a7a3b003d7" fill="#E6E6E6" d="M400.9,290.6c-0.4,0-0.9-0.1-1.2-0.4l0,0l-4.5-3.5
	c-0.9-0.7-1-1.9-0.4-2.8c0.7-0.9,1.9-1,2.8-0.4l2.9,2.2l6.9-9c0.7-0.9,1.9-1,2.8-0.4c0,0,0,0,0,0l0,0l0,0.1l0-0.1
	c0.9,0.7,1,1.9,0.4,2.8l-8.1,10.6C402.1,290.3,401.5,290.6,400.9,290.6L400.9,290.6z"/>
<path fill="#E6E6E6" d="M460.5,303.5c-11.1,0-20.2-9-20.2-20.2c0-11.1,9-20.2,20.2-20.2c11.1,0,20.2,9,20.2,20.2
	C480.7,294.4,471.7,303.4,460.5,303.5z M460.5,265c-10.1,0-18.3,8.2-18.3,18.3s8.2,18.3,18.3,18.3c10.1,0,18.3-8.2,18.3-18.3v0
	C478.8,273.2,470.6,265,460.5,265z"/>
<path fill="#E6E6E6" d="M467.8,290.3c-0.5,0.5-1.3,0.5-1.8,0l-4.8-4.8c-0.2-0.2-0.6-0.2-0.8,0l-4.8,4.8c-0.5,0.5-1.3,0.5-1.8,0
	s-0.5-1.3,0-1.8l0,0l4.8-4.8c0.2-0.2,0.2-0.6,0-0.8l-4.8-4.8c-0.5-0.5-0.5-1.3,0-1.8s1.3-0.5,1.8,0l0,0l4.8,4.8
	c0.2,0.2,0.6,0.2,0.8,0l4.8-4.8c0.5-0.5,1.3-0.5,1.8,0s0.5,1.3,0,1.8l-4.8,4.8c-0.2,0.2-0.2,0.6,0,0.8c0,0,0,0,0,0l4.8,4.8
	C468.3,288.9,468.3,289.8,467.8,290.3z"/>
<path fill="#3F3D56" d="M737.4,504.4h-381c-0.6,0-1-0.4-1-1s0.4-1,1-1h381c0.6,0,1,0.4,1,1S738,504.4,737.4,504.4z"/>
<path fill="#E5E5E5" d="M410.7,231.4c4.8,2.9,10.9,1.4,13.8-3.4c0.3-0.5,0.6-1,0.8-1.6l35.7,1.2l-9.7-15.8l-32.4,1.3
	c-5.3-1.7-11,1.3-12.7,6.7C404.8,224.2,406.6,229.1,410.7,231.4L410.7,231.4z"/>
<path fill="#E5E5E5" d="M612,308.8c3.7-4.2,3.2-10.5-0.9-14.2c-0.4-0.4-0.9-0.7-1.4-1l7.4-35l-17.3,6.8l-4.4,32.2
	c-2.6,5-0.6,11.1,4.3,13.6C603.9,313.3,609,312.3,612,308.8z"/>
<polygon fill="#E5E5E5" points="528.4,491 516.1,491 510.3,443.7 528.4,443.7 "/>
<path fill="#2F2E41" d="M531.5,502.9l-39.5,0v-0.5c0-8.5,6.9-15.4,15.4-15.4c0,0,0,0,0,0h0l24.1,0L531.5,502.9z"/>
<polygon fill="#E5E5E5" points="588.4,491 576.1,491 570.3,443.7 588.4,443.7 "/>
<path fill="#2F2E41" d="M591.5,502.9l-39.5,0v-0.5c0-8.5,6.9-15.4,15.4-15.4c0,0,0,0,0,0h0l24.1,0L591.5,502.9z"/>
<path fill="#2F2E41" d="M529.6,466.3l-17.4-0.7c-2.5-0.1-4.4-2.2-4.3-4.6l4.9-160.4l0.3-0.1c30.4-11,55.6-10.2,76.9,2.5l0.2,0.1
	l2.9,156.2c0,2.5-1.9,4.5-4.4,4.6c0,0-0.1,0-0.1,0h-14.6c-2.1,0-4-1.5-4.4-3.6l-19.9-101.4c-0.2-0.8-0.9-1.3-1.8-1.2
	c-0.6,0.1-1.1,0.6-1.2,1.3l-12.5,103.3c-0.3,2.3-2.2,3.9-4.5,4C529.8,466.3,529.7,466.3,529.6,466.3z"/>
<circle fill="#E5E5E5" cx="546.5" cy="135.4" r="24.6"/>
<path fill="#999999" d="M431.1,225.6c-0.3-0.9-0.3-1.8,0-2.7l2.5-8.2c0.6-1.8,2.2-3.1,4.1-3.2l32.2-1.4l52.3-26.8
	c7.6-2.4,15.8,1.8,18.2,9.4c2.4,7.6-1.8,15.8-9.4,18.2c0,0,0,0,0,0l-32,18.6c-9.7,5.6-21.2,7.6-32.2,5.4l-32.3-6.3
	c-1.3-0.2-2.3-1-3-2.1C431.3,226.3,431.2,226,431.1,225.6z"/>
<path fill="#999999" d="M611,286.2c-0.9,0.3-1.8,0.4-2.7,0.1l-8.3-2.2c-1.8-0.5-3.2-2.1-3.3-4l-2.8-32.1l-29-51.1
	c-2.8-7.5,1.1-15.8,8.6-18.6c7.5-2.8,15.8,1.1,18.6,8.6c0,0,0,0,0,0l19.9,31.2c6.1,9.5,8.5,20.8,6.8,31.9l-4.9,32.5
	c-0.2,1.3-0.9,2.4-2,3.1C611.6,285.9,611.3,286.1,611,286.2z"/>
<path fill="#999999" d="M519.7,179c8.5-9.4,20.9-14.4,33.5-13.6c0.4,0,0.8,0.1,1.2,0.1h0c12,0.9,23,7,30.2,16.6
	c7.3,9.8,10,22.2,7.5,34.1c-4.8,22.5-3.6,45.9,3.5,67.9l6.6,20.5c0.8,2.4-0.5,4.9-2.9,5.7c-0.4,0.1-0.8,0.2-1.1,0.2l-33.7,1.8
	l-8.6-14.9v15.4l-40.9,2.2c-0.1,0-0.2,0-0.2,0c-2.5,0-4.5-2-4.5-4.5c0-0.1,0-0.2,0-0.4l4.6-57.4l-5.8-39
	C507.1,201.2,511,188.4,519.7,179z"/>
<path fill="#2F2E41" d="M563.6,158.8c-2.3,1.3-11.3,2.2-11.9-0.4l0-0.1c-0.4-1.9-0.1-3.8,0.1-5.7s-0.1-4-1.4-5.4
	c-2.4-2.6-6.7-1.2-10.3-1.9c-4.3-0.9-7.1-4.9-6.7-9.3c0-0.4,0.1-0.8,0.2-1.2c0.8-3.6-1.5-7.2-5.1-7.9c-0.6-0.1-1.2-0.2-1.8-0.1
	c-3.5,0.2-7.4,1.3-10.3-1.4c-2.3-2-2.8-7.3-1.8-10.2c1.7-4.8,12.4-7.4,17.1-8.8c11.7-3.4,24.4-1.3,34.4,5.6c3,2.1,5.7,4.7,7,8.1
	s0.7,7.7-2.2,9.9c4.5,4.8,6.1,11.5,4.2,17.8C573.7,152.5,567,156.9,563.6,158.8z"/>
<path fill="#2B2B2B" d="M224.6,160.1H67.4c-4.2,0-7.6-3.4-7.6-7.6c0-4.2,3.4-7.6,7.6-7.6h157.3c4.2,0,7.6,3.4,7.6,7.6
	C232.3,156.6,228.8,160.1,224.6,160.1z"/>
<path fill="#3F3D56" d="M321.7,166.6h-270c-0.6,0-1-0.4-1-1s0.4-1,1-1h270c0.6,0,1,0.4,1,1S322.3,166.6,321.7,166.6z"/>
<path fill="#2B2B2B" d="M224.6,224.1H67.4c-4.2,0-7.6-3.4-7.6-7.6c0-4.2,3.4-7.6,7.6-7.6h157.3c4.2,0,7.6,3.4,7.6,7.6
	C232.3,220.7,228.8,224.1,224.6,224.1z"/>
<path fill="#3F3D56" d="M321.7,230.6h-270c-0.6,0-1-0.4-1-1s0.4-1,1-1h270c0.6,0,1,0.4,1,1S322.3,230.6,321.7,230.6z"/>
<path fill="#F2F2F2" d="M224.6,288.2H67.4c-4.2,0-7.6-3.4-7.6-7.6c0-4.2,3.4-7.6,7.6-7.6h157.3c4.2,0,7.6,3.4,7.6,7.6
	C232.3,284.7,228.8,288.2,224.6,288.2z"/>
<path fill="#3F3D56" d="M321.7,294.7h-270c-0.6,0-1-0.4-1-1s0.4-1,1-1h270c0.6,0,1,0.4,1,1S322.3,294.7,321.7,294.7z"/>
</svg>
