<?xml version="1.0" encoding="utf-8"?>
<!-- Generator: Adobe Illustrator 18.0.0, SVG Export Plug-In . SVG Version: 6.00 Build 0)  -->
<!DOCTYPE svg PUBLIC "-//W3C//DTD SVG 1.1//EN" "http://www.w3.org/Graphics/SVG/1.1/DTD/svg11.dtd">
<svg version="1.1" id="Layer_2" xmlns="http://www.w3.org/2000/svg" xmlns:xlink="http://www.w3.org/1999/xlink" x="0px" y="0px"
	 viewBox="0 0 50 50" enable-background="new 0 0 50 50" xml:space="preserve">
<g>
	<g>
		<g enable-background="new    ">
			<g>
				<rect x="31.1" y="23.6" fill="#878787" width="0" height="32"/>
			</g>
			<g>
				<rect x="25" y="-22" fill="#878787" width="0" height="45.7"/>
			</g>
			<g>
				<path fill="#AEAEAE" d="M2.2,40.3V0.8h45.7v39.5H15.1v8.8h-0.7v-8.8h-0.5v3.5l-6.5-8v7.9H6.6v-3.3H2.2z M2.9,1.6v38h3.8v-5.9
					l6.5,8v-7.9h0.7v5.8h0.5v-6.1h6v0.7h-5.3v5.4h32v-38H2.9"/>
				<g enable-background="new    ">
					<defs>
						<path id="SVGID_1_" enable-background="new    " d="M2.2,40.3V0.8h45.7v39.5H15.1v8.8h-0.7v-8.8h-0.5v3.5l-6.5-8v7.9H6.6v-3.3
							H2.2z M2.9,1.6v38h3.8v-5.9l6.5,8v-7.9h0.7v5.8h0.5v-6.1h6v0.7h-5.3v5.4h32v-38H2.9"/>
					</defs>
					<clipPath id="SVGID_2_">
						<use xlink:href="#SVGID_1_"  overflow="visible"/>
					</clipPath>
					<g clip-path="url(#SVGID_2_)">
						<g>
							<g>
								<defs>
									<polyline id="SVGID_3_" points="47.8,40.3 15.1,40.3 15.1,49.1 14.3,49.1 14.3,40.3 13.9,40.3 13.9,43.8 7.4,35.8 
										7.4,43.7 6.6,43.7 6.6,40.3 2.2,40.3 2.2,0.8 47.8,0.8 47.8,40.3 									"/>
								</defs>
								<clipPath id="SVGID_4_">
									<use xlink:href="#SVGID_3_"  overflow="visible"/>
								</clipPath>
								<g clip-path="url(#SVGID_4_)">
									<image overflow="visible" width="46" height="49" xlink:href="AA63F0BD.png"  transform="matrix(1 0 0 1 2.151 0.833)">
									</image>
								</g>
							</g>
						</g>
					</g>
				</g>
			</g>
		</g>
	</g>
</g>
<g>
	<g>
		<g>
			<path fill="#AEAEAE" d="M9.8,4.1c0,1.1,0,2.1,0,3.2c0,0.1,0,0.2-0.1,0.2c-0.1,0-0.2,0-0.2-0.1C9.4,6.9,9.3,6.5,9.2,6l0,0l0,0.2
				c0,0.4,0,0.7,0,1.1c0,0,0,0,0,0c0,0,0,0,0,0c0,0,0,0,0,0c0,0,0,0,0,0c0,0,0,0,0,0c0,0,0,0,0,0c0,0,0,0,0,0c0,0,0,0,0,0
				c0,0,0,0,0,0c0,0,0,0,0,0c0,0,0,0,0,0c0,0,0,0,0,0c0,0,0,0,0,0c0,0,0,0,0,0c0,0,0,0,0,0c0,0,0,0,0,0c0,0,0,0,0,0c0,0,0,0,0,0
				c0,0,0,0,0,0c0,0,0,0,0,0c0,0,0,0,0,0c0,0,0,0-0.1,0l0-0.2c0-1,0-2.1,0-3.1C8.9,4.1,8.8,4,9,4c0,0,0,0,0,0c0,0,0,0,0,0
				c0,0,0,0,0,0c0,0,0,0,0,0c0,0,0,0,0,0c0,0,0,0,0,0c0,0,0,0,0,0c0,0,0,0,0,0c0,0,0,0,0,0c0,0,0,0,0,0c0,0,0,0,0,0c0,0,0,0,0,0
				c0,0,0,0,0,0c0,0,0,0,0,0c0,0,0,0,0,0c0.1,0.5,0.2,1,0.2,1.4l0.1,0.1c0-0.3,0-0.6,0-0.9c0-0.2,0-0.4,0-0.6C9.5,4,9.5,4,9.7,4
				C9.8,4,9.8,4,9.8,4.1z"/>
			<g enable-background="new    ">
				<defs>
					<path id="SVGID_5_" enable-background="new    " d="M9.8,4.1c0,1.1,0,2.1,0,3.2c0,0.1,0,0.2-0.1,0.2c-0.1,0-0.2,0-0.2-0.1
						C9.4,6.9,9.3,6.5,9.2,6l0,0l0,0.2c0,0.4,0,0.7,0,1.1c0,0,0,0,0,0c0,0,0,0,0,0c0,0,0,0,0,0c0,0,0,0,0,0c0,0,0,0,0,0c0,0,0,0,0,0
						c0,0,0,0,0,0c0,0,0,0,0,0c0,0,0,0,0,0c0,0,0,0,0,0c0,0,0,0,0,0c0,0,0,0,0,0c0,0,0,0,0,0c0,0,0,0,0,0c0,0,0,0,0,0c0,0,0,0,0,0
						c0,0,0,0,0,0c0,0,0,0,0,0c0,0,0,0,0,0c0,0,0,0,0,0c0,0,0,0,0,0c0,0,0,0-0.1,0l0-0.2c0-1,0-2.1,0-3.1C8.9,4.1,8.8,4,9,4
						c0,0,0,0,0,0c0,0,0,0,0,0c0,0,0,0,0,0c0,0,0,0,0,0c0,0,0,0,0,0c0,0,0,0,0,0c0,0,0,0,0,0c0,0,0,0,0,0c0,0,0,0,0,0c0,0,0,0,0,0
						c0,0,0,0,0,0c0,0,0,0,0,0c0,0,0,0,0,0c0,0,0,0,0,0c0,0,0,0,0,0c0.1,0.5,0.2,1,0.2,1.4l0.1,0.1c0-0.3,0-0.6,0-0.9
						c0-0.2,0-0.4,0-0.6C9.5,4,9.5,4,9.7,4C9.8,4,9.8,4,9.8,4.1z"/>
				</defs>
				<clipPath id="SVGID_6_">
					<use xlink:href="#SVGID_5_"  overflow="visible"/>
				</clipPath>
				<g clip-path="url(#SVGID_6_)">
					<g>
						<g>
							<defs>
								<polyline id="SVGID_7_" points="9.8,7.4 9.8,7.4 9.8,7.5 9.8,7.5 9.8,7.5 9.8,7.5 9.7,7.5 9.7,7.5 9.6,7.5 9.6,7.5 9.6,7.5 
									9.6,7.5 9.5,7.5 9.5,7.4 9.5,7.4 9.5,7.2 9.4,7 9.4,6.9 9.4,6.7 9.3,6.5 9.3,6.4 9.3,6.2 9.2,6 9.2,6 9.2,6.2 9.2,6.3 
									9.2,6.5 9.2,6.6 9.2,6.7 9.2,6.9 9.2,7 9.2,7.1 9.2,7.3 9.2,7.3 9.2,7.3 9.2,7.3 9.2,7.3 9.2,7.3 9.2,7.3 9.2,7.3 9.2,7.3 
									9.2,7.3 9.2,7.3 9.2,7.3 9.2,7.3 9.2,7.3 9.2,7.3 9.2,7.3 9.2,7.3 9.2,7.3 9.2,7.3 9.2,7.3 9.2,7.3 9.2,7.3 9.2,7.3 
									9.2,7.3 9.2,7.4 9.2,7.4 9.2,7.4 9.2,7.4 9.2,7.4 9.2,7.4 9.2,7.4 9.2,7.4 9.2,7.4 9.2,7.4 9.2,7.4 9.2,7.4 9.2,7.4 
									9.2,7.4 9.2,7.4 9.2,7.4 9.2,7.4 9.2,7.4 9.2,7.4 9.2,7.4 9.2,7.4 9.2,7.4 9.2,7.4 9.2,7.4 9.2,7.4 9.2,7.4 9.2,7.4 
									9.2,7.4 9.2,7.4 9.2,7.4 9.2,7.4 9.2,7.4 9.2,7.4 9.2,7.5 9.2,7.5 9.2,7.5 9.2,7.5 9.2,7.5 9.2,7.5 9.2,7.5 9.2,7.5 
									9.2,7.5 9.2,7.5 9.2,7.5 9.2,7.5 9.2,7.5 9.2,7.5 9.2,7.5 9.2,7.5 9.2,7.5 9.2,7.5 9.2,7.5 9.2,7.5 9.2,7.5 9.2,7.5 
									9.2,7.5 9.2,7.5 9.1,7.5 9.1,7.5 9.1,7.5 9.1,7.5 9.1,7.5 9.1,7.5 9.1,7.5 9.1,7.5 9.1,7.5 9.1,7.5 9.1,7.5 9.1,7.5 
									9.1,7.5 9.1,7.5 9.1,7.5 9.1,7.5 9.1,7.5 9.1,7.5 9.1,7.5 9.1,7.5 9.1,7.5 9.1,7.5 9.1,7.5 9.1,7.5 9.1,7.5 9.1,7.5 
									9.1,7.5 9.1,7.5 9.1,7.5 9.1,7.5 9.1,7.5 9.1,7.5 9.1,7.5 9.1,7.5 9.1,7.5 9.1,7.5 9.1,7.5 9.1,7.5 9.1,7.5 9.1,7.5 
									9.1,7.5 9.1,7.5 9.1,7.5 9,7.5 9,7.5 9,7.5 9,7.5 9,7.5 9,7.5 9,7.5 9,7.5 9,7.5 9,7.5 9,7.5 9,7.5 9,7.5 9,7.5 9,7.5 
									9,7.5 9,7.5 9,7.5 9,7.5 9,7.5 9,7.5 9,7.5 9,7.5 9,7.5 9,7.5 9,7.5 9,7.5 9,7.5 9,7.5 9,7.5 9,7.5 9,7.5 9,7.5 9,7.5 
									9,7.5 9,7.5 9,7.5 9,7.5 9,7.5 8.9,7.5 8.9,7.5 8.9,7.5 8.9,7.5 8.9,7.5 8.9,7.5 8.9,7.5 8.9,7.5 8.9,7.5 8.9,7.5 8.9,7.5 
									8.9,7.5 8.9,7.5 8.9,7.5 8.9,7.3 8.9,7.1 8.9,6.9 8.9,6.7 8.9,6.5 8.9,6.3 8.9,6.1 8.9,5.9 8.9,5.7 8.9,5.5 8.9,5.4 
									8.9,5.2 8.9,5 8.9,4.8 8.9,4.6 8.9,4.4 8.9,4.2 8.9,4.1 8.9,4.1 8.9,4.1 8.9,4 8.9,4 8.9,4 8.9,4 9,4 9,4 9,4 9,4 9,4 9,4 
									9,4 9,4 9,4 9,4 9,4 9,4 9,4 9,4 9,4 9,4 9,4 9,4 9,4 9,4 9.1,4 9.1,4 9.1,4 9.1,4 9.1,4 9.1,4 9.1,4 9.1,4 9.1,4 9.1,4 
									9.1,4 9.1,4 9.1,4 9.1,4 9.1,4 9.1,4 9.1,4 9.1,4 9.1,4 9.1,4 9.1,4 9.1,4 9.1,4 9.1,4 9.1,4 9.1,4 9.1,4 9.1,4 9.1,4 
									9.1,4 9.1,4 9.1,4 9.1,4 9.1,4 9.1,4 9.1,4 9.1,4 9.1,4 9.1,4 9.1,4 9.1,4 9.1,4 9.1,4 9.1,4 9.1,4 9.1,4 9.1,4 9.1,4 
									9.2,4 9.2,4 9.2,4 9.2,4 9.2,4 9.2,4 9.2,4 9.2,4 9.2,4 9.2,4 9.2,4 9.2,4 9.2,4 9.2,4 9.2,4 9.2,4 9.2,4 9.2,4 9.2,4 
									9.2,4.1 9.2,4.1 9.2,4.1 9.2,4.1 9.2,4.1 9.2,4.1 9.2,4.1 9.2,4.1 9.2,4.1 9.2,4.1 9.2,4.1 9.2,4.1 9.2,4.1 9.2,4.1 
									9.2,4.1 9.2,4.1 9.2,4.1 9.2,4.1 9.2,4.1 9.2,4.1 9.2,4.1 9.2,4.1 9.2,4.1 9.2,4.1 9.2,4.1 9.2,4.1 9.2,4.1 9.2,4.1 
									9.2,4.1 9.2,4.1 9.2,4.1 9.2,4.1 9.2,4.1 9.2,4.2 9.2,4.3 9.3,4.5 9.3,4.7 9.3,4.9 9.4,5.1 9.4,5.2 9.4,5.4 9.5,5.6 
									9.5,5.7 9.5,5.6 9.5,5.5 9.5,5.3 9.5,5.2 9.5,5.1 9.5,5 9.5,4.9 9.5,4.8 9.5,4.7 9.5,4.6 9.5,4.5 9.5,4.5 9.5,4.4 9.5,4.3 
									9.5,4.2 9.5,4.2 9.5,4.1 9.5,4.1 9.5,4 9.5,4 9.6,4 9.6,4 9.6,4 9.7,4 9.7,4 9.8,4 9.8,4 9.8,4 9.8,4 9.8,4.1 9.8,4.1 
									9.8,4.1 9.8,4.3 9.8,4.5 9.8,4.7 9.8,4.9 9.8,5.1 9.8,5.3 9.8,5.5 9.8,5.7 9.8,5.9 9.8,6.1 9.8,6.3 9.8,6.5 9.8,6.7 
									9.8,6.9 9.8,7.1 9.8,7.3 9.8,7.4 9.8,7.4 								"/>
							</defs>
							<clipPath id="SVGID_8_">
								<use xlink:href="#SVGID_7_"  overflow="visible"/>
							</clipPath>
							<g clip-path="url(#SVGID_8_)">
								<image overflow="visible" width="1" height="4" xlink:href="AA63F0BF.png"  transform="matrix(1 0 0 1 8.8593 3.965)">
								</image>
							</g>
						</g>
					</g>
				</g>
			</g>
		</g>
		<g>
			<path fill="#AEAEAE" d="M28.6,4c0.1,0,0.2,0,0.2,0.1c0,1.1,0,2.2,0,3.3c0,0.1,0,0.2-0.1,0.2c-0.1,0-0.2,0-0.2-0.1
				c0-0.2-0.1-0.4-0.1-0.6c0-0.3-0.1-0.5-0.2-0.8l-0.1,0l0,0.2c0,0.4,0,0.8,0,1.2c0,0.1,0,0.2-0.2,0.2c-0.1,0-0.2,0-0.2-0.2
				c0-1.1,0-2.2,0-3.2L27.9,4c0,0,0,0,0,0c0,0,0,0,0,0c0,0,0,0,0,0c0,0,0,0,0,0c0,0,0,0,0,0c0,0,0,0,0,0c0,0,0,0,0,0c0,0,0,0,0,0
				c0,0,0,0,0,0c0,0,0,0,0,0c0,0.1,0,0.2,0.1,0.3c0.1,0.4,0.2,0.9,0.3,1.3l0-0.2c0-0.4,0-0.8,0-1.3C28.4,4.1,28.5,4,28.6,4z"/>
			<g enable-background="new    ">
				<defs>
					<path id="SVGID_9_" enable-background="new    " d="M28.6,4c0.1,0,0.2,0,0.2,0.1c0,1.1,0,2.2,0,3.3c0,0.1,0,0.2-0.1,0.2
						c-0.1,0-0.2,0-0.2-0.1c0-0.2-0.1-0.4-0.1-0.6c0-0.3-0.1-0.5-0.2-0.8l-0.1,0l0,0.2c0,0.4,0,0.8,0,1.2c0,0.1,0,0.2-0.2,0.2
						c-0.1,0-0.2,0-0.2-0.2c0-1.1,0-2.2,0-3.2L27.9,4c0,0,0,0,0,0c0,0,0,0,0,0c0,0,0,0,0,0c0,0,0,0,0,0c0,0,0,0,0,0c0,0,0,0,0,0
						c0,0,0,0,0,0c0,0,0,0,0,0c0,0,0,0,0,0c0,0,0,0,0,0c0,0.1,0,0.2,0.1,0.3c0.1,0.4,0.2,0.9,0.3,1.3l0-0.2c0-0.4,0-0.8,0-1.3
						C28.4,4.1,28.5,4,28.6,4z"/>
				</defs>
				<clipPath id="SVGID_10_">
					<use xlink:href="#SVGID_9_"  overflow="visible"/>
				</clipPath>
				<g clip-path="url(#SVGID_10_)">
					<g>
						<g>
							<defs>
								<polyline id="SVGID_11_" points="28.8,4.3 28.8,4.5 28.8,4.7 28.8,4.9 28.8,5.1 28.8,5.3 28.8,5.6 28.8,5.8 28.8,6 
									28.8,6.2 28.8,6.4 28.8,6.6 28.8,6.8 28.8,7 28.8,7.2 28.8,7.4 28.8,7.4 28.8,7.4 28.8,7.5 28.8,7.5 28.7,7.5 28.7,7.5 
									28.7,7.5 28.7,7.5 28.6,7.5 28.6,7.5 28.6,7.5 28.5,7.5 28.5,7.5 28.5,7.5 28.5,7.4 28.4,7.4 28.4,7.3 28.4,7.2 28.4,7.2 
									28.4,7.1 28.4,7 28.4,6.9 28.4,6.8 28.3,6.8 28.3,6.7 28.3,6.6 28.3,6.5 28.3,6.4 28.2,6.3 28.2,6.2 28.2,6.1 28.2,6 
									28.1,6 28.1,6.2 28.1,6.3 28.1,6.5 28.1,6.6 28.1,6.7 28.1,6.9 28.1,7 28.1,7.2 28.1,7.3 28.1,7.4 28.1,7.4 28.1,7.4 
									28.1,7.5 28.1,7.5 28,7.5 28,7.5 27.9,7.5 27.9,7.5 27.9,7.5 27.8,7.5 27.8,7.5 27.8,7.5 27.8,7.5 27.8,7.4 27.8,7.4 
									27.8,7.2 27.8,7 27.8,6.8 27.8,6.6 27.8,6.4 27.8,6.2 27.8,6 27.8,5.8 27.8,5.6 27.8,5.4 27.8,5.2 27.8,4.9 27.8,4.7 
									27.8,4.5 27.8,4.3 27.8,4.1 27.9,4 27.9,4 27.9,4 27.9,4 27.9,4 27.9,4 27.9,4 27.9,4 27.9,4 27.9,4 27.9,4 27.9,4 27.9,4 
									28,4 28,4 28,4 28,4 28,4 28,4 28,4 28,4 28,4 28,4 28,4 28,4 28,4 28,4 28,4 28,4 28,4 28,4 28,4 28,4 28,4 28,4 28,4 
									28,4 28,4 28,4 28,4 28,4 28,4 28,4 28,4 28,4 28.1,4 28.1,4 28.1,4 28.1,4 28.1,4 28.1,4 28.1,4 28.1,4 28.1,4 28.1,4 
									28.1,4 28.1,4 28.1,4 28.1,4 28.1,4 28.1,4 28.1,4 28.1,4 28.1,4 28.1,4 28.1,4 28.1,4 28.1,4 28.1,4.1 28.1,4.1 28.1,4.1 
									28.1,4.1 28.1,4.1 28.1,4.1 28.1,4.1 28.1,4.1 28.1,4.1 28.1,4.1 28.1,4.1 28.1,4.1 28.1,4.1 28.1,4.1 28.1,4.2 28.1,4.2 
									28.2,4.2 28.2,4.3 28.2,4.3 28.2,4.4 28.2,4.4 28.2,4.6 28.2,4.7 28.3,4.9 28.3,5 28.3,5.2 28.4,5.4 28.4,5.5 28.4,5.7 
									28.4,5.5 28.4,5.3 28.4,5.1 28.4,5 28.4,4.8 28.4,4.7 28.4,4.5 28.4,4.3 28.4,4.2 28.4,4.1 28.4,4.1 28.5,4.1 28.5,4 
									28.5,4 28.5,4 28.6,4 28.6,4 28.7,4 28.7,4 28.7,4 28.7,4 28.8,4 28.8,4.1 28.8,4.1 28.8,4.1 28.8,4.3 								"/>
							</defs>
							<clipPath id="SVGID_12_">
								<use xlink:href="#SVGID_11_"  overflow="visible"/>
							</clipPath>
							<g clip-path="url(#SVGID_12_)">
								<image overflow="visible" width="1" height="4" xlink:href="AA63F0BA.png"  transform="matrix(1 0 0 1 27.774 3.9748)">
								</image>
							</g>
						</g>
					</g>
				</g>
			</g>
		</g>
		<g>
			<path fill="#AEAEAE" d="M16.2,4c0.1,0,0.2,0,0.2,0.2c0,1.1,0,2.1,0,3.2c0,0.1,0,0.2-0.1,0.2c-0.1,0-0.2-0.1-0.2-0.2
				c0-0.3,0-0.7,0-1V6c0-0.1,0-0.2-0.2-0.2c-0.1,0-0.1,0.1-0.1,0.2c0,0.4,0,0.8,0,1.3c0,0.1,0,0.2-0.1,0.2c0,0,0,0,0,0c0,0,0,0,0,0
				c0,0,0,0,0,0c0,0,0,0,0,0c0,0,0,0,0,0c0,0,0,0,0,0c0,0,0,0,0,0c0,0,0,0,0,0c0,0,0,0,0,0c0,0,0,0,0,0c0-0.5,0-1.1,0-1.6
				c0-0.5,0-1.1,0-1.6c0-0.1,0-0.2,0.1-0.2c0.1,0,0.2,0.1,0.2,0.2c0,0.4,0,0.8,0,1.2c0,0,0,0,0,0c0,0,0,0,0,0c0,0,0,0,0,0
				c0,0,0,0,0,0c0,0,0,0,0,0c0,0,0,0,0,0c0,0,0,0,0,0c0,0,0,0,0,0c0,0,0,0,0,0c0,0,0,0,0,0c0,0,0,0,0,0c0,0,0,0,0,0c0,0,0,0,0,0
				c0,0,0,0,0,0c0,0,0,0,0,0c0,0,0,0,0,0c0,0,0,0,0,0c0,0,0,0,0,0C16,5.6,16,5.4,16,5.3c0-0.4,0-0.8,0-1.2C16,4.1,16.1,4,16.2,4z"/>
			<g enable-background="new    ">
				<defs>
					<path id="SVGID_13_" enable-background="new    " d="M16.2,4c0.1,0,0.2,0,0.2,0.2c0,1.1,0,2.1,0,3.2c0,0.1,0,0.2-0.1,0.2
						c-0.1,0-0.2-0.1-0.2-0.2c0-0.3,0-0.7,0-1V6c0-0.1,0-0.2-0.2-0.2c-0.1,0-0.1,0.1-0.1,0.2c0,0.4,0,0.8,0,1.3c0,0.1,0,0.2-0.1,0.2
						c0,0,0,0,0,0c0,0,0,0,0,0c0,0,0,0,0,0c0,0,0,0,0,0c0,0,0,0,0,0c0,0,0,0,0,0c0,0,0,0,0,0c0,0,0,0,0,0c0,0,0,0,0,0c0,0,0,0,0,0
						c0-0.5,0-1.1,0-1.6c0-0.5,0-1.1,0-1.6c0-0.1,0-0.2,0.1-0.2c0.1,0,0.2,0.1,0.2,0.2c0,0.4,0,0.8,0,1.2c0,0,0,0,0,0c0,0,0,0,0,0
						c0,0,0,0,0,0c0,0,0,0,0,0c0,0,0,0,0,0c0,0,0,0,0,0c0,0,0,0,0,0c0,0,0,0,0,0c0,0,0,0,0,0c0,0,0,0,0,0c0,0,0,0,0,0c0,0,0,0,0,0
						c0,0,0,0,0,0c0,0,0,0,0,0c0,0,0,0,0,0c0,0,0,0,0,0c0,0,0,0,0,0c0,0,0,0,0,0C16,5.6,16,5.4,16,5.3c0-0.4,0-0.8,0-1.2
						C16,4.1,16.1,4,16.2,4z"/>
				</defs>
				<clipPath id="SVGID_14_">
					<use xlink:href="#SVGID_13_"  overflow="visible"/>
				</clipPath>
				<g clip-path="url(#SVGID_14_)">
					<g>
						<g>
							<defs>
								<polyline id="SVGID_15_" points="16.4,4.3 16.4,4.5 16.4,4.7 16.4,4.9 16.4,5.1 16.4,5.3 16.4,5.5 16.4,5.7 16.4,5.9 
									16.4,6.1 16.4,6.3 16.4,6.5 16.4,6.7 16.4,6.9 16.4,7.1 16.4,7.3 16.4,7.4 16.4,7.4 16.4,7.4 16.3,7.5 16.3,7.5 16.3,7.5 
									16.3,7.5 16.2,7.5 16.2,7.5 16.1,7.5 16.1,7.5 16.1,7.5 16.1,7.4 16,7.4 16,7.4 16,7.3 16,7.2 16,7.1 16,6.9 16,6.8 16,6.7 
									16,6.6 16,6.4 16,6.3 16,6 16,6 16,6 16,5.9 16,5.9 16,5.9 16,5.9 15.9,5.8 15.9,5.8 15.8,5.8 15.8,5.9 15.8,5.9 15.7,5.9 
									15.7,5.9 15.7,6 15.7,6 15.7,6 15.7,6.2 15.7,6.3 15.7,6.5 15.7,6.7 15.7,6.8 15.7,7 15.7,7.1 15.7,7.3 15.7,7.3 15.7,7.4 
									15.7,7.4 15.7,7.4 15.7,7.5 15.7,7.5 15.6,7.5 15.6,7.5 15.6,7.5 15.6,7.5 15.6,7.5 15.6,7.5 15.6,7.5 15.6,7.5 15.6,7.5 
									15.6,7.5 15.6,7.5 15.6,7.5 15.5,7.5 15.5,7.5 15.5,7.5 15.5,7.5 15.5,7.5 15.5,7.5 15.5,7.5 15.5,7.5 15.5,7.5 15.5,7.5 
									15.5,7.5 15.5,7.5 15.5,7.5 15.5,7.5 15.5,7.5 15.5,7.5 15.5,7.5 15.5,7.5 15.5,7.5 15.5,7.5 15.5,7.5 15.5,7.5 15.5,7.5 
									15.5,7.5 15.5,7.5 15.5,7.5 15.5,7.5 15.5,7.5 15.5,7.5 15.5,7.5 15.4,7.5 15.4,7.5 15.4,7.5 15.4,7.5 15.4,7.5 15.4,7.5 
									15.4,7.5 15.4,7.5 15.4,7.5 15.4,7.5 15.4,7.5 15.4,7.5 15.4,7.5 15.4,7.5 15.4,7.5 15.4,7.5 15.4,7.5 15.4,7.5 15.4,7.5 
									15.4,7.5 15.4,7.5 15.4,7.5 15.4,7.5 15.4,7.4 15.4,7.4 15.4,7.4 15.4,7.4 15.4,7.4 15.4,7.4 15.4,7.4 15.4,7.4 15.4,7.4 
									15.4,7.4 15.4,7.4 15.4,7.4 15.4,7.4 15.4,7.4 15.4,7.4 15.4,7.4 15.4,7.4 15.4,7.2 15.4,7 15.4,6.8 15.4,6.6 15.4,6.4 
									15.4,6.2 15.4,5.9 15.4,5.7 15.4,5.5 15.4,5.4 15.4,5.2 15.4,5 15.4,4.8 15.4,4.6 15.4,4.4 15.4,4.2 15.4,4.1 15.4,4.1 
									15.4,4.1 15.4,4 15.4,4 15.4,4 15.5,4 15.5,4 15.6,4 15.6,4 15.7,4 15.7,4 15.7,4 15.7,4.1 15.7,4.1 15.7,4.2 15.7,4.3 
									15.7,4.5 15.7,4.6 15.7,4.8 15.7,4.9 15.7,5.1 15.7,5.2 15.7,5.4 15.7,5.4 15.7,5.4 15.7,5.4 15.7,5.4 15.7,5.4 15.7,5.4 
									15.7,5.4 15.7,5.4 15.7,5.4 15.7,5.4 15.7,5.4 15.7,5.4 15.7,5.4 15.7,5.4 15.7,5.4 15.7,5.4 15.7,5.4 15.7,5.4 15.7,5.4 
									15.7,5.4 15.7,5.4 15.7,5.4 15.7,5.4 15.7,5.4 15.7,5.4 15.7,5.4 15.7,5.4 15.7,5.4 15.7,5.4 15.7,5.4 15.7,5.4 15.7,5.4 
									15.7,5.4 15.7,5.4 15.7,5.4 15.7,5.4 15.7,5.4 15.7,5.4 15.7,5.4 15.7,5.4 15.7,5.5 15.7,5.5 15.7,5.5 15.7,5.5 15.7,5.5 
									15.7,5.5 15.7,5.5 15.7,5.5 15.7,5.5 15.7,5.5 15.7,5.5 15.7,5.5 15.7,5.5 15.7,5.5 15.7,5.5 15.7,5.5 15.7,5.5 15.7,5.5 
									15.7,5.5 15.7,5.5 15.7,5.5 15.7,5.5 15.7,5.5 15.7,5.5 15.8,5.5 15.8,5.5 15.8,5.5 15.8,5.5 15.8,5.5 15.8,5.5 15.8,5.5 
									15.8,5.5 15.8,5.5 15.8,5.5 15.8,5.5 15.8,5.5 15.8,5.5 15.8,5.5 15.8,5.5 15.8,5.5 15.8,5.5 15.8,5.5 15.8,5.5 15.8,5.5 
									15.8,5.5 15.8,5.5 15.8,5.5 15.8,5.5 15.8,5.5 15.8,5.5 15.8,5.5 15.8,5.5 15.8,5.5 15.8,5.5 15.8,5.5 15.8,5.5 15.8,5.6 
									15.8,5.6 15.8,5.6 15.8,5.6 15.8,5.6 15.8,5.6 15.8,5.6 15.8,5.6 15.8,5.6 15.8,5.6 15.8,5.6 15.8,5.6 15.8,5.6 15.8,5.6 
									15.8,5.6 15.8,5.6 15.8,5.6 15.8,5.6 15.8,5.6 15.8,5.6 15.8,5.6 15.8,5.6 15.8,5.6 15.8,5.6 15.8,5.6 15.8,5.6 15.8,5.6 
									15.8,5.6 15.8,5.6 15.8,5.6 15.8,5.6 15.8,5.6 15.8,5.6 15.9,5.6 15.9,5.6 15.9,5.6 15.9,5.6 15.9,5.6 15.9,5.6 15.9,5.6 
									15.9,5.6 15.9,5.6 15.9,5.6 15.9,5.6 15.9,5.6 15.9,5.6 15.9,5.6 15.9,5.6 15.9,5.6 16,5.5 16,5.5 16,5.5 16,5.5 16,5.4 
									16,5.4 16,5.3 16,5.2 16,5 16,4.9 16,4.8 16,4.6 16,4.5 16,4.3 16,4.2 16,4.1 16,4.1 16,4.1 16.1,4 16.1,4 16.1,4 16.1,4 
									16.2,4 16.2,4 16.3,4 16.3,4 16.3,4 16.3,4 16.4,4.1 16.4,4.1 16.4,4.1 16.4,4.3 								"/>
							</defs>
							<clipPath id="SVGID_16_">
								<use xlink:href="#SVGID_15_"  overflow="visible"/>
							</clipPath>
							<g clip-path="url(#SVGID_16_)">
								<image overflow="visible" width="1" height="4" xlink:href="AA63F0BB.png"  transform="matrix(1 0 0 1 15.396 3.965)">
								</image>
							</g>
						</g>
					</g>
				</g>
			</g>
		</g>
		<g>
			<path fill="#AEAEAE" d="M12.6,3.9c0.3,0,0.5,0.2,0.5,0.5c0,0.3,0,0.7,0,1c0,0.1,0,0.2-0.2,0.2c-0.1,0-0.2,0-0.2-0.2
				c0-0.3,0-0.6,0-0.9c0,0,0,0,0,0c0,0,0,0,0,0c0,0,0,0,0,0c0,0,0,0,0,0c0,0,0,0,0,0c0,0,0,0,0,0c0,0,0,0,0,0c0,0,0,0,0,0
				c0,0,0,0,0,0c0,0,0,0,0,0c0,0,0,0,0,0c0,0,0,0,0,0c0,0,0,0,0,0c0,0,0,0,0,0c0,0,0,0,0,0c0,0,0,0,0,0c0,0,0,0,0,0c0,0,0,0,0,0
				c0,0,0,0,0,0c0,0,0,0,0,0c-0.2,0-0.1,0.1-0.1,0.2c0,0.8,0,1.7,0,2.5v0.1l0.1,0.2l0.1-0.2c0-0.3,0-0.6,0-0.9c0-0.1,0-0.2,0.2-0.2
				c0.2,0,0.2,0.1,0.2,0.2c0,0.3,0,0.6,0,0.9c0,0.3-0.2,0.5-0.5,0.5c-0.3,0-0.5-0.2-0.5-0.5c0-0.5,0-0.9,0-1.4c0-0.5,0-0.9,0-1.4
				C12.1,4.1,12.3,3.9,12.6,3.9z"/>
			<g enable-background="new    ">
				<defs>
					<path id="SVGID_17_" enable-background="new    " d="M12.6,3.9c0.3,0,0.5,0.2,0.5,0.5c0,0.3,0,0.7,0,1c0,0.1,0,0.2-0.2,0.2
						c-0.1,0-0.2,0-0.2-0.2c0-0.3,0-0.6,0-0.9c0,0,0,0,0,0c0,0,0,0,0,0c0,0,0,0,0,0c0,0,0,0,0,0c0,0,0,0,0,0c0,0,0,0,0,0
						c0,0,0,0,0,0c0,0,0,0,0,0c0,0,0,0,0,0c0,0,0,0,0,0c0,0,0,0,0,0c0,0,0,0,0,0c0,0,0,0,0,0c0,0,0,0,0,0c0,0,0,0,0,0c0,0,0,0,0,0
						c0,0,0,0,0,0c0,0,0,0,0,0c0,0,0,0,0,0c0,0,0,0,0,0c-0.2,0-0.1,0.1-0.1,0.2c0,0.8,0,1.7,0,2.5v0.1l0.1,0.2l0.1-0.2
						c0-0.3,0-0.6,0-0.9c0-0.1,0-0.2,0.2-0.2c0.2,0,0.2,0.1,0.2,0.2c0,0.3,0,0.6,0,0.9c0,0.3-0.2,0.5-0.5,0.5
						c-0.3,0-0.5-0.2-0.5-0.5c0-0.5,0-0.9,0-1.4c0-0.5,0-0.9,0-1.4C12.1,4.1,12.3,3.9,12.6,3.9z"/>
				</defs>
				<clipPath id="SVGID_18_">
					<use xlink:href="#SVGID_17_"  overflow="visible"/>
				</clipPath>
				<g clip-path="url(#SVGID_18_)">
					<g>
						<g>
							<defs>
								<polyline id="SVGID_19_" points="13.1,4.9 13.1,5 13.1,5.1 13.1,5.3 13.1,5.4 13.1,5.4 13.1,5.5 13.1,5.5 13.1,5.5 
									13.1,5.5 13,5.6 13,5.6 13,5.6 12.9,5.6 12.9,5.6 12.9,5.5 12.8,5.5 12.8,5.5 12.8,5.5 12.8,5.4 12.8,5.4 12.8,5.3 
									12.8,5.2 12.8,5.1 12.8,4.9 12.8,4.8 12.8,4.7 12.8,4.6 12.8,4.5 12.8,4.5 12.8,4.5 12.8,4.5 12.8,4.5 12.8,4.5 12.8,4.5 
									12.8,4.4 12.8,4.4 12.8,4.4 12.8,4.4 12.8,4.4 12.8,4.4 12.8,4.4 12.8,4.4 12.8,4.4 12.8,4.4 12.8,4.4 12.8,4.4 12.8,4.4 
									12.8,4.4 12.8,4.4 12.8,4.4 12.8,4.4 12.8,4.4 12.8,4.4 12.8,4.4 12.8,4.4 12.8,4.4 12.8,4.4 12.8,4.4 12.8,4.4 12.8,4.4 
									12.8,4.4 12.8,4.4 12.8,4.4 12.8,4.4 12.8,4.4 12.8,4.4 12.8,4.4 12.8,4.4 12.8,4.4 12.8,4.4 12.8,4.4 12.8,4.4 12.8,4.4 
									12.8,4.4 12.8,4.4 12.8,4.4 12.8,4.4 12.8,4.4 12.8,4.3 12.8,4.3 12.8,4.3 12.8,4.3 12.8,4.3 12.8,4.3 12.8,4.3 12.8,4.3 
									12.8,4.3 12.8,4.3 12.8,4.3 12.8,4.3 12.8,4.3 12.8,4.3 12.8,4.3 12.8,4.3 12.8,4.3 12.8,4.3 12.8,4.3 12.8,4.3 12.7,4.3 
									12.7,4.3 12.7,4.3 12.7,4.3 12.7,4.3 12.7,4.3 12.7,4.3 12.7,4.3 12.7,4.3 12.7,4.3 12.7,4.3 12.7,4.3 12.7,4.3 12.7,4.3 
									12.7,4.3 12.7,4.3 12.7,4.3 12.7,4.3 12.7,4.3 12.7,4.3 12.7,4.3 12.7,4.3 12.7,4.3 12.7,4.3 12.7,4.3 12.7,4.3 12.7,4.3 
									12.7,4.3 12.7,4.3 12.7,4.3 12.7,4.3 12.7,4.3 12.7,4.3 12.7,4.3 12.7,4.3 12.7,4.3 12.7,4.3 12.7,4.3 12.7,4.3 12.7,4.3 
									12.7,4.3 12.7,4.3 12.7,4.3 12.7,4.3 12.7,4.3 12.7,4.3 12.7,4.3 12.7,4.3 12.7,4.3 12.7,4.3 12.7,4.3 12.7,4.3 12.7,4.3 
									12.7,4.2 12.7,4.2 12.7,4.2 12.7,4.2 12.7,4.2 12.7,4.2 12.7,4.2 12.7,4.2 12.7,4.2 12.7,4.2 12.7,4.2 12.7,4.2 12.7,4.2 
									12.7,4.2 12.7,4.2 12.7,4.2 12.7,4.2 12.7,4.2 12.7,4.2 12.7,4.2 12.7,4.2 12.6,4.2 12.6,4.2 12.6,4.2 12.6,4.2 12.6,4.2 
									12.6,4.2 12.6,4.2 12.6,4.2 12.6,4.2 12.6,4.2 12.6,4.2 12.6,4.2 12.6,4.2 12.6,4.2 12.6,4.2 12.6,4.2 12.6,4.3 12.5,4.3 
									12.5,4.3 12.5,4.3 12.5,4.4 12.5,4.4 12.5,4.4 12.5,4.5 12.5,4.6 12.5,4.8 12.5,5 12.5,5.1 12.5,5.3 12.5,5.4 12.5,5.6 
									12.5,5.8 12.5,5.9 12.5,6.1 12.5,6.2 12.5,6.4 12.5,6.5 12.5,6.7 12.5,6.9 12.5,7 12.5,7.1 12.6,7.3 12.8,7.1 12.8,7 
									12.8,6.9 12.8,6.8 12.8,6.6 12.8,6.5 12.8,6.4 12.8,6.3 12.8,6.2 12.8,6.1 12.8,6.1 12.8,6.1 12.8,6 12.8,6 12.9,6 12.9,6 
									13,6 13,6 13.1,6 13.1,6 13.1,6 13.1,6.1 13.1,6.1 13.1,6.2 13.1,6.2 13.1,6.3 13.1,6.4 13.1,6.5 13.1,6.7 13.1,6.8 
									13.1,6.9 13.1,7 13.1,7.1 13.1,7.2 13.1,7.3 13,7.4 13,7.5 12.9,7.5 12.8,7.6 12.7,7.6 12.6,7.6 12.5,7.6 12.4,7.5 
									12.3,7.5 12.3,7.5 12.2,7.4 12.2,7.3 12.1,7.2 12.1,7.1 12.1,6.9 12.1,6.8 12.1,6.6 12.1,6.4 12.1,6.2 12.1,6.1 12.1,5.9 
									12.1,5.7 12.1,5.6 12.1,5.4 12.1,5.2 12.1,5.1 12.1,4.9 12.1,4.7 12.1,4.6 12.1,4.4 12.2,4.3 12.2,4.2 12.2,4.1 12.3,4 
									12.3,4 12.4,3.9 12.5,3.9 12.6,3.9 12.7,3.9 12.8,3.9 12.9,4 13,4 13,4.1 13.1,4.2 13.1,4.3 13.1,4.4 13.1,4.5 13.1,4.6 
									13.1,4.8 13.1,4.9 								"/>
							</defs>
							<clipPath id="SVGID_20_">
								<use xlink:href="#SVGID_19_"  overflow="visible"/>
							</clipPath>
							<g clip-path="url(#SVGID_20_)">
								<image overflow="visible" width="2" height="4" xlink:href="AA63F0C5.png"  transform="matrix(1 0 0 1 12.123 3.902)">
								</image>
							</g>
						</g>
					</g>
				</g>
			</g>
		</g>
		<g>
			<path fill="#AEAEAE" d="M22.3,5.1c0-0.2,0-0.3,0-0.5V4.4l-0.1-0.2L22,4.4c0,0.4,0.1,0.8,0.2,1.1c0.2,0.5,0.4,1,0.4,1.5
				c0,0.3-0.1,0.4-0.3,0.5c0,0,0,0-0.1,0c0,0,0,0,0,0c0,0,0,0,0,0c0,0,0,0-0.1,0c0,0,0,0,0,0c0,0,0,0,0,0c0,0,0,0,0,0c0,0,0,0-0.1,0
				c0,0,0,0,0,0c0,0,0,0,0,0c0,0,0,0,0,0c0,0,0,0,0,0c0,0,0,0,0,0c0,0,0,0,0,0c0,0,0,0,0,0c0,0,0,0,0,0c0,0,0,0,0,0c0,0,0,0,0,0
				c0,0,0,0,0,0c0,0,0,0,0,0c-0.1-0.1-0.1-0.2-0.1-0.3c0-0.1,0-0.2,0-0.4c0-0.1,0-0.2,0-0.3c0-0.1,0-0.2,0.1-0.2
				c0.1,0,0.2,0.1,0.2,0.2c0,0.1,0,0.3,0,0.4l0,0.2l0.1,0.2l0.1-0.2c0-0.3-0.1-0.7-0.2-1c-0.1-0.4-0.3-0.7-0.4-1.1
				c-0.1-0.2-0.1-0.5-0.1-0.7c0-0.2,0.2-0.4,0.5-0.4c0.2,0,0.5,0.2,0.5,0.4c0,0.2,0,0.5,0,0.7c0,0.1,0,0.2-0.1,0.2
				C22.4,5.2,22.3,5.2,22.3,5.1z"/>
			<g enable-background="new    ">
				<defs>
					<path id="SVGID_21_" enable-background="new    " d="M22.3,5.1c0-0.2,0-0.3,0-0.5V4.4l-0.1-0.2L22,4.4c0,0.4,0.1,0.8,0.2,1.1
						c0.2,0.5,0.4,1,0.4,1.5c0,0.3-0.1,0.4-0.3,0.5c0,0,0,0-0.1,0c0,0,0,0,0,0c0,0,0,0,0,0c0,0,0,0-0.1,0c0,0,0,0,0,0c0,0,0,0,0,0
						c0,0,0,0,0,0c0,0,0,0-0.1,0c0,0,0,0,0,0c0,0,0,0,0,0c0,0,0,0,0,0c0,0,0,0,0,0c0,0,0,0,0,0c0,0,0,0,0,0c0,0,0,0,0,0c0,0,0,0,0,0
						c0,0,0,0,0,0c0,0,0,0,0,0c0,0,0,0,0,0c0,0,0,0,0,0c-0.1-0.1-0.1-0.2-0.1-0.3c0-0.1,0-0.2,0-0.4c0-0.1,0-0.2,0-0.3
						c0-0.1,0-0.2,0.1-0.2c0.1,0,0.2,0.1,0.2,0.2c0,0.1,0,0.3,0,0.4l0,0.2l0.1,0.2l0.1-0.2c0-0.3-0.1-0.7-0.2-1
						c-0.1-0.4-0.3-0.7-0.4-1.1c-0.1-0.2-0.1-0.5-0.1-0.7c0-0.2,0.2-0.4,0.5-0.4c0.2,0,0.5,0.2,0.5,0.4c0,0.2,0,0.5,0,0.7
						c0,0.1,0,0.2-0.1,0.2C22.4,5.2,22.3,5.2,22.3,5.1z"/>
				</defs>
				<clipPath id="SVGID_22_">
					<use xlink:href="#SVGID_21_"  overflow="visible"/>
				</clipPath>
				<g clip-path="url(#SVGID_22_)">
					<g>
						<g>
							<defs>
								<polyline id="SVGID_23_" points="22.7,5.1 22.6,5.1 22.6,5.1 22.6,5.2 22.6,5.2 22.6,5.2 22.6,5.2 22.5,5.2 22.5,5.2 
									22.4,5.2 22.4,5.2 22.4,5.2 22.3,5.2 22.3,5.1 22.3,5.1 22.3,5.1 22.3,5 22.3,4.9 22.3,4.9 22.3,4.8 22.3,4.7 22.3,4.7 
									22.3,4.6 22.3,4.5 22.3,4.4 22.2,4.2 22,4.4 22,4.5 22,4.7 22.1,4.8 22.1,5 22.1,5.1 22.2,5.3 22.2,5.4 22.3,5.5 22.3,5.7 
									22.4,5.9 22.5,6.1 22.5,6.3 22.6,6.5 22.6,6.7 22.6,6.9 22.7,7.1 22.6,7.2 22.6,7.2 22.6,7.3 22.6,7.4 22.6,7.4 22.5,7.5 
									22.5,7.5 22.4,7.5 22.4,7.5 22.4,7.5 22.4,7.5 22.4,7.5 22.4,7.5 22.4,7.5 22.4,7.5 22.3,7.5 22.3,7.5 22.3,7.5 22.3,7.5 
									22.3,7.6 22.3,7.6 22.3,7.6 22.3,7.6 22.3,7.6 22.3,7.6 22.3,7.6 22.3,7.6 22.3,7.6 22.3,7.6 22.3,7.6 22.3,7.6 22.3,7.6 
									22.3,7.6 22.3,7.6 22.3,7.6 22.3,7.6 22.2,7.6 22.2,7.6 22.2,7.6 22.2,7.6 22.2,7.6 22.2,7.6 22.2,7.6 22.2,7.6 22.2,7.6 
									22.2,7.6 22.2,7.6 22.2,7.6 22.2,7.6 22.2,7.6 22.2,7.6 22.2,7.6 22.2,7.6 22.2,7.6 22.2,7.6 22.2,7.6 22.2,7.6 22.2,7.6 
									22.2,7.6 22.2,7.6 22.2,7.6 22.2,7.6 22.2,7.6 22.1,7.6 22.1,7.6 22.1,7.6 22.1,7.6 22.1,7.6 22.1,7.6 22.1,7.6 22.1,7.6 
									22.1,7.6 22.1,7.6 22.1,7.6 22.1,7.6 22.1,7.6 22.1,7.6 22.1,7.6 22.1,7.6 22,7.6 22,7.6 22,7.6 22,7.6 22,7.6 22,7.6 
									22,7.6 22,7.6 22,7.6 22,7.6 22,7.6 22,7.6 22,7.6 22,7.6 22,7.6 22,7.6 22,7.6 22,7.6 22,7.6 22,7.6 22,7.6 22,7.6 22,7.6 
									22,7.6 22,7.6 22,7.6 22,7.6 22,7.6 22,7.5 22,7.5 22,7.5 22,7.5 21.9,7.5 21.9,7.5 21.9,7.5 21.9,7.5 21.9,7.5 21.9,7.5 
									21.9,7.5 21.9,7.5 21.9,7.5 21.9,7.5 21.9,7.5 21.9,7.5 21.9,7.5 21.9,7.5 21.9,7.5 21.9,7.5 21.9,7.5 21.9,7.5 21.9,7.5 
									21.9,7.5 21.9,7.5 21.9,7.5 21.9,7.5 21.9,7.5 21.9,7.5 21.9,7.5 21.9,7.5 21.9,7.5 21.9,7.5 21.9,7.5 21.9,7.5 21.9,7.5 
									21.9,7.5 21.8,7.5 21.8,7.5 21.8,7.5 21.8,7.5 21.8,7.5 21.8,7.5 21.8,7.5 21.8,7.5 21.8,7.5 21.8,7.5 21.8,7.5 21.8,7.5 
									21.8,7.5 21.8,7.5 21.8,7.5 21.8,7.5 21.8,7.5 21.8,7.5 21.8,7.5 21.8,7.4 21.8,7.4 21.8,7.4 21.8,7.4 21.8,7.4 21.8,7.4 
									21.7,7.4 21.7,7.3 21.7,7.3 21.7,7.3 21.7,7.2 21.7,7.2 21.7,7.1 21.7,7.1 21.7,7 21.7,7 21.6,7 21.7,6.9 21.7,6.9 
									21.7,6.8 21.7,6.8 21.7,6.7 21.7,6.7 21.7,6.7 21.7,6.6 21.7,6.6 21.7,6.6 21.7,6.5 21.7,6.5 21.7,6.4 21.7,6.4 21.7,6.4 
									21.7,6.3 21.7,6.3 21.7,6.3 21.7,6.3 21.8,6.3 21.8,6.3 21.9,6.3 21.9,6.3 21.9,6.3 22,6.4 22,6.4 22,6.4 22,6.5 22,6.5 
									22,6.6 22,6.6 22,6.7 22,6.7 22,6.8 22,6.9 22,6.9 22,7.1 22.2,7.3 22.3,7.1 22.3,7 22.3,6.9 22.2,6.8 22.2,6.6 22.2,6.5 
									22.2,6.4 22.2,6.3 22.1,6.2 22.1,6 22,5.9 22,5.7 21.9,5.6 21.9,5.5 21.8,5.3 21.8,5.2 21.7,5.1 21.7,5 21.7,4.9 21.7,4.8 
									21.7,4.7 21.7,4.6 21.7,4.5 21.7,4.4 21.7,4.3 21.7,4.2 21.7,4.2 21.8,4.1 21.8,4 21.9,4 22,4 22.1,3.9 22.2,3.9 22.3,3.9 
									22.3,3.9 22.4,4 22.5,4 22.5,4.1 22.6,4.2 22.6,4.2 22.6,4.3 22.6,4.4 22.6,4.5 22.6,4.6 22.7,4.7 22.7,4.8 22.7,4.9 
									22.7,5 22.7,5.1 22.7,5.1 								"/>
							</defs>
							<clipPath id="SVGID_24_">
								<use xlink:href="#SVGID_23_"  overflow="visible"/>
							</clipPath>
							<g clip-path="url(#SVGID_24_)">
								<image overflow="visible" width="2" height="4" xlink:href="AA63F0C7.png"  transform="matrix(1 0 0 1 21.6495 3.92)">
								</image>
							</g>
						</g>
					</g>
				</g>
			</g>
		</g>
		<g>
			<path fill="#AEAEAE" d="M40.6,4.2l-0.3,0.1c0,0.1,0,0.2,0,0.3c0,0.3,0,0.6,0,1c0,0,0,0,0,0c0,0,0,0,0,0c0,0,0,0,0,0
				c0,0,0.1,0,0.1,0c0,0,0,0,0,0c0,0,0,0,0,0c0,0,0,0,0,0l0.1,0.1l-0.1,0.2c0,0,0,0,0,0c0,0,0,0,0,0c0,0,0,0,0,0c0,0,0,0,0,0
				c0,0,0,0,0,0c0,0,0,0,0,0c0,0,0,0,0,0c0,0,0,0,0,0c0,0,0,0,0,0c0,0,0,0,0,0c0,0,0,0,0,0c0,0,0,0,0,0c0,0,0,0,0,0c0,0,0,0,0,0
				c0,0,0,0,0,0c0,0,0,0,0,0c0,0,0,0,0,0c0,0,0,0,0,0c0,0,0,0,0,0c0,0,0,0,0,0c0,0,0,0,0,0c0,0,0,0,0,0c0,0,0,0,0,0c0,0,0,0,0,0
				c0,0,0,0,0,0c0,0,0,0,0,0c0,0,0,0,0,0c0,0,0,0,0,0c0,0,0,0,0,0c0,0,0,0,0,0c0,0.3,0,0.6,0,0.9c0,0,0,0,0,0c0,0,0,0,0,0
				c0,0,0,0,0,0c0,0,0,0,0,0c0,0,0,0,0,0c0,0,0,0,0,0c0,0,0,0,0,0c0,0,0,0,0,0c0,0,0,0,0,0c0,0,0,0,0,0c0,0,0,0,0,0c0,0,0,0,0,0
				c0,0,0,0,0,0c0,0,0,0,0,0c0,0,0,0,0,0c0,0,0,0,0,0l0.2,0l0.1,0.2l-0.1,0.1c-0.2,0-0.3,0-0.5,0c-0.1,0-0.2,0-0.1-0.1
				c0-0.1,0-0.3,0-0.4c0-0.9,0-1.8,0-2.7c0,0,0,0,0-0.1c0,0,0,0,0,0c0,0,0,0,0,0c0,0,0,0,0,0c0,0,0,0,0,0c0,0,0,0,0,0c0,0,0,0,0,0
				c0,0,0,0,0,0c0,0,0,0,0,0c0,0,0,0,0.1,0c0,0,0,0,0.1,0c0,0,0.1,0,0.1,0c0.1,0,0.2,0,0.3,0l0.2,0.1L40.6,4.2z"/>
			<g enable-background="new    ">
				<defs>
					<path id="SVGID_25_" enable-background="new    " d="M40.6,4.2l-0.3,0.1c0,0.1,0,0.2,0,0.3c0,0.3,0,0.6,0,1c0,0,0,0,0,0
						c0,0,0,0,0,0c0,0,0,0,0,0c0,0,0.1,0,0.1,0c0,0,0,0,0,0c0,0,0,0,0,0c0,0,0,0,0,0l0.1,0.1l-0.1,0.2c0,0,0,0,0,0c0,0,0,0,0,0
						c0,0,0,0,0,0c0,0,0,0,0,0c0,0,0,0,0,0c0,0,0,0,0,0c0,0,0,0,0,0c0,0,0,0,0,0c0,0,0,0,0,0c0,0,0,0,0,0c0,0,0,0,0,0c0,0,0,0,0,0
						c0,0,0,0,0,0c0,0,0,0,0,0c0,0,0,0,0,0c0,0,0,0,0,0c0,0,0,0,0,0c0,0,0,0,0,0c0,0,0,0,0,0c0,0,0,0,0,0c0,0,0,0,0,0c0,0,0,0,0,0
						c0,0,0,0,0,0c0,0,0,0,0,0c0,0,0,0,0,0c0,0,0,0,0,0c0,0,0,0,0,0c0,0,0,0,0,0c0,0,0,0,0,0c0,0,0,0,0,0c0,0.3,0,0.6,0,0.9
						c0,0,0,0,0,0c0,0,0,0,0,0c0,0,0,0,0,0c0,0,0,0,0,0c0,0,0,0,0,0c0,0,0,0,0,0c0,0,0,0,0,0c0,0,0,0,0,0c0,0,0,0,0,0c0,0,0,0,0,0
						c0,0,0,0,0,0c0,0,0,0,0,0c0,0,0,0,0,0c0,0,0,0,0,0c0,0,0,0,0,0c0,0,0,0,0,0l0.2,0l0.1,0.2l-0.1,0.1c-0.2,0-0.3,0-0.5,0
						c-0.1,0-0.2,0-0.1-0.1c0-0.1,0-0.3,0-0.4c0-0.9,0-1.8,0-2.7c0,0,0,0,0-0.1c0,0,0,0,0,0c0,0,0,0,0,0c0,0,0,0,0,0c0,0,0,0,0,0
						c0,0,0,0,0,0c0,0,0,0,0,0c0,0,0,0,0,0c0,0,0,0,0,0c0,0,0,0,0.1,0c0,0,0,0,0.1,0c0,0,0.1,0,0.1,0c0.1,0,0.2,0,0.3,0l0.2,0.1
						L40.6,4.2z"/>
				</defs>
				<clipPath id="SVGID_26_">
					<use xlink:href="#SVGID_25_"  overflow="visible"/>
				</clipPath>
				<g clip-path="url(#SVGID_26_)">
					<g>
						<g>
							<defs>
								<polyline id="SVGID_27_" points="40.6,4.2 40.3,4.3 40.3,4.3 40.3,4.4 40.3,4.4 40.3,4.5 40.3,4.5 40.3,4.5 40.3,4.6 
									40.3,4.6 40.3,4.8 40.3,4.9 40.3,5 40.3,5.1 40.3,5.2 40.3,5.4 40.3,5.5 40.3,5.6 40.3,5.6 40.3,5.6 40.3,5.6 40.3,5.6 
									40.3,5.6 40.3,5.6 40.3,5.6 40.3,5.6 40.3,5.6 40.3,5.6 40.3,5.6 40.3,5.6 40.3,5.6 40.3,5.6 40.3,5.6 40.3,5.6 40.3,5.6 
									40.3,5.6 40.3,5.6 40.3,5.6 40.3,5.6 40.3,5.6 40.4,5.6 40.4,5.6 40.4,5.6 40.4,5.6 40.4,5.6 40.4,5.6 40.4,5.6 40.4,5.6 
									40.4,5.6 40.4,5.6 40.4,5.6 40.4,5.6 40.4,5.6 40.5,5.6 40.5,5.6 40.5,5.6 40.5,5.6 40.5,5.6 40.5,5.6 40.5,5.6 40.5,5.6 
									40.5,5.6 40.5,5.6 40.5,5.6 40.5,5.6 40.5,5.6 40.5,5.6 40.5,5.6 40.5,5.6 40.5,5.6 40.5,5.6 40.5,5.6 40.5,5.6 40.5,5.6 
									40.6,5.7 40.5,5.9 40.5,5.9 40.5,5.9 40.5,5.9 40.5,5.9 40.5,5.9 40.5,5.9 40.5,5.9 40.5,5.9 40.5,5.9 40.5,5.9 40.5,5.9 
									40.5,5.9 40.5,5.9 40.5,5.9 40.5,5.9 40.5,5.9 40.5,5.9 40.5,5.9 40.5,5.9 40.5,5.9 40.5,5.9 40.5,5.9 40.5,5.9 40.5,5.9 
									40.5,5.9 40.5,5.9 40.5,5.9 40.5,5.9 40.5,5.9 40.4,5.9 40.4,5.9 40.4,5.9 40.4,5.9 40.4,5.9 40.4,5.9 40.4,5.9 40.4,5.9 
									40.4,5.9 40.4,5.9 40.4,5.9 40.4,5.9 40.4,5.9 40.4,5.9 40.4,5.9 40.4,5.9 40.4,5.9 40.4,5.9 40.4,5.9 40.4,5.9 40.4,5.9 
									40.4,5.9 40.4,5.9 40.4,5.9 40.4,5.9 40.4,5.9 40.4,5.9 40.4,5.9 40.4,5.9 40.4,5.9 40.4,5.9 40.4,5.9 40.4,5.9 40.4,5.9 
									40.4,5.9 40.4,5.9 40.4,5.9 40.4,5.9 40.4,5.9 40.4,5.9 40.4,5.9 40.4,5.9 40.4,5.9 40.4,5.9 40.4,5.9 40.4,5.9 40.4,5.9 
									40.4,5.9 40.4,5.9 40.4,5.9 40.4,5.9 40.3,5.9 40.3,5.9 40.3,5.9 40.3,5.9 40.3,5.9 40.3,5.9 40.3,5.9 40.3,5.9 40.3,5.9 
									40.3,5.9 40.3,5.9 40.3,5.9 40.3,5.9 40.3,5.9 40.3,5.9 40.3,5.9 40.3,5.9 40.3,5.9 40.3,5.9 40.3,5.9 40.3,5.9 40.3,5.9 
									40.3,5.9 40.3,5.9 40.3,5.9 40.3,5.9 40.3,5.9 40.3,5.9 40.3,5.9 40.3,5.9 40.3,5.9 40.3,5.9 40.3,5.9 40.3,6 40.3,6 
									40.3,6 40.3,6 40.3,6 40.3,6 40.3,6 40.3,6 40.3,6 40.3,6 40.3,6 40.3,6 40.3,6 40.3,6 40.3,6 40.3,6 40.3,6 40.3,6 40.3,6 
									40.3,6 40.3,6 40.3,6 40.3,6 40.3,6 40.3,6 40.3,6 40.3,6 40.3,6 40.3,6 40.3,6 40.3,6 40.3,6 40.3,6 40.3,6 40.3,6 40.3,6 
									40.3,6 40.3,6 40.3,6 40.3,6 40.3,6 40.3,6 40.3,6 40.3,6 40.3,6 40.3,6 40.3,6 40.3,6 40.3,6 40.3,6 40.3,6 40.3,6 40.3,6 
									40.3,6 40.3,6 40.3,6 40.3,6 40.3,6 40.3,6 40.3,6 40.3,6 40.3,6 40.3,6 40.3,6 40.3,6 40.3,6.1 40.3,6.1 40.3,6.1 
									40.3,6.1 40.3,6.1 40.3,6.1 40.3,6.1 40.3,6.1 40.3,6.1 40.3,6.1 40.3,6.1 40.3,6.1 40.3,6.1 40.3,6.1 40.3,6.1 40.3,6.1 
									40.3,6.1 40.3,6.1 40.3,6.1 40.3,6.1 40.3,6.1 40.3,6.1 40.3,6.1 40.3,6.1 40.3,6.1 40.3,6.1 40.3,6.1 40.3,6.1 40.3,6.1 
									40.3,6.1 40.3,6.1 40.3,6.1 40.3,6.1 40.3,6.1 40.3,6.1 40.3,6.1 40.3,6.1 40.3,6.1 40.3,6.1 40.3,6.1 40.3,6.1 40.3,6.1 
									40.3,6.1 40.3,6.1 40.3,6.1 40.3,6.1 40.3,6.1 40.3,6.1 40.3,6.1 40.3,6.1 40.3,6.1 40.3,6.2 40.3,6.2 40.3,6.2 40.3,6.2 
									40.3,6.2 40.3,6.2 40.3,6.2 40.3,6.2 40.3,6.2 40.3,6.2 40.3,6.2 40.3,6.3 40.3,6.4 40.3,6.5 40.3,6.6 40.3,6.7 40.3,6.8 
									40.3,7 40.3,7.1 40.3,7.1 40.3,7.1 40.3,7.1 40.3,7.1 40.3,7.1 40.3,7.1 40.3,7.1 40.3,7.1 40.3,7.1 40.3,7.1 40.3,7.1 
									40.3,7.1 40.3,7.1 40.3,7.1 40.3,7.1 40.3,7.1 40.3,7.1 40.3,7.1 40.3,7.1 40.3,7.1 40.3,7.1 40.3,7.1 40.3,7.1 40.3,7.1 
									40.3,7.1 40.3,7.1 40.3,7.1 40.3,7.2 40.3,7.2 40.3,7.2 40.3,7.2 40.3,7.2 40.3,7.2 40.3,7.2 40.3,7.2 40.3,7.2 40.3,7.2 
									40.3,7.2 40.3,7.2 40.3,7.2 40.3,7.2 40.3,7.2 40.3,7.2 40.3,7.2 40.3,7.2 40.3,7.2 40.3,7.2 40.3,7.2 40.3,7.2 40.3,7.2 
									40.3,7.2 40.3,7.2 40.3,7.2 40.3,7.2 40.3,7.2 40.3,7.2 40.3,7.2 40.3,7.2 40.3,7.2 40.3,7.2 40.3,7.2 40.3,7.2 40.3,7.2 
									40.3,7.2 40.3,7.2 40.3,7.2 40.3,7.2 40.3,7.2 40.3,7.2 40.3,7.2 40.3,7.2 40.3,7.2 40.3,7.2 40.3,7.2 40.3,7.2 40.3,7.2 
									40.3,7.2 40.3,7.2 40.3,7.2 40.3,7.2 40.3,7.2 40.3,7.2 40.3,7.2 40.3,7.2 40.3,7.2 40.4,7.2 40.4,7.2 40.4,7.2 40.4,7.2 
									40.4,7.2 40.4,7.2 40.4,7.2 40.4,7.2 40.4,7.2 40.4,7.2 40.4,7.2 40.4,7.2 40.4,7.2 40.4,7.2 40.4,7.2 40.4,7.2 40.4,7.2 
									40.4,7.2 40.4,7.2 40.4,7.2 40.4,7.2 40.4,7.2 40.4,7.2 40.4,7.2 40.4,7.2 40.4,7.2 40.4,7.2 40.4,7.2 40.4,7.2 40.4,7.2 
									40.4,7.2 40.4,7.2 40.4,7.2 40.4,7.2 40.4,7.2 40.4,7.2 40.4,7.2 40.4,7.2 40.4,7.2 40.4,7.2 40.4,7.2 40.4,7.2 40.4,7.2 
									40.6,7.3 40.7,7.4 40.6,7.5 40.5,7.5 40.5,7.5 40.4,7.5 40.3,7.5 40.3,7.5 40.2,7.5 40.1,7.5 40.1,7.5 40.1,7.5 40,7.5 
									40,7.5 40,7.5 40,7.5 39.9,7.5 39.9,7.4 39.9,7.4 39.9,7.4 39.9,7.3 39.9,7.3 39.9,7.2 39.9,7.2 39.9,7.1 39.9,7 39.9,7 
									39.9,6.9 39.9,6.8 39.9,6.6 39.9,6.4 39.9,6.2 39.9,6.1 39.9,5.9 39.9,5.7 39.9,5.6 39.9,5.4 39.9,5.2 39.9,5.1 39.9,4.9 
									39.9,4.7 39.9,4.5 39.9,4.4 39.9,4.2 39.9,4.2 39.9,4.2 39.9,4.2 39.9,4.2 39.9,4.2 39.9,4.2 39.9,4.2 39.9,4.1 39.9,4.1 
									39.9,4.1 39.9,4.1 39.9,4.1 39.9,4.1 39.9,4.1 39.9,4.1 39.9,4.1 39.9,4.1 39.9,4.1 39.9,4.1 39.9,4.1 39.9,4.1 39.9,4.1 
									39.9,4.1 40,4.1 40,4.1 40,4 40,4 40,4 40,4 40,4 40,4 40,4 40,4 40,4 40,4 40,4 40,4 40,4 40,4 40,4 40,4 40,4 40,4 40,4 
									40,4 40,4 40,4 40,4 40,4 40,4 40,4 40,4 40,4 40,4 40.1,4 40.1,4 40.1,4 40.1,4 40.1,4 40.1,4 40.1,4 40.1,4 40.1,4 
									40.1,4 40.1,4 40.1,4 40.1,4 40.1,4 40.1,4 40.1,4 40.1,4 40.1,4 40.1,4 40.1,4 40.1,4 40.1,4 40.1,4 40.2,4 40.2,4 40.2,4 
									40.2,4 40.2,4 40.2,4 40.2,4 40.2,4 40.2,4 40.2,4 40.2,4 40.3,4 40.3,4 40.3,4 40.3,4 40.3,4 40.3,4 40.3,4 40.3,4 40.4,4 
									40.4,4 40.4,4 40.4,4 40.5,4 40.5,4 40.5,4 40.6,4 40.7,4.1 40.6,4.2 								"/>
							</defs>
							<clipPath id="SVGID_28_">
								<use xlink:href="#SVGID_27_"  overflow="visible"/>
							</clipPath>
							<g clip-path="url(#SVGID_28_)">
								<image overflow="visible" width="1" height="4" xlink:href="AA63F0CA.png"  transform="matrix(1 0 0 1 39.9321 3.96)">
								</image>
							</g>
						</g>
					</g>
				</g>
			</g>
		</g>
		<g>
			<path fill="#AEAEAE" d="M19.3,4.3c-0.3,0-0.3,0-0.3,0.3c0,0.3,0,0.7,0,1h0.2l0.1,0.1c0,0.1,0,0.2-0.1,0.2C19,5.9,19,5.9,19,6.2
				c0,0.3,0,0.6,0,0.9c0,0,0,0,0,0c0,0,0,0,0,0c0,0,0,0,0,0c0,0,0,0,0,0c0,0,0,0,0,0c0,0,0,0,0,0c0,0,0,0,0,0c0,0,0,0,0,0
				c0,0,0,0,0,0c0,0,0,0,0,0c0,0,0,0,0,0c0,0,0,0,0,0c0,0,0,0,0,0c0,0,0,0,0,0c0,0,0,0,0,0c0,0,0,0,0,0l0.2,0l0.1,0.2l-0.1,0.1
				c-0.2,0-0.3,0-0.5,0c0,0,0,0,0,0c0,0,0,0,0,0c0,0,0,0,0,0c0,0,0,0,0,0c0,0,0,0,0,0c0,0,0,0,0,0c0,0,0,0,0,0c0,0,0,0,0,0
				c0,0,0,0,0,0c0,0,0,0,0,0c0,0,0,0,0,0c0,0,0,0,0,0c0,0,0,0,0,0c0,0,0,0,0,0c0,0,0,0,0,0c0-0.2,0-0.4,0-0.7c0-0.8,0-1.6,0-2.5
				c0-0.2,0-0.2,0.2-0.2c0,0,0.1,0,0.1,0c0,0,0.1,0,0.1,0c0,0,0.1,0,0.1,0c0,0,0.1,0,0.1,0l0.1,0.1L19.3,4.3L19.3,4.3z"/>
			<g enable-background="new    ">
				<defs>
					<path id="SVGID_29_" enable-background="new    " d="M19.3,4.3c-0.3,0-0.3,0-0.3,0.3c0,0.3,0,0.7,0,1h0.2l0.1,0.1
						c0,0.1,0,0.2-0.1,0.2C19,5.9,19,5.9,19,6.2c0,0.3,0,0.6,0,0.9c0,0,0,0,0,0c0,0,0,0,0,0c0,0,0,0,0,0c0,0,0,0,0,0c0,0,0,0,0,0
						c0,0,0,0,0,0c0,0,0,0,0,0c0,0,0,0,0,0c0,0,0,0,0,0c0,0,0,0,0,0c0,0,0,0,0,0c0,0,0,0,0,0c0,0,0,0,0,0c0,0,0,0,0,0c0,0,0,0,0,0
						c0,0,0,0,0,0l0.2,0l0.1,0.2l-0.1,0.1c-0.2,0-0.3,0-0.5,0c0,0,0,0,0,0c0,0,0,0,0,0c0,0,0,0,0,0c0,0,0,0,0,0c0,0,0,0,0,0
						c0,0,0,0,0,0c0,0,0,0,0,0c0,0,0,0,0,0c0,0,0,0,0,0c0,0,0,0,0,0c0,0,0,0,0,0c0,0,0,0,0,0c0,0,0,0,0,0c0,0,0,0,0,0c0,0,0,0,0,0
						c0-0.2,0-0.4,0-0.7c0-0.8,0-1.6,0-2.5c0-0.2,0-0.2,0.2-0.2c0,0,0.1,0,0.1,0c0,0,0.1,0,0.1,0c0,0,0.1,0,0.1,0c0,0,0.1,0,0.1,0
						l0.1,0.1L19.3,4.3L19.3,4.3z"/>
				</defs>
				<clipPath id="SVGID_30_">
					<use xlink:href="#SVGID_29_"  overflow="visible"/>
				</clipPath>
				<g clip-path="url(#SVGID_30_)">
					<g>
						<g>
							<defs>
								<polyline id="SVGID_31_" points="19.3,4.3 19.3,4.3 19.2,4.3 19.1,4.3 19.1,4.3 19,4.3 19,4.4 19,4.4 19,4.5 19,4.6 19,4.7 
									19,4.8 19,5 19,5.1 19,5.2 19,5.4 19,5.5 19,5.6 19.3,5.6 19.4,5.7 19.4,5.7 19.4,5.8 19.4,5.8 19.4,5.8 19.4,5.8 19.3,5.9 
									19.3,5.9 19.3,5.9 19.2,5.9 19.1,5.9 19.1,5.9 19,6 19,6 19,6.1 19,6.1 19,6.2 19,6.3 19,6.4 19,6.5 19,6.6 19,6.7 19,6.8 
									19,7 19,7.1 19,7.1 19,7.1 19,7.1 19,7.1 19,7.1 19,7.1 19,7.1 19,7.1 19,7.1 19,7.1 19,7.1 19,7.1 19,7.1 19,7.1 19,7.1 
									19,7.1 19,7.1 19,7.1 19,7.1 19,7.1 19,7.1 19,7.1 19,7.1 19,7.1 19,7.1 19,7.1 19,7.1 19,7.2 19,7.2 19,7.2 19,7.2 19,7.2 
									19,7.2 19,7.2 19,7.2 19,7.2 19,7.2 19,7.2 19,7.2 19,7.2 19,7.2 19,7.2 19,7.2 19,7.2 19,7.2 19,7.2 19,7.2 19,7.2 19,7.2 
									19,7.2 19,7.2 19,7.2 19,7.2 19,7.2 19,7.2 19,7.2 19,7.2 19,7.2 19,7.2 19,7.2 19.1,7.2 19.1,7.2 19.1,7.2 19.1,7.2 
									19.1,7.2 19.1,7.2 19.1,7.2 19.1,7.2 19.1,7.2 19.1,7.2 19.1,7.2 19.1,7.2 19.1,7.2 19.1,7.2 19.1,7.2 19.1,7.2 19.1,7.2 
									19.1,7.2 19.1,7.2 19.1,7.2 19.1,7.2 19.1,7.2 19.1,7.2 19.1,7.2 19.1,7.2 19.1,7.2 19.1,7.2 19.1,7.2 19.1,7.2 19.1,7.2 
									19.1,7.2 19.1,7.2 19.1,7.2 19.1,7.2 19.1,7.2 19.1,7.2 19.1,7.2 19.1,7.2 19.1,7.2 19.1,7.2 19.1,7.2 19.1,7.2 19.1,7.2 
									19.1,7.2 19.1,7.2 19.1,7.2 19.1,7.2 19.1,7.2 19.1,7.2 19.1,7.2 19.1,7.2 19.2,7.2 19.2,7.2 19.2,7.2 19.2,7.2 19.2,7.2 
									19.2,7.2 19.2,7.2 19.2,7.2 19.2,7.2 19.2,7.2 19.2,7.2 19.2,7.2 19.2,7.2 19.2,7.2 19.2,7.2 19.2,7.2 19.2,7.2 19.3,7.3 
									19.4,7.4 19.3,7.5 19.3,7.5 19.2,7.5 19.1,7.5 19.1,7.5 19,7.5 19,7.5 18.9,7.5 18.8,7.5 18.8,7.5 18.8,7.5 18.8,7.5 
									18.8,7.5 18.8,7.5 18.8,7.5 18.8,7.5 18.8,7.5 18.8,7.5 18.8,7.5 18.8,7.5 18.8,7.5 18.8,7.5 18.8,7.5 18.8,7.5 18.8,7.5 
									18.8,7.5 18.8,7.5 18.8,7.5 18.8,7.5 18.8,7.5 18.8,7.5 18.8,7.5 18.8,7.5 18.8,7.5 18.8,7.5 18.8,7.5 18.8,7.5 18.8,7.5 
									18.8,7.5 18.8,7.5 18.7,7.5 18.7,7.5 18.7,7.5 18.7,7.5 18.7,7.5 18.7,7.5 18.7,7.5 18.7,7.5 18.7,7.5 18.7,7.5 18.7,7.5 
									18.7,7.5 18.7,7.5 18.7,7.5 18.7,7.5 18.7,7.5 18.7,7.5 18.7,7.5 18.7,7.5 18.7,7.5 18.7,7.5 18.7,7.5 18.7,7.5 18.7,7.5 
									18.7,7.5 18.7,7.5 18.7,7.5 18.7,7.5 18.7,7.5 18.7,7.5 18.7,7.5 18.7,7.5 18.7,7.5 18.7,7.5 18.7,7.5 18.7,7.5 18.7,7.5 
									18.7,7.5 18.7,7.5 18.7,7.5 18.7,7.5 18.7,7.5 18.7,7.5 18.7,7.5 18.7,7.5 18.7,7.5 18.7,7.5 18.7,7.5 18.7,7.5 18.7,7.5 
									18.7,7.5 18.7,7.5 18.7,7.5 18.7,7.5 18.7,7.5 18.7,7.4 18.7,7.4 18.7,7.4 18.7,7.4 18.7,7.4 18.7,7.4 18.7,7.4 18.7,7.4 
									18.7,7.4 18.7,7.4 18.7,7.4 18.7,7.4 18.7,7.4 18.7,7.4 18.7,7.4 18.7,7.4 18.7,7.4 18.7,7.4 18.7,7.4 18.7,7.4 18.7,7.4 
									18.7,7.4 18.7,7.4 18.7,7.4 18.7,7.4 18.7,7.4 18.7,7.4 18.7,7.4 18.7,7.4 18.7,7.4 18.7,7.4 18.7,7.4 18.7,7.4 18.7,7.3 
									18.7,7.3 18.7,7.2 18.7,7.1 18.7,7 18.7,6.9 18.7,6.8 18.7,6.8 18.7,6.7 18.7,6.5 18.7,6.4 18.7,6.2 18.7,6.1 18.7,5.9 
									18.7,5.7 18.7,5.6 18.7,5.4 18.7,5.3 18.7,5.1 18.7,5 18.7,4.8 18.7,4.7 18.7,4.5 18.7,4.4 18.7,4.2 18.7,4.1 18.7,4.1 
									18.7,4 18.7,4 18.7,4 18.8,4 18.8,4 18.9,4 18.9,4 18.9,4 18.9,4 19,4 19,4 19,4 19,4 19,4 19,4 19,4 19,4 19.1,4 19.1,4 
									19.1,4 19.1,4 19.1,4 19.1,4 19.1,4 19.1,4 19.2,4 19.2,4 19.2,4 19.2,4 19.2,4 19.2,4 19.2,4 19.2,4 19.3,4 19.3,4 19.3,4 
									19.3,4 19.3,4 19.4,4.1 19.3,4.3 								"/>
							</defs>
							<clipPath id="SVGID_32_">
								<use xlink:href="#SVGID_31_"  overflow="visible"/>
							</clipPath>
							<g clip-path="url(#SVGID_32_)">
								<image overflow="visible" width="1" height="4" xlink:href="AA63F0CB.png"  transform="matrix(1 0 0 1 18.657 3.9718)">
								</image>
							</g>
						</g>
					</g>
				</g>
			</g>
		</g>
		<g>
			<path fill="#AEAEAE" d="M37.5,7.2l0.1,0l0.1,0.2l-0.1,0.1c0,0-0.1,0-0.1,0c0,0,0,0,0,0c0,0,0,0-0.1,0c0,0,0,0,0,0
				c-0.1,0-0.2,0-0.2,0c0,0,0,0,0,0c0,0,0,0,0,0c0,0-0.1,0-0.1,0l0-0.2c0-1.1,0-2.1,0-3.2c0,0,0,0,0,0c0,0,0,0,0,0c0,0,0,0,0,0
				c0,0,0,0,0,0c0,0,0,0,0,0c0,0,0,0,0,0c0,0,0,0,0,0c0,0,0,0,0,0c0,0,0,0,0,0c0,0,0,0,0,0c0,0,0,0,0,0c0,0,0,0,0,0c0,0,0,0,0,0
				c0,0,0,0,0,0c0,0,0,0,0,0c0.1,0,0.3,0,0.5,0l0.1,0.1l-0.1,0.2l0,0l-0.3,0c0,0.1,0,0.2,0,0.3c0,0.3,0,0.6,0,1h0.2l0.2,0.1
				l-0.1,0.2c-0.2,0.1-0.3,0.1-0.3,0.3c0,0.3,0,0.5,0,0.8c0,0,0,0,0,0c0,0,0,0,0,0c0,0,0,0,0,0c0,0,0,0,0,0c0,0,0,0,0,0c0,0,0,0,0,0
				c0,0,0,0,0,0c0,0,0,0,0,0c0,0,0,0,0,0c0,0,0,0,0,0c0,0,0,0,0,0c0,0,0,0,0,0c0,0,0,0,0,0c0,0,0,0,0,0c0,0,0,0,0,0c0,0,0,0,0,0
				c0,0,0,0,0,0c0,0,0,0,0,0c0,0,0,0,0,0c0,0,0,0,0,0c0,0,0,0,0,0C37.4,7.2,37.4,7.2,37.5,7.2C37.4,7.2,37.4,7.2,37.5,7.2
				C37.4,7.2,37.4,7.2,37.5,7.2C37.4,7.2,37.4,7.2,37.5,7.2C37.4,7.2,37.4,7.2,37.5,7.2C37.5,7.2,37.5,7.2,37.5,7.2z"/>
			<g enable-background="new    ">
				<defs>
					<path id="SVGID_33_" enable-background="new    " d="M37.5,7.2l0.1,0l0.1,0.2l-0.1,0.1c0,0-0.1,0-0.1,0c0,0,0,0,0,0
						c0,0,0,0-0.1,0c0,0,0,0,0,0c-0.1,0-0.2,0-0.2,0c0,0,0,0,0,0c0,0,0,0,0,0c0,0-0.1,0-0.1,0l0-0.2c0-1.1,0-2.1,0-3.2c0,0,0,0,0,0
						c0,0,0,0,0,0c0,0,0,0,0,0c0,0,0,0,0,0c0,0,0,0,0,0c0,0,0,0,0,0c0,0,0,0,0,0c0,0,0,0,0,0c0,0,0,0,0,0c0,0,0,0,0,0c0,0,0,0,0,0
						c0,0,0,0,0,0c0,0,0,0,0,0c0,0,0,0,0,0c0,0,0,0,0,0c0.1,0,0.3,0,0.5,0l0.1,0.1l-0.1,0.2l0,0l-0.3,0c0,0.1,0,0.2,0,0.3
						c0,0.3,0,0.6,0,1h0.2l0.2,0.1l-0.1,0.2c-0.2,0.1-0.3,0.1-0.3,0.3c0,0.3,0,0.5,0,0.8c0,0,0,0,0,0c0,0,0,0,0,0c0,0,0,0,0,0
						c0,0,0,0,0,0c0,0,0,0,0,0c0,0,0,0,0,0c0,0,0,0,0,0c0,0,0,0,0,0c0,0,0,0,0,0c0,0,0,0,0,0c0,0,0,0,0,0c0,0,0,0,0,0c0,0,0,0,0,0
						c0,0,0,0,0,0c0,0,0,0,0,0c0,0,0,0,0,0c0,0,0,0,0,0c0,0,0,0,0,0c0,0,0,0,0,0c0,0,0,0,0,0c0,0,0,0,0,0
						C37.4,7.2,37.4,7.2,37.5,7.2C37.4,7.2,37.4,7.2,37.5,7.2C37.4,7.2,37.4,7.2,37.5,7.2C37.4,7.2,37.4,7.2,37.5,7.2
						C37.4,7.2,37.4,7.2,37.5,7.2C37.5,7.2,37.5,7.2,37.5,7.2z"/>
				</defs>
				<clipPath id="SVGID_34_">
					<use xlink:href="#SVGID_33_"  overflow="visible"/>
				</clipPath>
				<g clip-path="url(#SVGID_34_)">
					<g>
						<g>
							<defs>
								<polyline id="SVGID_35_" points="37.6,7.5 37.6,7.5 37.6,7.5 37.5,7.5 37.5,7.5 37.5,7.5 37.5,7.5 37.5,7.5 37.5,7.5 
									37.5,7.5 37.5,7.5 37.5,7.5 37.5,7.5 37.5,7.5 37.5,7.5 37.5,7.5 37.5,7.5 37.5,7.5 37.4,7.5 37.4,7.5 37.4,7.5 37.4,7.5 
									37.4,7.5 37.4,7.5 37.4,7.5 37.4,7.5 37.4,7.5 37.4,7.5 37.4,7.5 37.4,7.5 37.4,7.5 37.4,7.5 37.4,7.5 37.3,7.5 37.3,7.5 
									37.3,7.5 37.3,7.5 37.2,7.5 37.2,7.5 37.2,7.5 37.1,7.5 37.1,7.5 37.1,7.5 37.1,7.5 37.1,7.5 37.1,7.5 37.1,7.5 37.1,7.5 
									37.1,7.5 37.1,7.5 37.1,7.5 37.1,7.5 37.1,7.5 37.1,7.5 37.1,7.5 37.1,7.5 37,7.5 37,7.5 37,7.5 37,7.5 37,7.5 37,7.5 
									37,7.5 37,7.5 36.9,7.5 36.9,7.3 36.9,7.1 36.9,6.9 36.9,6.7 36.9,6.5 36.9,6.3 36.9,6.1 36.9,5.9 36.9,5.7 36.9,5.5 
									36.9,5.3 36.9,5.1 36.9,4.9 36.9,4.7 36.9,4.5 36.9,4.4 36.9,4.2 36.9,4.1 36.9,4.1 36.9,4.1 36.9,4.1 36.9,4.1 36.9,4.1 
									36.9,4.1 36.9,4.1 36.9,4.1 36.9,4.1 36.9,4.1 36.9,4.1 36.9,4.1 36.9,4.1 36.9,4.1 36.9,4.1 36.9,4.1 36.9,4.1 36.9,4.1 
									36.9,4.1 36.9,4.1 36.9,4.1 36.9,4.1 36.9,4.1 36.9,4.1 36.9,4.1 36.9,4.1 36.9,4.1 36.9,4.1 36.9,4.1 36.9,4.1 36.9,4.1 
									36.9,4.1 37,4 37,4 37,4 37,4 37,4 37,4 37,4 37,4 37,4 37,4 37,4 37,4 37,4 37,4 37,4 37,4 37,4 37,4 37,4 37,4 37,4 37,4 
									37,4 37,4 37,4 37,4 37,4 37,4 37,4 37,4 37,4 37,4 37,4 37,4 37,4 37,4 37,4 37,4 37,4 37,4 37,4 37,4 37,4 37,4 37,4 
									37,4 37,4 37,4 37,4 37,4 37,4 37,4 37,4 37,4 37,4 37,4 37,4 37,4 37,4 37,4 37,4 37,4 37,4 37,4 37,4 37,4 37,4 37.1,4 
									37.1,4 37.1,4 37.1,4 37.1,4 37.1,4 37.1,4 37.1,4 37.1,4 37.1,4 37.1,4 37.1,4 37.1,4 37.1,4 37.1,4 37.1,4 37.1,4 37.1,4 
									37.1,4 37.1,4 37.2,4 37.2,4 37.3,4 37.3,4 37.4,4 37.5,4 37.5,4 37.6,4 37.7,4.1 37.6,4.3 37.6,4.3 37.3,4.3 37.3,4.3 
									37.3,4.4 37.3,4.4 37.3,4.5 37.3,4.5 37.3,4.5 37.3,4.6 37.3,4.6 37.3,4.7 37.3,4.9 37.3,5 37.3,5.1 37.3,5.2 37.3,5.4 
									37.3,5.5 37.3,5.6 37.5,5.6 37.7,5.7 37.5,5.9 37.4,5.9 37.4,5.9 37.3,6 37.3,6 37.3,6 37.3,6.1 37.3,6.1 37.3,6.2 
									37.3,6.3 37.3,6.4 37.3,6.5 37.3,6.6 37.3,6.7 37.3,6.8 37.3,6.9 37.3,7 37.3,7 37.3,7 37.3,7 37.3,7 37.3,7 37.3,7 37.3,7 
									37.3,7 37.3,7 37.3,7 37.3,7 37.3,7 37.3,7 37.3,7 37.3,7 37.3,7 37.3,7 37.3,7 37.3,7 37.3,7 37.3,7 37.3,7 37.3,7 37.3,7 
									37.3,7 37.3,7.1 37.3,7.1 37.3,7.1 37.3,7.1 37.3,7.1 37.3,7.1 37.3,7.1 37.3,7.1 37.3,7.1 37.3,7.1 37.3,7.1 37.3,7.1 
									37.3,7.1 37.3,7.1 37.3,7.1 37.3,7.1 37.3,7.1 37.3,7.1 37.3,7.1 37.3,7.1 37.3,7.1 37.3,7.1 37.3,7.1 37.3,7.1 37.3,7.1 
									37.3,7.1 37.3,7.1 37.3,7.1 37.3,7.1 37.3,7.1 37.3,7.1 37.3,7.1 37.3,7.1 37.3,7.1 37.3,7.1 37.3,7.1 37.3,7.1 37.3,7.1 
									37.3,7.1 37.3,7.1 37.3,7.1 37.3,7.1 37.3,7.1 37.3,7.1 37.3,7.1 37.3,7.1 37.3,7.1 37.3,7.1 37.3,7.1 37.3,7.1 37.3,7.1 
									37.3,7.1 37.3,7.1 37.3,7.1 37.3,7.1 37.3,7.1 37.3,7.1 37.3,7.1 37.3,7.1 37.3,7.1 37.3,7.1 37.3,7.1 37.3,7.1 37.3,7.1 
									37.3,7.1 37.3,7.1 37.3,7.1 37.3,7.1 37.3,7.2 37.3,7.2 37.3,7.2 37.3,7.2 37.3,7.2 37.3,7.2 37.3,7.2 37.3,7.2 37.3,7.2 
									37.3,7.2 37.3,7.2 37.3,7.2 37.3,7.2 37.3,7.2 37.3,7.2 37.3,7.2 37.3,7.2 37.3,7.2 37.3,7.2 37.3,7.2 37.3,7.2 37.3,7.2 
									37.3,7.2 37.3,7.2 37.3,7.2 37.3,7.2 37.3,7.2 37.3,7.2 37.3,7.2 37.3,7.2 37.3,7.2 37.3,7.2 37.3,7.2 37.3,7.2 37.3,7.2 
									37.3,7.2 37.3,7.2 37.3,7.2 37.3,7.2 37.3,7.2 37.3,7.2 37.3,7.2 37.3,7.2 37.3,7.2 37.3,7.2 37.3,7.2 37.3,7.2 37.3,7.2 
									37.3,7.2 37.3,7.2 37.3,7.2 37.3,7.2 37.3,7.2 37.3,7.2 37.3,7.2 37.3,7.2 37.3,7.2 37.3,7.2 37.3,7.2 37.3,7.2 37.3,7.2 
									37.3,7.2 37.3,7.2 37.3,7.2 37.3,7.2 37.3,7.2 37.4,7.2 37.4,7.2 37.4,7.2 37.4,7.2 37.4,7.2 37.4,7.2 37.4,7.2 37.4,7.2 
									37.4,7.2 37.4,7.2 37.4,7.2 37.4,7.2 37.4,7.2 37.4,7.2 37.4,7.2 37.4,7.2 37.4,7.2 37.4,7.2 37.4,7.2 37.4,7.2 37.4,7.2 
									37.4,7.2 37.4,7.2 37.4,7.2 37.4,7.2 37.4,7.2 37.4,7.2 37.4,7.2 37.4,7.2 37.4,7.2 37.4,7.2 37.4,7.2 37.4,7.2 37.4,7.2 
									37.4,7.2 37.4,7.2 37.4,7.2 37.4,7.2 37.4,7.2 37.4,7.2 37.4,7.2 37.4,7.2 37.4,7.2 37.4,7.2 37.4,7.2 37.4,7.2 37.4,7.2 
									37.5,7.2 37.5,7.2 37.5,7.2 37.5,7.2 37.5,7.2 37.5,7.2 37.5,7.2 37.5,7.2 37.5,7.2 37.5,7.2 37.6,7.3 37.7,7.4 37.6,7.5 
																	"/>
							</defs>
							<clipPath id="SVGID_36_">
								<use xlink:href="#SVGID_35_"  overflow="visible"/>
							</clipPath>
							<g clip-path="url(#SVGID_36_)">
								<image overflow="visible" width="1" height="4" xlink:href="AA63F0CD.png"  transform="matrix(1 0 0 1 36.936 3.9732)">
								</image>
							</g>
						</g>
					</g>
				</g>
			</g>
		</g>
		<g>
			<path fill="#AEAEAE" d="M34.6,4.3l-0.3,0.1c-0.1,0.1,0,0.2,0,0.3c0,0.3,0,0.5,0,0.8c0,0,0,0,0,0c0,0,0,0,0,0c0,0,0,0,0,0
				c0,0,0,0,0,0c0,0,0,0,0,0c0,0,0,0,0,0c0,0,0,0,0,0c0,0,0,0,0,0c0,0,0,0,0,0c0,0,0,0,0,0c0,0,0,0,0,0c0,0,0,0,0,0c0,0,0,0,0,0
				c0,0,0,0,0,0c0,0,0,0,0,0c0,0,0,0,0,0c0,0,0,0,0,0c0,0,0,0,0,0c0,0,0,0,0,0c0,0,0,0,0,0c0,0,0,0,0,0c0,0,0,0,0,0c0,0,0,0,0,0
				c0,0,0,0,0,0c0,0,0,0,0.1,0c0,0,0,0,0,0c0,0,0,0,0,0c0,0,0,0,0,0c0,0,0,0,0,0c0,0,0,0,0,0c0,0,0,0,0,0c0,0,0,0,0,0c0,0,0,0,0,0
				c0,0,0,0,0,0l-0.2,0.1c0,0,0,0,0,0c0,0,0,0,0,0c0,0,0,0,0,0c0,0,0,0,0,0c0,0,0,0,0,0c0,0,0,0,0,0c0,0,0,0,0,0c0,0,0,0,0,0
				c0,0,0,0,0,0c0,0,0,0,0,0c0,0,0,0,0,0c0,0,0,0,0,0c0,0,0,0,0,0c0,0,0,0,0,0c0,0,0,0,0,0c0,0,0,0,0,0c0,0,0,0,0,0c0,0,0,0,0,0
				c0,0,0,0,0,0c0,0,0,0,0,0c0,0,0,0,0,0c0,0,0,0,0,0c0,0,0,0,0,0c0,0,0,0,0,0c0,0,0,0,0,0c0,0,0,0,0,0c0,0,0,0,0,0
				c0,0.4,0,0.8,0,1.2l-0.1,0.2c0,0,0,0,0,0c0,0,0,0,0,0c0,0,0,0,0,0c0,0,0,0,0,0c0,0,0,0,0,0c0,0,0,0,0,0c0,0,0,0,0,0c0,0,0,0,0,0
				c0,0,0,0,0,0c0,0,0,0,0,0c0,0,0,0,0,0c0,0,0,0,0,0c0,0,0,0,0,0c0,0,0,0,0,0c0,0,0,0,0,0c0,0,0,0,0,0c0-0.5,0-1.1,0-1.6
				c0-0.5,0-1.1,0-1.6c0,0,0,0,0,0c0,0,0,0,0,0c0,0,0,0,0,0c0,0,0,0,0,0c0,0,0,0,0,0c0,0,0,0,0,0c0,0,0,0,0,0c0,0,0,0,0,0
				c0,0,0,0,0,0c0.1,0,0.1,0,0.2,0c0,0,0,0,0.1,0c0,0,0.1,0,0.1,0c0,0,0,0,0.1,0l0.1,0.1L34.6,4.3z"/>
			<g enable-background="new    ">
				<defs>
					<path id="SVGID_37_" enable-background="new    " d="M34.6,4.3l-0.3,0.1c-0.1,0.1,0,0.2,0,0.3c0,0.3,0,0.5,0,0.8c0,0,0,0,0,0
						c0,0,0,0,0,0c0,0,0,0,0,0c0,0,0,0,0,0c0,0,0,0,0,0c0,0,0,0,0,0c0,0,0,0,0,0c0,0,0,0,0,0c0,0,0,0,0,0c0,0,0,0,0,0c0,0,0,0,0,0
						c0,0,0,0,0,0c0,0,0,0,0,0c0,0,0,0,0,0c0,0,0,0,0,0c0,0,0,0,0,0c0,0,0,0,0,0c0,0,0,0,0,0c0,0,0,0,0,0c0,0,0,0,0,0c0,0,0,0,0,0
						c0,0,0,0,0,0c0,0,0,0,0,0c0,0,0,0,0,0c0,0,0,0,0.1,0c0,0,0,0,0,0c0,0,0,0,0,0c0,0,0,0,0,0c0,0,0,0,0,0c0,0,0,0,0,0c0,0,0,0,0,0
						c0,0,0,0,0,0c0,0,0,0,0,0c0,0,0,0,0,0l-0.2,0.1c0,0,0,0,0,0c0,0,0,0,0,0c0,0,0,0,0,0c0,0,0,0,0,0c0,0,0,0,0,0c0,0,0,0,0,0
						c0,0,0,0,0,0c0,0,0,0,0,0c0,0,0,0,0,0c0,0,0,0,0,0c0,0,0,0,0,0c0,0,0,0,0,0c0,0,0,0,0,0c0,0,0,0,0,0c0,0,0,0,0,0c0,0,0,0,0,0
						c0,0,0,0,0,0c0,0,0,0,0,0c0,0,0,0,0,0c0,0,0,0,0,0c0,0,0,0,0,0c0,0,0,0,0,0c0,0,0,0,0,0c0,0,0,0,0,0c0,0,0,0,0,0c0,0,0,0,0,0
						c0,0,0,0,0,0c0,0.4,0,0.8,0,1.2l-0.1,0.2c0,0,0,0,0,0c0,0,0,0,0,0c0,0,0,0,0,0c0,0,0,0,0,0c0,0,0,0,0,0c0,0,0,0,0,0
						c0,0,0,0,0,0c0,0,0,0,0,0c0,0,0,0,0,0c0,0,0,0,0,0c0,0,0,0,0,0c0,0,0,0,0,0c0,0,0,0,0,0c0,0,0,0,0,0c0,0,0,0,0,0c0,0,0,0,0,0
						c0-0.5,0-1.1,0-1.6c0-0.5,0-1.1,0-1.6c0,0,0,0,0,0c0,0,0,0,0,0c0,0,0,0,0,0c0,0,0,0,0,0c0,0,0,0,0,0c0,0,0,0,0,0c0,0,0,0,0,0
						c0,0,0,0,0,0c0,0,0,0,0,0c0.1,0,0.1,0,0.2,0c0,0,0,0,0.1,0c0,0,0.1,0,0.1,0c0,0,0,0,0.1,0l0.1,0.1L34.6,4.3z"/>
				</defs>
				<clipPath id="SVGID_38_">
					<use xlink:href="#SVGID_37_"  overflow="visible"/>
				</clipPath>
				<g clip-path="url(#SVGID_38_)">
					<g>
						<g>
							<defs>
								<polyline id="SVGID_39_" points="34.6,4.3 34.3,4.3 34.3,4.4 34.3,4.4 34.3,4.4 34.3,4.5 34.3,4.5 34.3,4.6 34.3,4.6 
									34.3,4.7 34.3,4.8 34.3,4.9 34.3,4.9 34.3,5 34.3,5.1 34.3,5.2 34.3,5.3 34.3,5.4 34.3,5.4 34.3,5.4 34.3,5.4 34.3,5.4 
									34.3,5.4 34.3,5.4 34.3,5.4 34.3,5.5 34.3,5.5 34.3,5.5 34.3,5.5 34.3,5.5 34.3,5.5 34.3,5.5 34.3,5.5 34.3,5.5 34.3,5.5 
									34.3,5.5 34.3,5.5 34.3,5.5 34.3,5.5 34.3,5.5 34.3,5.5 34.3,5.5 34.3,5.5 34.3,5.5 34.3,5.5 34.3,5.5 34.3,5.5 34.3,5.5 
									34.3,5.5 34.3,5.5 34.3,5.5 34.3,5.5 34.3,5.5 34.3,5.5 34.3,5.5 34.3,5.5 34.3,5.5 34.3,5.5 34.3,5.5 34.3,5.5 34.3,5.5 
									34.3,5.5 34.3,5.5 34.3,5.5 34.3,5.5 34.3,5.5 34.3,5.5 34.3,5.5 34.3,5.5 34.3,5.5 34.3,5.5 34.3,5.5 34.3,5.5 34.3,5.5 
									34.3,5.5 34.3,5.5 34.3,5.5 34.3,5.5 34.3,5.5 34.3,5.5 34.3,5.5 34.3,5.5 34.3,5.5 34.3,5.5 34.3,5.5 34.3,5.5 34.3,5.5 
									34.3,5.5 34.3,5.5 34.3,5.5 34.3,5.5 34.3,5.5 34.3,5.5 34.3,5.5 34.3,5.6 34.3,5.6 34.3,5.6 34.3,5.6 34.3,5.6 34.3,5.6 
									34.3,5.6 34.3,5.6 34.3,5.6 34.3,5.6 34.3,5.6 34.3,5.6 34.3,5.6 34.3,5.6 34.3,5.6 34.3,5.6 34.3,5.6 34.3,5.6 34.3,5.6 
									34.3,5.6 34.3,5.6 34.3,5.6 34.3,5.6 34.3,5.6 34.3,5.6 34.3,5.6 34.3,5.6 34.3,5.6 34.3,5.6 34.3,5.6 34.3,5.6 34.3,5.6 
									34.3,5.6 34.3,5.6 34.3,5.6 34.3,5.6 34.4,5.6 34.4,5.6 34.4,5.6 34.4,5.6 34.4,5.6 34.4,5.6 34.4,5.6 34.4,5.6 34.4,5.6 
									34.4,5.6 34.4,5.6 34.4,5.6 34.4,5.6 34.4,5.6 34.4,5.6 34.4,5.6 34.4,5.6 34.4,5.6 34.4,5.6 34.4,5.6 34.4,5.6 34.4,5.6 
									34.4,5.6 34.4,5.6 34.4,5.6 34.4,5.6 34.4,5.6 34.4,5.6 34.4,5.6 34.4,5.6 34.4,5.6 34.4,5.6 34.4,5.6 34.4,5.6 34.4,5.6 
									34.4,5.6 34.4,5.6 34.4,5.6 34.4,5.6 34.4,5.6 34.4,5.6 34.4,5.6 34.4,5.6 34.4,5.6 34.4,5.6 34.4,5.6 34.4,5.6 34.4,5.6 
									34.4,5.6 34.4,5.6 34.4,5.6 34.4,5.6 34.4,5.6 34.4,5.6 34.4,5.6 34.4,5.6 34.4,5.6 34.4,5.6 34.4,5.6 34.4,5.6 34.4,5.6 
									34.4,5.6 34.4,5.6 34.4,5.6 34.4,5.6 34.4,5.6 34.4,5.6 34.4,5.6 34.4,5.6 34.4,5.6 34.4,5.6 34.5,5.6 34.5,5.6 34.5,5.6 
									34.5,5.6 34.5,5.6 34.5,5.6 34.5,5.6 34.5,5.6 34.5,5.6 34.5,5.6 34.5,5.6 34.5,5.6 34.5,5.6 34.5,5.6 34.5,5.6 34.5,5.6 
									34.5,5.6 34.5,5.6 34.5,5.6 34.5,5.6 34.5,5.6 34.5,5.6 34.5,5.6 34.5,5.6 34.5,5.6 34.5,5.6 34.5,5.6 34.6,5.6 34.6,5.6 
									34.6,5.6 34.6,5.6 34.6,5.6 34.6,5.6 34.6,5.6 34.6,5.6 34.6,5.6 34.6,5.6 34.6,5.6 34.6,5.6 34.6,5.6 34.6,5.6 34.6,5.6 
									34.6,5.6 34.6,5.6 34.6,5.6 34.6,5.6 34.6,5.6 34.6,5.7 34.6,5.7 34.6,5.7 34.7,5.7 34.7,5.7 34.7,5.7 34.7,5.7 34.7,5.7 
									34.7,5.7 34.7,5.7 34.7,5.7 34.7,5.7 34.7,5.7 34.7,5.7 34.7,5.7 34.7,5.7 34.7,5.7 34.7,5.7 34.7,5.7 34.7,5.7 34.7,5.7 
									34.7,5.7 34.7,5.7 34.7,5.7 34.7,5.7 34.7,5.7 34.7,5.7 34.7,5.7 34.7,5.8 34.7,5.8 34.7,5.8 34.7,5.8 34.7,5.8 34.7,5.8 
									34.7,5.8 34.7,5.8 34.7,5.8 34.7,5.8 34.7,5.8 34.7,5.8 34.7,5.8 34.7,5.8 34.5,5.9 34.5,5.9 34.5,5.9 34.5,5.9 34.5,5.9 
									34.5,5.9 34.5,5.9 34.5,5.9 34.5,5.9 34.5,5.9 34.5,5.9 34.5,5.9 34.5,5.9 34.5,5.9 34.5,5.9 34.5,5.9 34.5,5.9 34.5,5.9 
									34.5,5.9 34.5,5.9 34.5,5.9 34.5,5.9 34.4,5.9 34.4,5.9 34.4,5.9 34.4,5.9 34.4,5.9 34.4,5.9 34.4,5.9 34.4,5.9 34.4,5.9 
									34.4,5.9 34.4,5.9 34.4,5.9 34.4,5.9 34.4,5.9 34.4,5.9 34.4,5.9 34.4,5.9 34.4,5.9 34.4,5.9 34.4,5.9 34.4,5.9 34.4,5.9 
									34.4,5.9 34.4,5.9 34.4,5.9 34.4,5.9 34.4,5.9 34.4,5.9 34.4,5.9 34.4,5.9 34.4,5.9 34.4,5.9 34.4,5.9 34.4,5.9 34.4,5.9 
									34.4,5.9 34.4,5.9 34.4,5.9 34.4,5.9 34.4,5.9 34.4,5.9 34.4,5.9 34.4,5.9 34.4,5.9 34.4,5.9 34.4,5.9 34.4,5.9 34.4,5.9 
									34.4,5.9 34.4,5.9 34.4,5.9 34.4,5.9 34.3,5.9 34.3,5.9 34.3,5.9 34.3,5.9 34.3,5.9 34.3,5.9 34.3,5.9 34.3,5.9 34.3,5.9 
									34.3,5.9 34.3,5.9 34.3,5.9 34.3,5.9 34.3,5.9 34.3,5.9 34.3,5.9 34.3,5.9 34.3,5.9 34.3,5.9 34.3,5.9 34.3,6 34.3,6 
									34.3,6 34.3,6 34.3,6 34.3,6 34.3,6 34.3,6 34.3,6 34.3,6 34.3,6 34.3,6 34.3,6 34.3,6 34.3,6 34.3,6 34.3,6 34.3,6 34.3,6 
									34.3,6 34.3,6 34.3,6 34.3,6 34.3,6 34.3,6 34.3,6 34.3,6 34.3,6 34.3,6 34.3,6 34.3,6 34.3,6 34.3,6 34.3,6 34.3,6 34.3,6 
									34.3,6 34.3,6 34.3,6 34.3,6 34.3,6 34.3,6 34.3,6 34.3,6 34.3,6 34.3,6 34.3,6 34.3,6 34.3,6 34.3,6 34.3,6 34.3,6 34.3,6 
									34.3,6 34.3,6 34.3,6 34.3,6 34.3,6 34.3,6 34.3,6 34.3,6 34.3,6 34.3,6 34.3,6 34.3,6 34.3,6 34.3,6 34.3,6 34.3,6 34.3,6 
									34.3,6 34.3,6 34.3,6 34.3,6 34.3,6 34.3,6 34.3,6 34.3,6 34.3,6 34.3,6.1 34.3,6.1 34.3,6.1 34.3,6.1 34.3,6.1 34.3,6.1 
									34.3,6.1 34.3,6.1 34.3,6.1 34.3,6.1 34.3,6.1 34.3,6.1 34.3,6.1 34.3,6.1 34.3,6.1 34.3,6.1 34.3,6.1 34.3,6.1 34.3,6.1 
									34.3,6.1 34.3,6.1 34.3,6.1 34.3,6.1 34.3,6.1 34.3,6.1 34.3,6.1 34.3,6.1 34.3,6.1 34.3,6.1 34.3,6.1 34.3,6.1 34.3,6.1 
									34.3,6.1 34.3,6.1 34.3,6.1 34.3,6.1 34.3,6.1 34.3,6.1 34.3,6.1 34.3,6.1 34.3,6.1 34.3,6.1 34.3,6.1 34.3,6.2 34.3,6.3 
									34.3,6.4 34.3,6.6 34.3,6.7 34.3,6.9 34.3,7 34.3,7.2 34.3,7.3 34.2,7.5 34.2,7.5 34.2,7.5 34.2,7.5 34.2,7.5 34.2,7.5 
									34.2,7.5 34.2,7.5 34.2,7.5 34.2,7.5 34.2,7.5 34.2,7.5 34.2,7.5 34.1,7.5 34.1,7.5 34.1,7.5 34.1,7.5 34.1,7.5 34.1,7.5 
									34.1,7.5 34.1,7.5 34.1,7.5 34.1,7.5 34.1,7.5 34.1,7.5 34.1,7.5 34.1,7.5 34.1,7.5 34.1,7.5 34.1,7.5 34.1,7.5 34.1,7.5 
									34.1,7.5 34.1,7.5 34.1,7.5 34.1,7.5 34.1,7.5 34.1,7.5 34.1,7.5 34.1,7.5 34.1,7.5 34.1,7.5 34.1,7.5 34.1,7.5 34.1,7.5 
									34.1,7.5 34.1,7.6 34.1,7.6 34.1,7.6 34.1,7.6 34.1,7.6 34.1,7.6 34.1,7.6 34.1,7.6 34.1,7.6 34.1,7.6 34.1,7.6 34.1,7.6 
									34.1,7.6 34.1,7.6 34.1,7.6 34.1,7.5 34.1,7.5 34.1,7.5 34.1,7.5 34,7.5 34,7.5 34,7.5 34,7.5 34,7.5 34,7.5 34,7.5 34,7.5 
									34,7.5 34,7.5 34,7.5 34,7.5 34,7.5 34,7.5 34,7.5 34,7.5 34,7.5 34,7.5 34,7.5 34,7.5 34,7.5 34,7.5 34,7.5 34,7.5 34,7.5 
									34,7.5 34,7.5 34,7.5 34,7.5 34,7.5 34,7.5 34,7.5 34,7.5 34,7.5 34,7.5 34,7.5 34,7.4 34,7.4 34,7.4 34,7.4 34,7.4 34,7.4 
									34,7.4 34,7.4 34,7.4 34,7.4 34,7.4 34,7.4 34,7.4 34,7.4 34,7.4 34,7.4 34,7.4 34,7.4 34,7.4 33.9,7.4 33.9,7.4 33.9,7.4 
									33.9,7.4 33.9,7.4 33.9,7.4 33.9,7.4 33.9,7.4 33.9,7.3 33.9,7.2 33.9,7 33.9,6.8 33.9,6.6 33.9,6.4 33.9,6.2 33.9,6 
									33.9,5.8 33.9,5.6 33.9,5.4 33.9,5.2 33.9,5 33.9,4.8 33.9,4.6 33.9,4.4 33.9,4.2 33.9,4.2 33.9,4.2 33.9,4.2 33.9,4.1 
									33.9,4.1 33.9,4.1 33.9,4.1 33.9,4.1 33.9,4.1 33.9,4.1 33.9,4.1 33.9,4.1 33.9,4.1 33.9,4.1 33.9,4.1 33.9,4.1 33.9,4.1 
									33.9,4.1 33.9,4.1 34,4.1 34,4.1 34,4.1 34,4.1 34,4.1 34,4 34,4 34,4 34,4 34,4 34,4 34,4 34,4 34,4 34,4 34,4 34,4 34,4 
									34,4 34,4 34,4 34,4 34,4 34,4 34,4 34,4 34,4 34,4 34,4 34,4 34,4 34,4 34,4 34,4 34,4 34.1,4 34.1,4 34.1,4 34.1,4 
									34.1,4 34.1,4 34.1,4 34.1,4 34.1,4 34.1,4 34.1,4 34.1,4 34.1,4 34.1,4 34.1,4 34.1,4 34.1,4 34.1,4 34.1,4 34.2,4 34.2,4 
									34.2,4 34.2,4 34.3,4 34.3,4 34.3,4 34.3,4 34.3,4 34.3,4 34.3,4 34.4,4 34.4,4 34.4,4 34.4,4 34.4,4 34.4,4 34.4,4 34.4,4 
									34.5,4 34.5,4 34.5,4 34.5,4 34.5,4 34.5,4 34.5,4 34.5,4 34.6,4 34.6,4 34.6,4 34.6,4 34.7,4.1 34.6,4.3 								"/>
							</defs>
							<clipPath id="SVGID_40_">
								<use xlink:href="#SVGID_39_"  overflow="visible"/>
							</clipPath>
							<g clip-path="url(#SVGID_40_)">
								<image overflow="visible" width="1" height="4" xlink:href="A071CB56.png"  transform="matrix(1 0 0 1 33.939 3.9732)">
								</image>
							</g>
						</g>
					</g>
				</g>
			</g>
		</g>
		<g>
			<path fill="#AEAEAE" d="M43.3,4c0.1,0,0.2,0,0.3,0l0.2,0.1l-0.1,0.2c-0.1,0-0.2,0.1-0.2,0.2c0,0.9,0,1.9,0,2.8l-0.1,0.2
				c0,0,0,0,0,0c0,0,0,0,0,0c0,0,0,0,0,0c0,0,0,0,0,0c0,0,0,0,0,0c0,0,0,0,0,0c0,0,0,0,0,0c0,0,0,0,0,0c0,0,0,0,0,0c0,0,0,0,0,0
				c0,0,0,0,0,0c0,0,0,0,0,0c0,0,0,0,0,0c0-0.5,0-1,0-1.4c0-0.5,0-0.9,0-1.4c0-0.1,0-0.2-0.2-0.2l-0.1-0.2L43,4
				C43.1,4,43.2,4,43.3,4z"/>
			<g enable-background="new    ">
				<defs>
					<path id="SVGID_41_" enable-background="new    " d="M43.3,4c0.1,0,0.2,0,0.3,0l0.2,0.1l-0.1,0.2c-0.1,0-0.2,0.1-0.2,0.2
						c0,0.9,0,1.9,0,2.8l-0.1,0.2c0,0,0,0,0,0c0,0,0,0,0,0c0,0,0,0,0,0c0,0,0,0,0,0c0,0,0,0,0,0c0,0,0,0,0,0c0,0,0,0,0,0
						c0,0,0,0,0,0c0,0,0,0,0,0c0,0,0,0,0,0c0,0,0,0,0,0c0,0,0,0,0,0c0,0,0,0,0,0c0-0.5,0-1,0-1.4c0-0.5,0-0.9,0-1.4
						c0-0.1,0-0.2-0.2-0.2l-0.1-0.2L43,4C43.1,4,43.2,4,43.3,4z"/>
				</defs>
				<clipPath id="SVGID_42_">
					<use xlink:href="#SVGID_41_"  overflow="visible"/>
				</clipPath>
				<g clip-path="url(#SVGID_42_)">
					<g>
						<g>
							<defs>
								<polyline id="SVGID_43_" points="43.6,4.2 43.6,4.3 43.5,4.3 43.5,4.3 43.5,4.3 43.5,4.3 43.5,4.4 43.5,4.4 43.5,4.5 
									43.5,4.6 43.5,4.8 43.5,5 43.5,5.2 43.5,5.3 43.5,5.5 43.5,5.7 43.5,5.9 43.5,6 43.5,6.2 43.5,6.4 43.5,6.6 43.5,6.8 
									43.5,6.9 43.5,7.1 43.5,7.3 43.4,7.5 43.4,7.5 43.4,7.5 43.4,7.5 43.4,7.5 43.4,7.5 43.4,7.5 43.4,7.5 43.4,7.5 43.4,7.5 
									43.4,7.5 43.4,7.5 43.3,7.5 43.3,7.5 43.3,7.5 43.3,7.5 43.3,7.5 43.3,7.5 43.3,7.5 43.3,7.5 43.3,7.5 43.3,7.5 43.3,7.5 
									43.3,7.5 43.3,7.5 43.3,7.5 43.3,7.5 43.3,7.5 43.3,7.5 43.3,7.5 43.3,7.5 43.3,7.5 43.3,7.5 43.3,7.5 43.3,7.5 43.3,7.5 
									43.3,7.5 43.3,7.5 43.3,7.5 43.3,7.5 43.3,7.5 43.3,7.5 43.3,7.5 43.3,7.5 43.2,7.5 43.2,7.5 43.2,7.5 43.2,7.5 43.2,7.5 
									43.2,7.5 43.2,7.5 43.2,7.5 43.2,7.5 43.2,7.5 43.2,7.5 43.2,7.5 43.2,7.5 43.2,7.5 43.2,7.5 43.2,7.5 43.2,7.5 43.2,7.5 
									43.2,7.5 43.2,7.5 43.2,7.5 43.2,7.5 43.2,7.5 43.2,7.5 43.2,7.5 43.2,7.5 43.2,7.5 43.2,7.5 43.2,7.5 43.2,7.5 43.2,7.4 
									43.2,7.4 43.2,7.4 43.2,7.4 43.2,7.4 43.2,7.4 43.2,7.4 43.2,7.4 43.2,7.4 43.2,7.4 43.2,7.4 43.2,7.4 43.2,7.4 43.2,7.4 
									43.2,7.4 43.2,7.4 43.2,7.4 43.2,7.4 43.2,7.4 43.2,7.4 43.2,7.4 43.2,7.4 43.2,7.4 43.2,7.4 43.2,7.4 43.2,7.4 43.2,7.4 
									43.2,7.3 43.2,7.3 43.2,7.3 43.2,7.3 43.2,7.2 43.2,7 43.2,6.8 43.2,6.6 43.2,6.4 43.2,6.3 43.2,6.1 43.2,5.9 43.2,5.7 
									43.2,5.5 43.2,5.4 43.2,5.2 43.2,5 43.2,4.8 43.2,4.7 43.2,4.5 43.2,4.4 43.1,4.4 43.1,4.4 43.1,4.3 43.1,4.3 43.1,4.3 
									43,4.3 43,4.3 42.8,4.1 43,4 43,4 43.1,4 43.1,4 43.2,4 43.2,4 43.2,4 43.3,4 43.3,4 43.3,4 43.4,4 43.4,4 43.5,4 43.5,4 
									43.5,4 43.6,4 43.6,4 43.8,4.1 43.6,4.2 								"/>
							</defs>
							<clipPath id="SVGID_44_">
								<use xlink:href="#SVGID_43_"  overflow="visible"/>
							</clipPath>
							<g clip-path="url(#SVGID_44_)">
								<image overflow="visible" width="1" height="4" xlink:href="A071CB51.png"  transform="matrix(1 0 0 1 42.84 3.9673)">
								</image>
							</g>
						</g>
					</g>
				</g>
			</g>
		</g>
		<g>
			<path fill="#AEAEAE" d="M6.6,5.7c0,0.5,0,1.1,0,1.6c0,0.1,0,0.2-0.1,0.2c0,0,0,0,0,0c0,0,0,0,0,0c0,0,0,0,0,0c0,0,0,0,0,0
				c0,0,0,0,0,0c0,0,0,0,0,0c0,0,0,0,0,0c0,0,0,0,0,0c0,0,0,0,0,0c0,0,0,0,0,0c0,0,0,0,0,0c0-0.4,0-0.7,0-1.1c0-0.7,0-1.4,0-2.1
				c0-0.1,0-0.2,0.1-0.2c0,0,0,0,0,0c0,0,0,0,0,0c0,0,0,0,0,0c0,0,0,0,0,0c0,0,0,0,0,0c0,0,0,0,0,0c0,0,0,0,0,0c0,0,0,0,0,0
				c0,0,0,0,0,0c0,0,0,0,0,0c0,0,0,0,0,0C6.6,4.7,6.6,5.2,6.6,5.7z"/>
			<g enable-background="new    ">
				<defs>
					<path id="SVGID_45_" enable-background="new    " d="M6.6,5.7c0,0.5,0,1.1,0,1.6c0,0.1,0,0.2-0.1,0.2c0,0,0,0,0,0c0,0,0,0,0,0
						c0,0,0,0,0,0c0,0,0,0,0,0c0,0,0,0,0,0c0,0,0,0,0,0c0,0,0,0,0,0c0,0,0,0,0,0c0,0,0,0,0,0c0,0,0,0,0,0c0,0,0,0,0,0
						c0-0.4,0-0.7,0-1.1c0-0.7,0-1.4,0-2.1c0-0.1,0-0.2,0.1-0.2c0,0,0,0,0,0c0,0,0,0,0,0c0,0,0,0,0,0c0,0,0,0,0,0c0,0,0,0,0,0
						c0,0,0,0,0,0c0,0,0,0,0,0c0,0,0,0,0,0c0,0,0,0,0,0c0,0,0,0,0,0c0,0,0,0,0,0C6.6,4.7,6.6,5.2,6.6,5.7z"/>
				</defs>
				<clipPath id="SVGID_46_">
					<use xlink:href="#SVGID_45_"  overflow="visible"/>
				</clipPath>
				<g clip-path="url(#SVGID_46_)">
					<g>
						<g>
							<defs>
								<polyline id="SVGID_47_" points="6.6,7.4 6.6,7.4 6.6,7.5 6.6,7.5 6.5,7.5 6.5,7.5 6.5,7.5 6.4,7.5 6.4,7.5 6.4,7.5 
									6.4,7.5 6.4,7.5 6.4,7.5 6.4,7.5 6.4,7.5 6.4,7.5 6.4,7.5 6.4,7.5 6.4,7.5 6.4,7.5 6.4,7.5 6.4,7.5 6.4,7.5 6.4,7.5 
									6.4,7.5 6.4,7.5 6.4,7.5 6.4,7.5 6.4,7.5 6.4,7.5 6.4,7.5 6.4,7.5 6.4,7.5 6.4,7.5 6.4,7.5 6.4,7.5 6.4,7.5 6.4,7.5 
									6.4,7.5 6.4,7.5 6.3,7.5 6.3,7.5 6.3,7.5 6.3,7.5 6.3,7.5 6.3,7.5 6.3,7.5 6.3,7.5 6.3,7.5 6.3,7.5 6.3,7.5 6.3,7.5 
									6.3,7.5 6.3,7.5 6.3,7.5 6.3,7.5 6.3,7.5 6.3,7.5 6.3,7.5 6.3,7.5 6.3,7.5 6.3,7.5 6.3,7.5 6.3,7.5 6.3,7.5 6.3,7.5 
									6.3,7.5 6.3,7.5 6.3,7.5 6.3,7.5 6.3,7.5 6.3,7.5 6.3,7.5 6.3,7.5 6.3,7.5 6.3,7.4 6.3,7.4 6.2,7.4 6.2,7.4 6.2,7.4 
									6.2,7.4 6.2,7.4 6.2,7.4 6.2,7.4 6.2,7.4 6.2,7.4 6.2,7.4 6.2,7.4 6.2,7.4 6.2,7.4 6.2,7.4 6.2,7.4 6.2,7.4 6.2,7.4 
									6.2,7.3 6.2,7.2 6.2,7.1 6.2,6.9 6.2,6.8 6.2,6.7 6.2,6.5 6.2,6.4 6.2,6.3 6.2,6.2 6.2,6 6.2,5.9 6.2,5.8 6.2,5.6 6.2,5.5 
									6.2,5.4 6.2,5.2 6.2,5.1 6.2,5 6.2,4.8 6.2,4.7 6.2,4.6 6.2,4.5 6.2,4.3 6.2,4.2 6.2,4.2 6.2,4.1 6.2,4.1 6.2,4.1 6.3,4 
									6.3,4 6.3,4 6.4,4 6.4,4 6.4,4 6.4,4 6.4,4 6.4,4 6.4,4 6.4,4 6.4,4 6.4,4 6.4,4 6.4,4 6.4,4 6.4,4 6.4,4 6.4,4 6.4,4 
									6.4,4 6.4,4 6.5,4 6.5,4 6.5,4 6.5,4 6.5,4 6.5,4 6.5,4 6.5,4 6.5,4 6.5,4 6.5,4 6.5,4 6.5,4 6.5,4 6.5,4 6.5,4 6.5,4 
									6.5,4 6.5,4 6.5,4 6.5,4 6.5,4 6.5,4 6.5,4 6.5,4 6.5,4 6.5,4 6.5,4 6.5,4 6.5,4 6.5,4 6.5,4 6.5,4 6.5,4 6.5,4 6.5,4 
									6.6,4 6.6,4 6.6,4 6.6,4 6.6,4.1 6.6,4.1 6.6,4.1 6.6,4.1 6.6,4.1 6.6,4.1 6.6,4.1 6.6,4.1 6.6,4.1 6.6,4.1 6.6,4.1 
									6.6,4.1 6.6,4.1 6.6,4.1 6.6,4.1 6.6,4.1 6.6,4.1 6.6,4.1 6.6,4.1 6.6,4.1 6.6,4.1 6.6,4.1 6.6,4.1 6.6,4.1 6.6,4.1 
									6.6,4.1 6.6,4.1 6.6,4.1 6.6,4.1 6.6,4.2 6.6,4.4 6.6,4.5 6.6,4.7 6.6,4.9 6.6,5.1 6.6,5.3 6.6,5.5 6.6,5.7 6.6,5.9 
									6.6,6.1 6.6,6.3 6.6,6.5 6.6,6.7 6.6,6.9 6.6,7.1 6.6,7.3 6.6,7.4 6.6,7.4 								"/>
							</defs>
							<clipPath id="SVGID_48_">
								<use xlink:href="#SVGID_47_"  overflow="visible"/>
							</clipPath>
							<g clip-path="url(#SVGID_48_)">
								<image overflow="visible" width="1" height="4" xlink:href="A071CB52.png"  transform="matrix(1 0 0 1 6.2368 3.9716)">
								</image>
							</g>
						</g>
					</g>
				</g>
			</g>
		</g>
	</g>
</g>
</svg>
