<?xml version="1.0" encoding="utf-8"?>
<!-- Generator: Adobe Illustrator 18.0.0, SVG Export Plug-In . SVG Version: 6.00 Build 0)  -->
<!DOCTYPE svg PUBLIC "-//W3C//DTD SVG 1.1//EN" "http://www.w3.org/Graphics/SVG/1.1/DTD/svg11.dtd">
<svg version="1.1" id="Layer_1" xmlns="http://www.w3.org/2000/svg" xmlns:xlink="http://www.w3.org/1999/xlink" x="0px" y="0px"
	 viewBox="202.5 0 875 1280" enable-background="new 202.5 0 875 1280" xml:space="preserve">
<g>
	<rect x="202.5" fill="#010101" width="875" height="1280"/>
	<linearGradient id="SVGID_1_" gradientUnits="userSpaceOnUse" x1="1034.8771" y1="64.6569" x2="227.7963" y2="1240.7745">
		<stop  offset="0" style="stop-color:#0D0D0D"/>
		<stop  offset="0.5" style="stop-color:#0E0E0E"/>
		<stop  offset="1" style="stop-color:#050505"/>
	</linearGradient>
	<path fill="url(#SVGID_1_)" d="M202.5,817.6v8.9l0.9,0.9l-0.9,0.9v8.9l9.8-9.8L202.5,817.6z M202.5,255.5v8.9l0.9,0.9l-0.9,0.9v8.9
		l9.8-9.8L202.5,255.5z M202.5,1192.5v8.9l0.9,0.9l-0.9,0.8v8.9l9.8-9.8L202.5,1192.5z M202.5,1005v8.9l0.9,0.9l-0.9,0.9v8.9
		l9.8-9.8L202.5,1005z M202.5,630.3v8.9l0.9,0.9l-0.9,0.9v8.9l9.8-9.8L202.5,630.3z M202.5,442.9v8.9l0.9,0.9l-0.9,0.9v8.9l9.8-9.8
		L202.5,442.9z M202.5,68.1V77l0.9,0.9l-0.9,0.9v8.8l9.8-9.8L202.5,68.1z M202.5,1174.8v7l20.4,20.4l-20.4,20.4v7.1l27.4-27.4
		L202.5,1174.8z M202.5,987.4v7.1l20.4,20.4l-20.4,20.3v7l27.4-27.4L202.5,987.4z M202.5,800v7l20.4,20.4l-20.4,20.4v7.1l27.4-27.4
		L202.5,800z M202.5,612.6v7.1l20.4,20.3l-20.4,20.4v7l27.4-27.4L202.5,612.6z M202.5,425.3v7l20.4,20.4l-20.4,20.3v7.1l27.4-27.4
		L202.5,425.3z M202.5,237.9v7.1l20.4,20.4l-20.4,20.1v7l27.4-27.4L202.5,237.9z M202.5,50.5v7l20.4,20.4l-20.4,20.3v7.1l27.4-27.4
		L202.5,50.5z M202.5,780.6v7.1l39.8,39.8l-39.8,39.6v7.1l46.9-46.9L202.5,780.6z M202.5,218.4v7.1l39.8,39.8L202.5,305v7.1
		l46.9-46.9L202.5,218.4z M202.5,1155.4v7.1l39.8,39.8l-39.8,39.6v7.1l46.9-46.9L202.5,1155.4z M202.5,968v7.1l39.8,39.7l-39.8,39.6
		v7.1l46.9-46.9L202.5,968z M202.5,593.1v7.1l39.8,39.8l-39.8,39.8v7.1l46.9-46.9L202.5,593.1z M202.5,405.8v7l39.8,39.8l-39.8,39.9
		v7.1l46.9-46.9L202.5,405.8z M202.5,31v7.1l39.8,39.8l-39.8,39.8v7.1l46.9-46.9L202.5,31z M265.3,1272.9l-7.1,7.1h7.1l0,0l0,0h7.1
		L265.3,1272.9z M265.3,0L265.3,0L265.3,0H258l7.1,7.1l7.3-7.1H265.3z M265.3,1255.1l-24.9,24.9h8.9l16-16l16,16h8.8L265.3,1255.1z
		 M281.3,0l-16,16l-16-16h-8.9l24.8,24.8L290,0H281.3z M265.3,1237.5l-42.5,42.5h7.1l35.4-35.4l35.4,35.4h7L265.3,1237.5z M300.6,0
		l-35.4,35.4L229.8,0h-7.1l42.5,42.5L307.6,0H300.6z M265.3,1218.1l-62,61.9h7.1l54.9-54.9l54.9,54.9h7.1L265.3,1218.1z M320.1,0
		l-54.9,54.9L210.4,0h-7.1l62,61.9L327.1,0H320.1z M640,1272.9l-7.1,7.1h7.1l0,0l0,0h7.1L640,1272.9z M640,0L640,0L640,0h-7.3
		l7.1,7.1L647,0H640z M640,1255.1l-24.8,24.9h8.9l16-16l16,16h8.9L640,1255.1z M656,0l-16,16L624,0h-8.9L640,24.8L664.8,0H656z
		 M640,1237.5l-42.5,42.5h7.1l35.4-35.4l35.4,35.4h7.1L640,1237.5z M675.4,0L640,35.4L604.6,0h-7.1L640,42.5L682.5,0H675.4z
		 M640,1218.1l-62,61.9h7.1l54.9-54.9l54.9,54.9h7.1L640,1218.1z M694.9,0L640,54.9L585.1,0H578l62,61.9L702,0H694.9z
		 M1014.8,1272.9l-7.1,7.1h7.1l0,0l0,0h7.1L1014.8,1272.9z M1014.9,0L1014.9,0L1014.9,0h-7.2l7.1,7.1l7.1-7.1H1014.9z
		 M1014.8,1255.1L990,1280h8.9l16-16l16,16h8.9L1014.8,1255.1z M1030.8,0l-16,16l-16-16H990l24.8,24.8L1039.6,0H1030.8z
		 M1014.8,1237.5l-42.5,42.5h7l35.4-35.4l35.4,35.4h7.1L1014.8,1237.5z M1050.3,0l-35.4,35.4L979.4,0h-7l42.5,42.5L1057.4,0H1050.3z
		 M1014.8,1218.1l-61.9,61.9h7.1l54.9-54.9l54.9,54.9h7.1L1014.8,1218.1z M1069.6,0l-54.9,54.9L959.9,0h-7.1l61.9,61.9L1076.8,0
		H1069.6z M1077.5,68.1l-9.8,9.8l9.8,9.6v-8.8l-0.9-0.9l0.9-0.9V68.1z M1077.5,50.5l-27.4,27.4l27.4,27.4v-7.1l-20.4-20.4l20.4-20.3
		V50.5z M1077.5,31l-46.9,46.9l46.9,46.8v-7.1l-39.8-39.8l39.8-39.6V31z M1077.5,442.9l-9.8,9.7l9.8,9.7v-8.9l-0.9-0.9l0.9-0.9
		V442.9z M1077.5,425.3l-27.4,27.4l27.4,27.4v-7.1l-20.4-20.4l20.4-20.4V425.3z M1077.5,405.8l-46.9,46.8l46.9,46.9v-7.1l-39.8-39.8
		l39.8-39.8V405.8z M1077.5,817.6l-9.8,9.7l9.8,9.8v-8.9l-0.9-0.9l0.9-0.9V817.6z M1077.5,800l-27.4,27.4l27.4,27.4v-7.1l-20.4-20.4
		l20.4-20.4V800z M1077.5,780.6l-46.9,46.9l46.9,46.9v-7.1l-39.8-39.8l39.8-39.8V780.6z M1077.5,1192.5l-9.8,9.8l9.8,9.8v-8.9
		l-0.9-0.9l0.9-0.9V1192.5z M1077.5,1174.8l-27.4,27.4l27.4,27.4v-7l-20.4-20.4l20.4-20.4V1174.8z M1077.5,1155.4l-46.9,46.9
		l46.9,46.9v-7.1l-39.8-39.8l39.8-39.8V1155.4z M1077.5,255.5l-9.8,9.8l9.8,9.8v-8.9l-0.9-0.9l0.9-0.9V255.5z M1077.5,237.9
		l-27.4,27.4l27.4,27.4v-7l-20.4-20.4l20.4-20.4V237.9z M1077.5,218.4l-46.9,46.9l46.9,46.9V305l-39.8-39.8l39.8-39.8V218.4z
		 M1077.5,630.3l-9.8,9.8l9.8,9.8v-8.9l-0.9-0.9l0.9-0.9V630.3z M1077.5,612.6l-27.4,27.4l27.4,27.4v-7l-20.3-20.4l20.4-20.4v-7
		H1077.5z M1077.5,593.1l-46.9,46.9l46.9,46.9v-7.1l-39.8-39.8l39.8-39.8V593.1z M1077.5,1005l-9.8,9.8l9.8,9.8v-8.9l-0.9-0.9
		l0.9-0.9V1005z M1077.5,987.4l-27.4,27.4l27.4,27.4v-7l-20.4-20.4l20.4-20.4V987.4z M1077.5,968l-46.9,46.9l46.9,46.9v-7.1
		l-39.8-39.8l39.8-39.9V968z M1077.5,11.6l-62.8,62.8L940.5,0h-7.1l77.9,77.9L921.1,168l-6.3-6.1l84-84L921,0h-7.1l77.9,77.9
		l-80.4,80.5l-6.3-6.3l74.3-74.3L905.1,3.6l3.6-3.6h-7.1l0,0l0,0h-7.1l3.6,3.6L892.8,9l-8.9-9H875l13.4,13.4l-4.4,4.4L866.3,0h-7.1
		l1.9,1.9l-33.6,33.6L793.8,1.9l1.9-1.9h-7.1l-17.8,17.8l-4.4-4.4L779.8,0h-8.9L762,8.9l-5.3-5.4l3.6-3.6h-7.1l0,0l0,0h-7.1l3.6,3.6
		l-74.2,74.3l74.2,74.3l-6.3,6.3l-80.4-80.5L740.9,0h-7.1l-77.9,77.9l84,84l-6.3,6.1l-90.1-90.1L721.4,0h-7.1L640,74.4L565.6,0h-7.1
		l77.9,77.9L546.3,168l-6.3-6.1l84-84L546.3,0h-7.1L617,77.9l-80.4,80.5l-6.3-6.3l74.3-74.3L530.4,3.6L534,0h-7.1l0,0l0,0h-7.1
		l3.6,3.6L518.1,9l-9-9h-8.9l13.4,13.4l-4.4,4.4L491.5,0h-7.1l1.9,1.9l-33.6,33.6L419,1.9l1.9-1.9h-7.1L396,17.8l-4.4-4.4L405,0
		h-8.9l-8.9,8.9l-5.4-5.4l3.6-3.6h-7.1l0,0l0,0h-7.1l3.6,3.6l-74.3,74.4l74.3,74.3l-6.3,6.3l-80.4-80.5L366,0h-7.1l-77.8,77.9l84,84
		l-6.3,6.1l-90.1-90.1L346.6,0h-7.1l-74.3,74.4l-62.8-62.8v7.1l59.3,59.1L202.5,137v7.1l62.8-62.8l90.1,90.1l-6.3,6.3l-83.9-84
		l-62.8,62.8v7.1l62.8-62.8l80.4,80.5l-6.3,6.1l-74.1-74.3L202.5,176v7.1l62.8-62.8l70.8,70.8l-5.4,5.2L265.3,131l-62.8,62.6V206
		l2.6,2.6l-2.6,2.6v7.1l6.1-6.1l53,53l-53,53l-6.1-6.1v7.1l2.6,2.6l-2.6,2.5v12.4l62.8,62.8l65.4-65.4l5.4,5.3l-70.8,70.8
		l-62.8-62.6v7.1l62.8,62.8l74.3-74.3l6.3,6.3l-80.4,80.4l-62.9-62.9v7.1l62.8,62.8l84-84l6.3,6.3l-90.1,90.1l-62.9-62.8v7.1
		l59.3,59.1l-59.3,59.3v7.1l62.8-62.8l90.1,90.1l-6.3,6.3l-84-84l-62.6,62.6v7l62.8-62.8l80.4,80.4l-6.3,6.1l-74.3-74.3l-62.6,63
		v7.1l62.8-62.9l70.8,70.8l-5.4,5.4l-65.4-65.4l-62.8,62.6v12.4l2.6,2.6l-2.6,2.6v7.1l6.1-6.1l53.1,53l-53.1,53l-6.1-6.1v7l2.6,2.6
		l-2.6,2.8v12.4l62.8,62.8l65.4-65.4l5.4,5.4L265.3,785l-62.8-62.8v7.1l62.8,62.8l74.3-74.3l6.3,6.3l-80.4,80.4l-62.9-62.9v7.1
		l62.8,62.8l84-84l6.3,6.3l-90.1,90.1l-62.9-62.8v7.1l59.3,59.3l-59.3,59.1v7.1l62.8-62.8l90.1,90.1l-6.3,6.3l-84-84L202.5,906v7.1
		l62.8-62.8l80.4,80.5l-6.3,6.1l-74.3-74.3l-62.6,62.8v7.1l62.8-62.8l70.8,70.8l-5.4,5.3l-65.4-65.4l-62.8,62.6v12.4l2.6,2.6
		l-2.6,2.8v7.1l6.1-6.1l53,53l-53,52.9l-6.1-6.1v7.1l2.6,2.6l-2.6,2.6v12.4l62.8,62.8l65.4-65.4l5.4,5.3l-70.8,70.7l-62.8-62.8v7.1
		l62.8,62.8l74.3-74.3l6.3,6.3l-80.4,80.4l-62.9-62.9v7.1l62.8,62.8l84-84l6.3,6.1l-90.1,90.1l-62.9-62.6v7.1l59.3,59.1l-59.3,59.3
		v7.1l62.8-62.8l74.4,74.4h7.1l-78-78l90.1-90.1l6.3,6.1l-84,84L359,1280h7.1l-77.9-77.9l80.4-80.4l6.3,6.3l-74.3,74.3l74.3,74.3
		l-3.6,3.6h7.1l0,0l0,0h7.1l-3.6-3.6l5.4-5.4l8.9,8.9h8.9l-13.4-13.4l4.4-4.4l17.7,17.7h7.1l-1.9-1.9l33.6-33.6l33.6,33.6l-1.9,1.9
		h7.1l17.8-17.8l4.4,4.4l-13.4,13.4h8.9l8.9-8.9l5.3,5.4l-3.6,3.6h7.1l0,0l0,0h7.1l-3.6-3.6l74.3-74.3l-74.3-74.3l6.3-6.3l80.4,80.4
		L539,1280h7.1l77.9-77.9l-84-84l6.3-6.1l90.1,90.1l-77.9,77.9h7.1l74.4-74.4l74.4,74.4h7.1l-77.9-77.9l90.1-90.1l6.3,6.1l-84,84
		l77.7,77.9h7.1l-77.9-77.9l80.4-80.4l6.3,6.3l-74.3,74.3l74.3,74.3l-3.6,3.6h7.1l0,0l0,0h7.1l-3.6-3.6l5.3-5.4l8.9,8.9h8.9
		l-13.4-13.4l4.4-4.4l17.8,17.8h7.1l-1.9-1.9l33.6-33.6l33.6,33.6l-1.9,1.9h7.1l17.8-17.8l4.4,4.4L875,1280h8.9l8.9-8.9l5.4,5.4
		l-3.6,3.6h7.1l0,0l0,0h7.1l-3.6-3.6l74.3-74.3l-74.3-74.3l6.3-6.3l80.4,80.4l-77.9,77.9h7.1l77.9-77.9l-84-84l6.3-6.1l90.1,90.1
		l-77.9,77.9h7.1l74.4-74.4l62.8,62.8v-7.1l-59.3-59.3l59.3-59.1v-7.1l-62.8,62.8l-90.1-90.1l6.3-6.1l84,84l62.8-62.8v-7.1
		l-62.8,62.8l-80.6-80.4l6.3-6.3l74.3,74.3l62.8-62.8v-7.1l-62.8,62.8l-70.7-70.8l5.4-5.3l65.4,65.4l62.8-62.8v-12.4l-2.6-2.6
		l2.6-2.6v-7.1l-6.1,6.1l-53-53l53-53l6.1,6.1v-7.1l-2.6-2.6l2.6-2.6V943l-62.8-62.8l-65.4,65.4l-5.4-5.3l70.7-70.8l62.6,62.9v-7.1
		l-62.8-62.8l-74.3,74.3l-6.3-6.1l80.4-80.5l62.8,62.8v-7.1l-62.8-62.8l-84,84l-6.3-6.3l90.1-90.1l62.8,62.8v-7.1l-59.3-59.3
		l59.3-59.3v-7.1l-62.8,62.8l-89.9-89.7l6.3-6.3l84,84l62.6-62.8v-7.1l-62.8,62.8L934.4,724l6.3-6.3l74.3,74.3l62.8-62.8v-7.1
		l-62.9,62.9L944,714.3l5.4-5.4l65.4,65.4l62.8-62.8v-12.4l-2.6-2.6l2.6-2.6v-7l-6.1,6.1l-53.1-53l53-53l6.1,6.1V586l-2.6-2.6
		l2.6-2.6v-12.4l-62.8-62.8L949.3,571l-5.4-5.4l70.7-70.8l62.8,62.8v-7.1l-62.8-62.8L940.4,562l-6.3-6.1l80.4-80.4l62.8,62.8v-7
		l-62.8-62.8l-83.8,84l-6.3-6.3l90.1-90.1l62.8,62.8v-7.1l-59.3-59.3l59.3-59.1v-7.1l-62.8,62.8l-90.1-90.1l6.3-6.3l84,84l62.8-62.8
		v-7.1l-62.8,62.8l-80.4-80.4l6.3-6.3l74.3,74.2l62.8-62.8v-6.9l-62.8,62.8l-70.7-70.8l5.4-5.3l65.4,65.4l62.8-62.8v-12.4l-2.6-2.6
		l2.6-2.6v-7.1l-6.1,6.1l-53-53l53-53l6.1,6.1v-7.1l-2.6-2.6l2.6-2.6v-12.4l-62.8-62.8l-65.5,65.4L944,191l70.8-70.7l62.8,62.8v-7.1
		l-62.8-62.8l-74.3,74.4l-6.3-6.1l80.4-80.5l62.8,62.8v-7.1l-62.6-62.8l-84,84l-6.3-6.3l90.1-90.1l62.8,62.8V137l-59.3-59.2
		l59.4-59.1V11.6z M901.6,7.1l70.7,70.8l-70.7,70.8l-5.3-5.3L961.7,78l-65.4-65.5L901.6,7.1z M828.3,153l-17.6,17.6l-7.1-7.1
		l23.9-23.9l23.9,23.9l-6.3,6.3L828.3,153z M840.6,174.1l-13.3,13.4l-13.3-13.3l13.3-13.3L840.6,174.1z M827.4,130.9l-28.3,28.3
		l-5.3-5.3l33.6-33.6l33.6,33.6l-5.4,5.3L827.4,130.9z M827.4,113.3l-37.1,37.1l-6.3-6.3l43.3-43.4l43.2,43.4l-6.1,6.3L827.4,113.3z
		 M827.4,93.8l-46.9,46.9l-6.3-6.3l53-53l53,53l-6.3,6.3L827.4,93.8z M827.4,194.5l56.6-56.6l4.4,4.4l-61,61l-61-61l4.4-4.4
		L827.4,194.5z M827.4,212.3l65.4-65.4l5.4,5.4L827.4,223l-70.8-70.8l5.3-5.4L827.4,212.3z M891.9,16.9l61,61l-61,61l-4.4-4.4
		l56.6-56.6l-56.6-56.6L891.9,16.9z M902.5,77l17.6,17.6l-7.1,7.1l-23.9-23.9L913,54l6.3,6.3L902.5,77z M923.8,64.6L937,77.9
		l-13.3,13.3l-13.3-13.3L923.8,64.6z M880.4,77.9l28.4,28.3l-5.3,5.3l-33.6-33.6l33.6-33.6l5.3,5.3L880.4,77.9z M862.8,77.9
		l37.1,37.1l-6.3,6.3l-43.4-43.4l43.4-43.3l6.3,6.1L862.8,77.9z M890.1,31l-46.9,46.9l46.9,46.9l-6.3,6.1l-53-53l53-53L890.1,31z
		 M790.3,5.4l37.1,37.1l37.1-37.1l6.1,6.3l-43.3,43.2l-43.3-43.2L790.3,5.4z M780.5,15.1L827.4,62l46.9-46.9l6.3,6.3l-53,53
		l-53.1-53.1L780.5,15.1z M823.9,77.9l-53,53l-6.3-6.1l46.9-46.9L764.6,31l6.3-6.3L823.9,77.9z M752.3,78.8l-17.6-17.6l7.1-7.1
		l23.9,23.9l-23.9,23.9l-6.3-6.3L752.3,78.8z M731,91.1l-13.3-13.3L731,64.6l13.3,13.2L731,91.1z M774.4,77.9l-28.3-28.3l5.4-5.3
		L785,77.9l-33.6,33.6l-5.4-5.3L774.4,77.9z M792,77.9l-37.1-37.1l6.3-6.1l43.4,43.2l-43.4,43.4l-6.3-6.3L792,77.9z M762.9,16.9
		l4.4,4.4l-56.6,56.6l56.6,56.6l-4.4,4.4l-61-61L762.9,16.9z M682.4,77.9l70.8-70.8l5.3,5.3L693,77.8l65.4,65.4l-5.3,5.3L682.4,77.9
		z M753.1,155.6l74.3,74.3l74.3-74.3l6.3,6.1l-80.4,80.4l-80.4-80.4L753.1,155.6z M743.4,165.4l84,84l84-84l6.3,6.3l-90.1,90.1
		l-90.1-90.1L743.4,165.4z M715.1,1013.9l17.8,17.6l-7.1,7.1l-23.9-23.9l23.9-23.9l6.1,6.3L715.1,1013.9z M736.4,1001.5l13.3,13.3
		l-13.3,13.3l-13.3-13.3L736.4,1001.5z M693,1014.8l28.3,28.3l-5.3,5.3l-33.6-33.6L716,981l5.3,5.4L693,1014.8z M675.4,1014.8
		l37.1,37.1l-6.1,6.1l-43.4-43.2l43.4-43.2l6.1,6.1L675.4,1014.8z M655.9,1014.8l46.9,46.9l-6.3,6.3l-53-53l53-53l6.3,6.1
		L655.9,1014.8z M640.9,1089.9l-17.8,17.6l-7.1-7.1l23.9-23.9l23.9,23.9l-6.3,6.3L640.9,1089.9z M653.3,1111.1l-13.3,13.3
		l-13.3-13.3l13.3-13.3L653.3,1111.1z M640,1067.8l-28.3,28.3l-5.3-5.4l33.6-33.6l33.6,33.6l-5.3,5.4L640,1067.8z M640,1050.1
		l-37.1,37.1l-6.3-6.3l43.4-43.3l43.4,43.3l-6.3,6.3L640,1050.1z M640,1030.6l-46.9,46.9l-6.3-6.1l53-53l53,53l-6.3,6.1L640,1030.6z
		 M564.9,1015.6L547.1,998l7.1-7.1l23.9,23.9l-23.9,23.9l-6.1-6.3L564.9,1015.6z M543.6,1028l-13.3-13.2l13.3-13.2l13.3,13.2
		L543.6,1028z M587,1014.8l-28.3-28.3l5.3-5.4l33.6,33.6l-33.6,33.6l-5.3-5.3L587,1014.8z M604.6,1014.8l-37.1-37.1l6.1-6.1
		l43.4,43.2l-43.3,43.4l-6.1-6.1L604.6,1014.8z M624.1,1014.8l-46.9-46.9l6.3-6.1l53,53l-53,53l-6.3-6.3L624.1,1014.8z M639.1,939.6
		l17.8-17.6l7.1,7l-24,23.9L616.1,929l6.3-6.3L639.1,939.6z M626.8,918.4l13.3-13.2l13.3,13.2L640,931.6L626.8,918.4z M640,961.8
		l28.3-28.2l5.3,5.3L640,972.4l-33.6-33.6l5.3-5.3L640,961.8z M640,979.4l37.1-37.1l6.3,6.3L640,991.8l-43.4-43.4l6.3-6.3L640,979.4
		z M640,998.9l46.9-46.9l6.3,6.3l-53.1,53l-53-53l6.3-6.3L640,998.9z M640,898.1l-56.6,56.6l-4.4-4.4l61-61l61,61l-4.4,4.4
		L640,898.1z M579.9,958.3l-56.6,56.6l56.6,56.6l-4.4,4.4l-61-61l61-61L579.9,958.3z M583.5,1074.9l56.6,56.6l56.6-56.6l4.4,4.4
		l-61.1,61l-61-61L583.5,1074.9z M700.1,1071.4l56.6-56.6l-56.6-56.6l4.4-4.4l61,61l-61,61L700.1,1071.4z M640,880.4l-65.4,65.4
		l-5.3-5.3l70.8-70.7l70.8,70.7l-5.3,5.3L640,880.4z M571,949.4l-65.4,65.4l65.4,65.4l-5.4,5.3l-70.6-70.6l70.8-70.8L571,949.4z
		 M574.6,1083.8l65.4,65.4l65.4-65.4l5.3,5.3l-70.6,70.8l-70.8-70.8L574.6,1083.8z M709,1080.1l65.4-65.4L709,949.4l5.4-5.4
		l70.8,70.8l-70.8,70.8L709,1080.1z M640,862.8L565.8,937l-6.1-6.1l80.4-80.5l80.4,80.5l-6.1,6.1L640,862.8z M562.3,940.5
		l-74.3,74.3l74.3,74.3l-6.3,6.3l-80.4-80.4l80.4-80.4L562.3,940.5z M565.8,1092.5l74.3,74.3l74.3-74.3l6.1,6.3l-80.4,80.4
		l-80.4-80.4L565.8,1092.5z M717.8,1089l74.3-74.3l-74.3-74.3l6.3-6.3l80.4,80.4L724,1095L717.8,1089z M640,843.3l-84,84l-6.1-6.3
		l90.1-90.1l90.1,90.1l-6.1,6.3L640,843.3z M564.9,266.1l-17.8-17.6l7.1-7.1l23.9,23.9l-23.9,23.9l-6.1-6.3L564.9,266.1z
		 M543.6,278.5l-13.3-13.3l13.3-13.3l13.3,13.3L543.6,278.5z M587,265.3L558.8,237l5.3-5.2l33.6,33.6L564,299l-5.3-5.4L587,265.3z
		 M604.6,265.3l-37.1-37.1l6.1-6.3l43.4,43.4l-43.3,43.3l-6.1-6.1L604.6,265.3z M624.1,265.3l-46.9-46.9l6.3-6.1l53,53l-53,53
		l-6.3-6.3L624.1,265.3z M639.1,190.1l17.8-17.6l7.1,7.1l-24,23.8l-23.9-23.9l6.3-6.3L639.1,190.1z M626.8,168.9l13.3-13.2
		l13.3,13.2L640,182.1L626.8,168.9z M640,212.3l28.3-28.3l5.3,5.4L640,222.9l-33.6-33.6l5.3-5.4L640,212.3z M640,229.9l37.1-37.1
		l6.3,6.1L640,242.3l-43.4-43.4l6.3-6.1L640,229.9z M640,249.4l46.9-46.9l6.3,6.3l-53.1,53l-53-53l6.3-6.3L640,249.4z M715.1,264.4
		l17.8,17.6l-7.1,7.1l-23.9-23.9l23.9-23.9l6.1,6.3L715.1,264.4z M736.4,252l13.3,13.3l-13.3,13.3l-13.3-13.3L736.4,252z M693,265.3
		l28.3,28.3l-5.3,5.4l-33.6-33.6l33.6-33.6l5.3,5.2L693,265.3z M675.4,265.3l37.1,37.1l-6.1,6.1L663,265.2l43.4-43.4l6.1,6.3
		L675.4,265.3z M655.9,265.3l46.9,46.9l-6.3,6.3l-53-53l53-53l6.3,6.1L655.9,265.3z M640.9,340.4L623.1,358l-7.1-7.1l23.9-23.9
		l23.9,23.9l-6.3,6.3L640.9,340.4z M653.3,361.6L640,374.9l-13.3-13.3l13.3-13.3L653.3,361.6z M640,318.3l-28.3,28.3l-5.3-5.3
		l33.6-33.6l33.6,33.6l-5.3,5.3L640,318.3z M640,300.6l-37.1,37.1l-6.3-6.3l43.4-43.3l43.4,43.3l-6.3,6.3L640,300.6z M640,281.1
		L593.1,328l-6.3-6.3l53.1-53l53,53l-6.3,6.3L640,281.1z M640,381.9l56.6-56.6l4.4,4.4l-61,61.1l-61-61l4.4-4.4L640,381.9z
		 M700.1,321.8l56.6-56.6l-56.6-56.6l4.4-4.4l61,61l-61,61.1L700.1,321.8z M696.6,205.1L640,148.5l-56.6,56.6l-4.4-4.4l61-61l61,61
		L696.6,205.1z M579.9,208.6l-56.6,56.6l56.6,56.6l-4.4,4.4l-61-61l61-61L579.9,208.6z M640,399.6l65.4-65.4l5.3,5.3L640,410.1
		l-70.8-70.8l5.3-5.3L640,399.6z M709,330.6l65.4-65.4L709,199.9l5.4-5.3l70.8,70.8l-70.8,70.8L709,330.6z M705.4,196.3L640,130.9
		l-65.4,65.4l-5.3-5.3l70.6-70.8l70.8,70.7L705.4,196.3z M571,199.9l-65.4,65.4l65.4,65.4l-5.4,5.4L495,265.3l70.8-70.8L571,199.9z
		 M640,417.3l74.3-74.3l6.1,6.3L640,429.6l-80.4-80.4l6.1-6.3L640,417.3z M717.8,339.5l74.3-74.3L717.8,191l6.3-6.3l80.4,80.5
		L724,345.6L717.8,339.5z M714.3,187.5L640,113.3l-74.3,74.3l-6.1-6.1l80.4-80.5l80.4,80.5L714.3,187.5z M562.3,191L488,265.3
		l74.3,74.3l-6.3,6.3l-80.4-80.4l80.4-80.5L562.3,191z M640,436.8l84-84l6.1,6.3L640,449.1L549.9,359l6.1-6.3L640,436.8z
		 M902.5,451.8l17.6,17.6l-7.1,7.1l-23.9-23.9l23.9-23.9l6.3,6.3L902.5,451.8z M923.8,439.4l13.3,13.3l-13.3,13.3l-13.3-13.3
		L923.8,439.4z M880.4,452.6l28.2,28.3l-5.3,5.3l-33.6-33.6l33.6-33.6l5.3,5.4L880.4,452.6z M862.8,452.6l37.1,37.1l-6.3,6.3
		l-43.4-43.4l43.4-43.3l6.3,6.1L862.8,452.6z M843.3,452.6l46.9,46.9l-6.3,6.1l-53-53l53-53l6.3,6.3L843.3,452.6z M752.3,453.5
		l-17.6-17.6l7.1-7.1l23.9,23.9l-23.9,23.9l-6.3-6.3L752.3,453.5z M731,465.9l-13.3-13.3l13.3-13.3l13.3,13.3L731,465.9z
		 M774.4,452.6l-28.3-28.3l5.4-5.4l33.6,33.6l-33.8,33.6L746,481L774.4,452.6z M792,452.6l-37.1-37.1l6.3-6.1l43.4,43.3L761.1,496
		l-6.3-6.3L792,452.6z M811.5,452.6l-46.9-46.9l6.3-6.3l53,53l-53,53l-6.3-6.1L811.5,452.6z M826.5,377.5l17.6-17.6l7.1,7.1
		l-23.9,23.9L803.5,367l6.3-6.3L826.5,377.5z M814.1,356.3l13.3-13.3l13.3,13.3l-13.3,13.3L814.1,356.3z M827.4,399.6l28.3-28.3
		l5.4,5.3l-33.6,33.6l-33.6-33.6l5.3-5.3L827.4,399.6z M827.4,417.3l37.1-37.1l6.1,6.3l-43.3,43.3l-43.3-43.3l6.3-6.3L827.4,417.3z
		 M827.4,436.8l46.9-46.9l6.3,6.1l-53,53l-53-53l6.3-6.1L827.4,436.8z M828.3,527.8l-17.6,17.6l-7.1-7.1l23.9-23.9l23.9,23.9
		l-6.3,6.3L828.3,527.8z M840.6,549l-13.3,13.3L814.1,549l13.3-13.3L840.6,549z M827.4,505.6l-28.3,28.3l-5.3-5.4l33.6-33.6
		l33.6,33.6l-5.4,5.4L827.4,505.6z M827.4,488l-37.1,37.1L784,519l43.3-43.4l43.2,43.4l-6.1,6.1L827.4,488z M827.4,468.5l-46.9,46.9
		l-6.3-6.3l53-53l53,53l-6.3,6.3L827.4,468.5z M827.4,569.3l56.6-56.6l4.4,4.4l-61,61l-61-61l4.4-4.4L827.4,569.3z M827.4,336
		l-56.5,56.5l-4.4-4.4l61-61l61,61l-4.4,4.4L827.4,336z M767.3,396l-56.6,56.6l56.6,56.6l-4.4,4.4l-61-61l61-61L767.3,396z
		 M827.4,587l65.4-65.4l5.4,5.3l-70.8,70.8l-70.8-70.8l5.3-5.3L827.4,587z M891.9,513.6l-4.4-4.4l56.6-56.6L887.5,396l4.4-4.4l61,61
		L891.9,513.6z M827.4,318.3L762,383.6l-5.3-5.3l70.8-70.8l70.8,70.8l-5.4,5.3L827.4,318.3z M758.5,387.3l-65.4,65.4l65.4,65.4
		l-5.3,5.3l-70.8-70.8l70.8-70.8L758.5,387.3z M827.4,604.6l74.3-74.3l6.3,6.1L827.5,617l-80.4-80.5l6.3-6.1L827.4,604.6z
		 M896.4,518l65.4-65.4l-65.4-65.4l5.3-5.4l70.7,70.8l-70.7,70.8L896.4,518z M827.4,300.6l-74.3,74.3l-6.3-6.3l80.4-80.4l80.4,80.4
		l-6.3,6.3L827.4,300.6z M749.6,378.4l-74.3,74.3l74.3,74.3l-6.3,6.3L663,452.6l80.4-80.4L749.6,378.4z M655.9,452.6l84,84l-6.3,6.3
		l-90.1-90.1l90.3-90.2l6.3,6.3L655.9,452.6z M715.1,639.1l17.8,17.8l-7.1,7L701.9,640l23.9-23.9l6.1,6.3L715.1,639.1z M736.4,626.8
		l13.3,13.3l-13.3,13.3L723.1,640L736.4,626.8z M693,640l28.3,28.3l-5.3,5.3L682.4,640l33.6-33.6l5.3,5.3L693,640z M675.4,640
		l37.1,37.1l-6.1,6.1L663,640l43.4-43.4l6.1,6.3L675.4,640z M655.9,640l46.9,46.9l-6.3,6.3l-53-53.1l53-53l6.3,6.1L655.9,640z
		 M640.9,715.1l-17.8,17.8l-7.1-7.1l23.9-23.9l23.9,23.9l-6.3,6.3L640.9,715.1z M653.3,736.4L640,749.6l-13.3-13.2l13.3-13.3
		L653.3,736.4z M640,693l-28.3,28.3l-5.3-5.3l33.6-33.6l33.6,33.6l-5.3,5.3L640,693z M640,675.4l-37.1,37.1l-6.3-6.3L640,663
		l43.4,43.3l-6.3,6.3L640,675.4z M640,655.9l-46.9,46.9l-6.3-6.3l53-53l53,53l-6.3,6.3L640,655.9z M564.9,640.9l-17.8-17.6l7.1-7.1
		l23.9,23.9l-23.9,23.9l-6.1-6.1L564.9,640.9z M543.6,653.3L530.4,640l13.3-13.3l13.3,13.3L543.6,653.3z M587,640l-28.3-28.3
		l5.3-5.3l33.6,33.6L564,673.8l-5.3-5.3L587,640z M604.6,640l-37.1-37.1l6.1-6.3L617,640l-43.3,43.3l-6.1-6.1L604.6,640z M624.1,640
		l-46.9-46.9l6.3-6.1l53,53l-53,53l-6.3-6.3L624.1,640z M639.1,564.9l17.8-17.6l7.1,7.1l-24,23.8l-23.9-23.9l6.3-6.3L639.1,564.9z
		 M626.8,543.6l13.3-13.3l13.3,13.3L640,556.9L626.8,543.6z M640,587l28.3-28.3l5.3,5.3L640,597.6L606.4,564l5.3-5.3L640,587z
		 M640,604.6l37.1-37.1l6.3,6.3L640,617l-43.4-43.3l6.3-6.3L640,604.6z M640,624.1l46.9-46.9l6.3,6.3l-53.1,53l-53-53l6.3-6.3
		L640,624.1z M640,523.4L583.4,580l-4.4-4.4l61-61l61,61l-4.4,4.4L640,523.4z M579.9,583.5L523.4,640l56.6,56.6l-4.4,4.4l-61.1-61
		l61-61L579.9,583.5z M583.5,700.1l56.6,56.6l56.6-56.6l4.4,4.4l-61.1,61l-61-61L583.5,700.1z M700.1,696.6l56.6-56.6l-56.6-56.6
		l4.4-4.4l61,61l-61,61L700.1,696.6z M640,505.6L574.6,571l-5.3-5.4L640,495l70.8,70.8l-5.3,5.4L640,505.6z M571,574.6L505.6,640
		l65.4,65.4l-5.4,5.3L495,640l70.8-70.8L571,574.6z M574.6,708.9l65.4,65.4l65.4-65.4l5.3,5.4L640,785l-70.8-70.8L574.6,708.9z
		 M709,705.4l65.4-65.4L709,574.6l5.4-5.3L785,640l-70.8,70.8L709,705.4z M640,488l-74.3,74.3l-6.1-6.1l80.4-80.4l80.4,80.4
		l-6.1,6.1L640,488z M562.3,565.8L488,640l74.3,74.3l-6.3,6.3L475.6,640l80.4-80.5L562.3,565.8z M565.8,717.8L640,792l74.3-74.3
		l6.1,6.3L640,804.4L559.6,724L565.8,717.8z M717.8,714.3L792,640l-74.3-74.3l6.3-6.3l80.4,80.5L724,720.4L717.8,714.3z M640,468.5
		l-84,84l-6.1-6.3l90.1-90.1l90.1,90.1l-6.1,6.3L640,468.5z M552.5,556l-84,84l84,84l-6.3,6.1L456.1,640l90.1-90.1L552.5,556z
		 M556,727.5l84,84l84-84l6.1,6.3L640,823.9l-90.1-90.1L556,727.5z M727.5,724l84-84l-84-84l6.3-6.1l90.1,90.1l-90.1,90.1L727.5,724
		z M636.5,452.6l-90.3,90.1l-6.3-6.3l84-84l-84-84l6.3-6.3L636.5,452.6z M377.5,453.5l-17.6-17.6l7.1-7.1l23.9,23.9L367,476.5
		l-6.3-6.3L377.5,453.5z M356.3,465.9L343,452.6l13.3-13.3l13.3,13.3L356.3,465.9z M399.6,452.6l-28.4-28.3l5.3-5.4l33.6,33.6
		l-33.5,33.6l-5.3-5.3L399.6,452.6z M417.3,452.6l-37.1-37.1l6.3-6.1l43.4,43.3L386.4,496l-6.3-6.3L417.3,452.6z M436.8,452.6
		l-46.9-46.9l6.3-6.3l53,53l-53,53l-6.3-6.1L436.8,452.6z M527.8,451.8l17.6,17.6l-7.1,7.1l-23.9-23.9l23.9-23.9l6.3,6.3
		L527.8,451.8z M549,439.4l13.3,13.3L549,465.9l-13.3-13.3L549,439.4z M505.6,452.6l28.3,28.3l-5.4,5.3L495,452.6l33.6-33.6l5.4,5.4
		L505.6,452.6z M488,452.6l37.1,37.1l-6.3,6.3l-43.4-43.4l43.4-43.3l6.3,6.1L488,452.6z M468.5,452.6l46.9,46.9l-6.3,6.1l-53-53
		l53-53l6.3,6.3L468.5,452.6z M453.5,527.8l-17.6,17.6l-7.1-7.1l23.9-23.9l23.9,23.9l-6.3,6.3L453.5,527.8z M465.9,549l-13.3,13.3
		L439.4,549l13.3-13.3L465.9,549z M452.6,505.6l-28.3,28.3l-5.4-5.4l33.6-33.6l33.6,33.6l-5.2,5.4L452.6,505.6z M452.6,488
		l-37.1,37.1l-6.1-6.1l43.2-43.4l43.3,43.4l-6.3,6.1L452.6,488z M452.6,468.5l-46.9,46.9l-6.3-6.3l53-53l53,53l-6.3,6.3L452.6,468.5
		z M451.8,377.5l17.6-17.6l7.1,7.1l-23.9,23.9l-23.9-24l6.3-6.3L451.8,377.5z M439.4,356.3l13.3-13.3l13.3,13.3l-13.3,13.3
		L439.4,356.3z M452.6,399.6l28.3-28.3l5.3,5.3l-33.6,33.6l-33.6-33.6l5.4-5.3L452.6,399.6z M452.6,417.3l37.1-37.1l6.3,6.3
		l-43.3,43.3l-43.3-43.3l6.1-6.3L452.6,417.3z M452.6,436.8l46.9-46.9l6.3,6.1l-53,53l-53-53l6.3-6.1L452.6,436.8z M452.6,336
		L396,392.5l-4.4-4.4l61-61l61,61l-4.4,4.4L452.6,336z M452.6,569.3l56.6-56.6l4.4,4.4l-61,61l-61-61l4.4-4.4L452.6,569.3z
		 M512.8,509.1l56.6-56.6l-56.6-56.6l4.4-4.4l61,61l-61,61L512.8,509.1z M452.6,318.3l-65.4,65.4l-5.4-5.3l70.8-70.8l70.8,70.8
		l-5.3,5.3L452.6,318.3z M388.1,391.6l4.4,4.4l-56.6,56.6l56.6,56.6l-4.4,4.4l-61-61L388.1,391.6z M452.6,587l65.4-65.4l5.3,5.3
		l-70.8,70.8l-70.8-70.8l5.4-5.3L452.6,587z M521.6,518l65.4-65.4l-65.4-65.4l5.3-5.4l70.8,70.8l-70.8,70.8L521.6,518z M452.6,300.6
		l-74.3,74.3l-6.3-6.3l80.4-80.4l80.4,80.4l-6.3,6.3L452.6,300.6z M383.6,387.3l-65.4,65.4l65.4,65.4l-5.3,5.3l-70.8-70.8l70.8-70.8
		L383.6,387.3z M452.6,604.6l74.3-74.3l6.3,6.1L452.8,617l-80.4-80.5l6.3-6.1L452.6,604.6z M530.4,526.9l74.3-74.3l-74.3-74.3
		l6.3-6.3l80.4,80.4L536.6,533L530.4,526.9z M536.6,365.1l-84-84l-84,84l-6.3-6.1l90.1-90.1l90.1,90.1L536.6,365.1z M374.9,378.4
		l-74.3,74.3l74.3,74.3l-6.3,6.3l-80.4-80.5l80.4-80.4L374.9,378.4z M452.6,624.1l84-84l6.1,6.3l-90.1,90.1l-90.1-90.3l6.3-6.3
		L452.6,624.1z M542.8,733.8l-6.1,6.1l-84-84l-84,84l-6.3-6.1l90.1-90.1L542.8,733.8z M377.5,828.3l-17.6-17.6l7.1-7.1l23.9,23.9
		l-24,23.9l-6.3-6.3L377.5,828.3z M356.3,840.6L343,827.4l13.3-13.2l13.3,13.2L356.3,840.6z M399.6,827.4l-28.4-28.3l5.3-5.3
		l33.6,33.6l-33.6,33.6l-5.3-5.4L399.6,827.4z M417.3,827.4l-37.1-37.1l6.3-6.1l43.4,43.2l-43.4,43.3l-6.3-6.1L417.3,827.4z
		 M436.8,827.4l-46.9-46.9l6.3-6.3l53,53l-53,53l-6.3-6.1L436.8,827.4z M527.8,826.5l17.6,17.6l-7.1,7.1l-23.9-23.9l23.9-23.9
		l6.3,6.3L527.8,826.5z M549,814.1l13.3,13.2L549,840.6l-13.3-13.3L549,814.1z M505.6,827.4l28.3,28.3l-5.4,5.4L495,827.4l33.6-33.6
		l5.4,5.3L505.6,827.4z M488,827.4l37.1,37.1l-6.3,6.1l-43.4-43.2l43.4-43.3l6.3,6.1L488,827.4z M468.5,827.4l46.9,46.9l-6.3,6.1
		l-53-53l53-53l6.3,6.3L468.5,827.4z M453.5,902.5l-17.6,17.6l-7.1-7l23.9-23.9l23.9,23.9l-6.3,6.3L453.5,902.5z M465.9,923.8
		L452.6,937l-13.3-13.3l13.3-13.3L465.9,923.8z M452.6,880.4l-28.3,28.4l-5.4-5.3l33.6-33.6l33.6,33.6l-5.2,5.3L452.6,880.4z
		 M452.6,862.8l-37.1,37.1l-6.1-6.3l43.2-43.4l43.3,43.4l-6.3,6.3L452.6,862.8z M452.6,843.3l-46.9,46.9l-6.3-6.3l53-53l53,53
		l-6.3,6.3L452.6,843.3z M451.8,752.3l17.6-17.6l7.1,7.1l-23.9,23.9l-23.9-24l6.3-6.3L451.8,752.3z M439.4,731l13.3-13.3l13.3,13.3
		l-13.3,13.2L439.4,731z M452.6,774.4l28.3-28.3l5.3,5.4L452.6,785L419,751.4l5.4-5.4L452.6,774.4z M452.6,792l37.1-37.1l6.3,6.3
		l-43.3,43.3l-43.3-43.3l6.1-6.3L452.6,792z M452.6,811.5l46.9-46.9l6.3,6.1l-53,53l-53-53l6.3-6.1L452.6,811.5z M452.6,710.8
		L396,767.4l-4.4-4.4l61-61l61,61l-4.4,4.4L452.6,710.8z M452.6,944l56.6-56.6l4.4,4.4l-61,61l-61-61l4.4-4.4L452.6,944z M512.8,884
		l56.6-56.6l-56.6-56.6l4.4-4.4l61,61l-61,61L512.8,884z M452.6,693l-65.4,65.4l-5.4-5.3l70.8-70.8l70.8,70.8l-5.3,5.3L452.6,693z
		 M388.1,766.4l4.4,4.4l-56.6,56.6l56.6,56.6l-4.4,4.4l-61-61L388.1,766.4z M452.6,961.8l65.4-65.4l5.3,5.3l-70.8,70.7l-70.8-70.7
		l5.4-5.3L452.6,961.8z M521.6,892.8l65.4-65.4L521.6,762l5.3-5.3l70.8,70.8l-70.8,70.8L521.6,892.8z M452.6,675.4l-74.3,74.3
		l-6.3-6.3l80.4-80.4l80.4,80.4l-6.3,6.3L452.6,675.4z M383.6,762l-65.4,65.4l65.4,65.4l-5.3,5.4l-70.8-70.8l70.8-70.7L383.6,762z
		 M452.6,979.4l74.3-74.3l6.3,6.1l-80.4,80.5l-80.4-80.5l6.3-6.1L452.6,979.4z M530.4,901.6l74.3-74.3l-74.3-74.3l6.3-6.3l80.4,80.4
		l-80.4,80.4L530.4,901.6z M374.9,753.1l-74.3,74.3l74.3,74.3l-6.3,6.3l-80.4-80.4l80.4-80.4L374.9,753.1z M452.6,998.9l84-84
		l6.1,6.3l-90.1,90.1l-90.1-90.1l6.3-6.3L452.6,998.9z M540.1,911.4l84-84l-84-84l6.3-6.3l90.1,90.1l-90.3,90.3L540.1,911.4z
		 M643.5,827.4l90.1-90.1l6.3,6.3l-84,84l84,84l-6.3,6.3L643.5,827.4z M902.5,826.5l17.6,17.6l-7.1,7.1l-23.9-23.9l23.9-23.9
		l6.3,6.3L902.5,826.5z M923.8,814.1l13.3,13.2l-13.3,13.3l-13.3-13.3L923.8,814.1z M880.4,827.4l28.2,28.3l-5.3,5.4l-33.6-33.6
		l33.6-33.6l5.3,5.3L880.4,827.4z M862.8,827.4l37.1,37.1l-6.3,6.1l-43.4-43.2l43.4-43.3l6.3,6.1L862.8,827.4z M843.3,827.4
		l46.9,46.9l-6.3,6.1l-53-53l53-53l6.3,6.3L843.3,827.4z M752.3,828.3l-17.6-17.6l7.1-7.1l23.9,23.9l-24,23.9l-6.3-6.3L752.3,828.3z
		 M731,840.6l-13.3-13.3l13.3-13.2l13.3,13.2L731,840.6z M774.4,827.4l-28.3-28.2l5.4-5.3l33.6,33.6l-33.6,33.6l-5.4-5.4
		L774.4,827.4z M792,827.4l-37.1-37.1l6.3-6.1l43.4,43.2l-43.4,43.3l-6.3-6.1L792,827.4z M811.5,827.4l-46.9-46.9l6.3-6.3l53,53
		l-53,53l-6.3-6.1L811.5,827.4z M826.5,752.3l17.6-17.6l7.1,7.1l-23.9,23.9l-23.9-23.9l6.3-6.3L826.5,752.3z M814.1,731l13.3-13.3
		l13.3,13.3l-13.3,13.2L814.1,731z M827.4,774.4l28.3-28.3l5.4,5.4L827.4,785l-33.6-33.6l5.3-5.4L827.4,774.4z M827.4,792l37.1-37.1
		l6.1,6.3l-43.3,43.3l-43.3-43.3l6.3-6.3L827.4,792z M827.4,811.5l46.9-46.9l6.3,6.1l-53,53l-53-53l6.3-6.1L827.4,811.5z
		 M828.3,902.5l-17.6,17.6l-7.1-7l23.9-23.9l23.9,23.9l-6.3,6.3L828.3,902.5z M840.6,923.8L827.4,937l-13.3-13.3l13.3-13.3
		L840.6,923.8z M827.4,880.4l-28.3,28.4l-5.3-5.3l33.6-33.6l33.6,33.6l-5.4,5.3L827.4,880.4z M827.4,862.8l-37.1,37.1l-6.3-6.3
		l43.3-43.4l43.2,43.4l-6.1,6.3L827.4,862.8z M827.4,843.3l-46.9,46.9l-6.3-6.3l53-53l53,53l-6.3,6.3L827.4,843.3z M827.4,944
		l56.6-56.6l4.4,4.4l-61,61l-61-61l4.4-4.4L827.4,944z M827.4,710.8l-56.6,56.6l-4.4-4.4l61-61l61,61l-4.4,4.4L827.4,710.8z
		 M767.3,770.8l-56.6,56.6l56.6,56.6l-4.4,4.4l-61-61l61-61L767.3,770.8z M827.4,961.8l65.4-65.4l5.4,5.3l-70.8,70.7l-70.8-70.7
		l5.3-5.3L827.4,961.8z M891.9,888.4l-4.4-4.4l56.6-56.6l-56.6-56.6l4.4-4.4l61,61L891.9,888.4z M827.4,693L762,758.4l-5.3-5.3
		l70.8-70.8l70.8,70.8l-5.4,5.3L827.4,693z M758.5,762l-65.4,65.4l65.4,65.4l-5.3,5.4l-70.8-70.8l70.8-70.7L758.5,762z M827.4,979.4
		l74.3-74.3l6.3,6.1l-80.4,80.5l-80.4-80.5l6.3-6.1L827.4,979.4z M896.4,892.8l65.4-65.4L896.4,762l5.3-5.3l70.7,70.8l-70.7,70.8
		L896.4,892.8z M827.4,675.4l-74.3,74.3l-6.3-6.3l80.4-80.4l80.4,80.4l-6.3,6.3L827.4,675.4z M749.6,753.1l-74.3,74.3l74.3,74.3
		l-6.3,6.3L663,827.5l80.4-80.4L749.6,753.1z M743.4,914.9l84,84l84-84l6.3,6.3l-90.3,90.1l-90.1-90.1L743.4,914.9z M905.1,901.6
		l74.3-74.3l-74.3-74.3l6.3-6.3l80.4,80.4l-80.4,80.4L905.1,901.6z M827.4,655.9l-84,84l-6.1-6.1l90.1-90.1l90.1,90.1l-6.3,6.1
		L827.4,655.9z M737.3,546.3l6.1-6.3l84,84l84-84l6.3,6.3l-90.1,90.1L737.3,546.3z M905.1,526.9l74.3-74.3l-74.3-74.3l6.3-6.3
		l80.4,80.4L911.4,533L905.1,526.9z M827.4,281.1l-84,84l-6.1-6.1l90.1-90.1l90.1,90.1l-6.3,6.1L827.4,281.1z M823.9,265.3
		l-90.1,90.1l-6.3-6.3l84-84l-84-83.9l6.3-6.3L823.9,265.3z M640,81.4l90.1,90.1l-6.1,6.3l-84-84l-84,84l-6.1-6.3L640,81.4z
		 M552.5,181.3l-84,84l84,84l-6.3,6.3l-90.1-90.1l90.1-90.1L552.5,181.3z M526.9,7.1l70.8,70.8l-70.8,70.8l-5.3-5.3L587,78
		l-65.4-65.5L526.9,7.1z M453.5,153l-17.6,17.6l-7.1-7.1l23.9-23.9l23.9,23.9l-6.3,6.3L453.5,153z M465.9,174.1l-13.3,13.4
		l-13.3-13.3l13.3-13.3L465.9,174.1z M452.6,130.9l-28.3,28.3l-5.4-5.3l33.6-33.6l33.6,33.6l-5.2,5.3L452.6,130.9z M452.6,113.3
		l-37.1,37.1l-6.1-6.3l43.2-43.4l43.3,43.4l-6.3,6.3L452.6,113.3z M452.6,93.8l-46.9,46.9l-6.3-6.3l53-53l53,53l-6.3,6.3L452.6,93.8
		z M452.6,194.5l56.6-56.6l4.4,4.4l-61,61l-61-61l4.4-4.4L452.6,194.5z M452.6,212.3l65.4-65.4l5.3,5.4L452.5,223l-70.8-70.8
		l5.4-5.4L452.6,212.3z M517.1,16.9l61,61l-61,61l-4.4-4.4l56.6-56.6l-56.6-56.6L517.1,16.9z M527.8,77l17.6,17.6l-7.1,7.1
		l-23.9-23.9L538.3,54l6.3,6.3L527.8,77z M549,64.6l13.3,13.3L549,91.1l-13.3-13.3L549,64.6z M505.6,77.9l28.3,28.3l-5.4,5.3
		L495,77.9l33.6-33.6l5.4,5.3L505.6,77.9z M488,77.9l37.1,37.1l-6.3,6.3l-43.4-43.4l43.4-43.3l6.3,6.1L488,77.9z M515.4,31
		l-46.9,46.9l46.9,46.9l-6.3,6.1l-53-53l53-53L515.4,31z M415.5,5.4l37.1,37.1l37.1-37.1l6.3,6.3l-43.3,43.2l-43.4-43.2L415.5,5.4z
		 M405.8,15.1L452.6,62l46.9-46.9l6.3,6.3l-53,53l-53.1-53.1L405.8,15.1z M449.1,77.9l-53,53l-6.3-6.1l46.9-46.9L389.9,31l6.3-6.3
		L449.1,77.9z M377.5,78.8l-17.6-17.6L367,54l23.9,23.9L367,101.8l-6.3-6.3L377.5,78.8z M356.3,91.1L343,77.9l13.3-13.3l13.3,13.3
		L356.3,91.1z M399.6,77.9l-28.4-28.4l5.3-5.3l33.6,33.6l-33.6,33.6l-5.3-5.3L399.6,77.9z M417.3,77.9l-37.1-37.1l6.3-6.1l43.4,43.2
		l-43.4,43.4l-6.3-6.3L417.3,77.9z M388.1,16.9l4.4,4.4l-56.6,56.6l56.6,56.6l-4.4,4.4l-61-61L388.1,16.9z M307.6,77.9l70.8-70.8
		l5.3,5.3l-65.4,65.5l65.4,65.4l-5.3,5.3L307.6,77.9z M378.4,155.6l74.3,74.3l74.3-74.3l6.3,6.1l-80.4,80.4l-80.4-80.4L378.4,155.6z
		 M368.6,165.4l84,84l84-84l6.1,6.3l-90.1,90.1l-90.1-90.3L368.6,165.4z M204.3,200.8l61-61l61,61l-4.4,4.4l-56.6-56.6l-56.6,56.6
		L204.3,200.8z M340.4,264.4L358,282l-7,7.1l-23.9-23.9l23.9-23.9l6.1,6.3L340.4,264.4z M361.6,252l13.3,13.3l-13.3,13.3l-13.3-13.3
		L361.6,252z M318.3,265.3l28.3,28.3l-5.3,5.4l-33.6-33.6l33.6-33.6l5.3,5.2L318.3,265.3z M300.6,265.3l37.1,37.1l-6.3,6.1
		l-43.3-43.3l43.3-43.4l6.3,6.3L300.6,265.3z M281.1,265.3l46.9,46.9l-6.3,6.3l-53-53.1l53-53l6.3,6.1L281.1,265.3z M264.4,190.1
		l17.6-17.6l7.1,7.1l-23.9,23.9l-23.9-23.9l6.1-6.3L264.4,190.1z M252,168.9l13.3-13.2l13.3,13.2l-13.3,13.3L252,168.9z
		 M265.3,212.3l28.3-28.3l5.4,5.4L265.3,223l-33.6-33.6l5.3-5.4L265.3,212.3z M265.3,229.9l37.1-37.1l6.1,6.1l-43.3,43.4l-43.4-43.4
		l6.3-6.1L265.3,229.9z M212.3,208.6l6.3-6.3l46.9,46.9l46.8-46.8l6.3,6.3l-53,53L212.3,208.6z M265.3,268.8l53,53L312,328
		l-46.9-46.9L218.3,328l-6.3-6.3L265.3,268.8z M266.1,340.4L248.5,358l-7.1-7.1l23.9-23.9l23.9,23.9l-6.3,6.3L266.1,340.4z
		 M278.5,361.6l-13.3,13.3L252,361.6l13.3-13.3L278.5,361.6z M265.3,318.3L237,346.5l-5.3-5.3l33.6-33.6l33.5,33.6l-5.4,5.3
		L265.3,318.3z M265.3,300.6l-37.1,37.1l-6.3-6.3l43.4-43.3l43.3,43.3l-6.1,6.3L265.3,300.6z M265.3,390.8l-61-61l4.4-4.4l56.6,56.6
		l56.6-56.6l4.4,4.4L265.3,390.8z M329.8,326.3l-4.4-4.4l56.6-56.6l-56.6-56.6l4.4-4.4l61,61L329.8,326.3z M334.1,330.6l65.4-65.4
		l-65.4-65.4l5.3-5.3l70.8,70.8l-70.8,70.8L334.1,330.6z M343,339.5l74.3-74.3L343,191l6.3-6.3l80.5,80.5l-80.5,80.4L343,339.5z
		 M352.8,349.3l84-84l-84-84l6.3-6.3l90.1,90.1L359,355.3L352.8,349.3z M268.8,452.6l90.1-90.1l6.3,6.3l-84,84l84,84l-6.3,6.3
		L268.8,452.6z M204.3,575.5l61-61l61,61l-4.4,4.4l-56.6-56.6l-56.6,56.6L204.3,575.5z M340.4,639.1l17.6,17.8l-7,7L327.1,640
		l23.9-23.9l6.1,6.3L340.4,639.1z M361.6,626.8l13.3,13.3l-13.3,13.3L348.4,640L361.6,626.8z M318.3,640l28.3,28.3l-5.3,5.3
		L307.6,640l33.6-33.6l5.3,5.3L318.3,640z M300.6,640l37.1,37.1l-6.3,6.1L288.3,640l43.3-43.4l6.3,6.3L300.6,640z M281.1,640
		l46.9,46.9l-6.3,6.3l-53-53.1l53-53l6.3,6.1L281.1,640z M264.4,564.9l17.6-17.6l7.1,7.1l-23.9,23.9l-23.9-23.9l6.1-6.3L264.4,564.9
		z M252,543.6l13.3-13.3l13.3,13.3l-13.3,13.3L252,543.6z M265.3,587l28.3-28.3l5.4,5.3l-33.6,33.6L231.6,564l5.3-5.3L265.3,587z
		 M265.3,604.6l37.1-37.1l6.1,6.3l-43.3,43.4l-43.4-43.4l6.3-6.3L265.3,604.6z M212.3,583.5l6.3-6.3l46.9,46.9l46.9-46.9l6.3,6.3
		l-53,53L212.3,583.5z M265.3,643.5l53,53l-6.3,6.3l-46.9-46.9l-46.9,46.9l-6.3-6.3L265.3,643.5z M266.1,715.1l-17.6,17.8l-7.1-7.1
		l23.9-23.9l23.9,23.9l-6.3,6.3L266.1,715.1z M278.5,736.4l-13.3,13.2L252,736.4l13.3-13.3L278.5,736.4z M265.3,693L237,721.3
		l-5.3-5.3l33.6-33.6L299,716l-5.4,5.3L265.3,693z M265.3,675.4l-37.1,37.1l-6.3-6.3l43.4-43.3l43.3,43.3l-6.1,6.3L265.3,675.4z
		 M265.3,765.5l-61-61l4.4-4.4l56.6,56.6l56.6-56.6l4.4,4.4L265.3,765.5z M329.8,701l-4.4-4.4L382,640l-56.6-56.6l4.4-4.4l61,61
		L329.8,701z M334.1,705.4l65.4-65.4l-65.4-65.4l5.3-5.3l70.8,70.8l-70.8,70.7L334.1,705.4z M343,714.3l74.3-74.3L343,565.8l6.3-6.3
		l80.5,80.5l-80.5,80.4L343,714.3z M352.8,724l84-84l-84-84l6.3-6.1l90.1,90.1L359,730.1L352.8,724z M268.8,827.4l90.1-90.1l6.3,6.3
		l-84,84l84,84l-6.3,6.3L268.8,827.4z M204.3,950.3l61-61l61,61l-4.4,4.4L265.3,898l-56.6,56.6L204.3,950.3z M340.4,1013.9
		l17.6,17.6l-7,7.1l-23.9-23.9l23.9-23.9l6.1,6.3L340.4,1013.9z M361.6,1001.5l13.3,13.3l-13.3,13.3l-13.3-13.3L361.6,1001.5z
		 M318.3,1014.8l28.3,28.3l-5.3,5.3l-33.6-33.6l33.6-33.6l5.3,5.4L318.3,1014.8z M300.6,1014.8l37.1,37.1l-6.3,6.1l-43.3-43.2
		l43.3-43.2l6.3,6.1L300.6,1014.8z M281.1,1014.8l46.9,46.9l-6.3,6.3l-53-53.1l53-53l6.3,6.1L281.1,1014.8z M264.4,939.6L282,922
		l7.1,7l-23.9,23.9L241.4,929l6.1-6.3L264.4,939.6z M252,918.4l13.3-13.2l13.3,13.2l-13.3,13.3L252,918.4z M265.3,961.8l28.3-28.2
		l5.4,5.3l-33.6,33.6l-33.6-33.6l5.3-5.3L265.3,961.8z M265.3,979.4l37.1-37.1l6.1,6.3l-43.3,43.4l-43.4-43.4l6.3-6.3L265.3,979.4z
		 M212.3,958.3l6.3-6.3l46.9,46.9l46.9-46.9l6.3,6.3l-53.3,53L212.3,958.3z M265.3,1018.3l53,53l-6.3,6.1l-46.9-46.9l-46.8,47
		l-6.3-6.1L265.3,1018.3z M266.1,1089.9l-17.6,17.6l-7.1-7.1l23.9-23.9l23.9,23.9l-6.3,6.3L266.1,1089.9z M278.5,1111.1l-13.3,13.3
		l-13.3-13.3l13.3-13.3L278.5,1111.1z M265.3,1067.8L237,1096l-5.3-5.4l33.6-33.6l33.6,33.6l-5.4,5.4L265.3,1067.8z M265.3,1050.1
		l-37.1,37.1l-6.3-6.3l43.4-43.3l43.3,43.3l-6.1,6.3L265.3,1050.1z M265.3,1140.3l-61-61l4.4-4.4l56.6,56.6l56.6-56.6l4.4,4.4
		L265.3,1140.3z M329.8,1075.8l-4.4-4.4l56.6-56.6l-56.6-56.6l4.4-4.4l61,61L329.8,1075.8z M334.1,1080.1l65.4-65.4l-65.4-65.4
		l5.3-5.4l70.8,70.8l-70.8,70.8L334.1,1080.1z M343,1089l74.3-74.3L343,940.5l6.3-6.3l80.5,80.4l-80.5,80.4L343,1089z M352.8,1098.8
		l84-84l-84-84l6.3-6.3l90.1,90.1l-90.1,90.1L352.8,1098.8z M378.4,1272.9l-70.8-70.8l70.8-70.8l5.3,5.3l-65.4,65.4l65.4,65.4
		L378.4,1272.9z M451.8,1127l17.6-17.8l7.1,7.1l-23.9,23.9l-23.9-23.9l6.3-6.3L451.8,1127z M439.4,1105.8l13.3-13.3l13.3,13.3
		l-13.3,13.3L439.4,1105.8z M452.6,1149.1l28.3-28.3l5.3,5.3l-33.6,33.6l-33.6-33.6l5.4-5.3L452.6,1149.1z M452.6,1166.8l37.1-37.1
		l6.3,6.3l-43.3,43.3l-43.3-43.3l6.1-6.3L452.6,1166.8z M452.6,1186.3l46.9-46.9l6.3,6.3l-53,53l-53-53l6.3-6.3L452.6,1186.3z
		 M452.6,1085.5l-56.6,56.6l-4.4-4.4l61-61l61,61l-4.4,4.4L452.6,1085.5z M452.6,1067.8l-65.4,65.4l-5.4-5.4l70.8-70.8l70.8,70.8
		l-5.3,5.4L452.6,1067.8z M388.1,1263.1l-61-61l61-61l4.4,4.4l-56.6,56.6l56.6,56.6L388.1,1263.1z M377.5,1203l-17.6-17.8l7.1-7
		l23.9,23.9L367,1226l-6.3-6.3L377.5,1203z M356.3,1215.4l-13.3-13.3l13.3-13.3l13.3,13.3L356.3,1215.4z M399.6,1202.1l-28.4-28.3
		l5.3-5.3l33.6,33.6l-33.6,33.6l-5.3-5.3L399.6,1202.1z M417.3,1202.1l-37.1-37.1l6.3-6.1l43.4,43.3l-43.4,43.4l-6.3-6.3
		L417.3,1202.1z M389.9,1249l46.9-46.9l-46.9-46.9l6.3-6.3l53,53l-53,53L389.9,1249z M489.8,1274.6l-37.1-37.1l-37.1,37.1l-6.1-6.3
		l43.2-43.4l43.3,43.4L489.8,1274.6z M499.5,1264.9l-46.9-46.9l-46.9,46.9l-6.3-6.3l53-53l53,53L499.5,1264.9z M456.1,1202.1l53-53
		l6.3,6.3l-46.9,46.9l46.9,46.9l-6.3,6.1L456.1,1202.1z M527.8,1201.3l17.6,17.6l-7.1,7.1l-23.9-23.9l23.9-23.9l6.3,6.1
		L527.8,1201.3z M549,1188.9l13.3,13.3l-13.3,13.2l-13.3-13.2L549,1188.9z M505.6,1202.1l28.3,28.3l-5.4,5.3l-33.5-33.5l33.6-33.6
		l5.4,5.3L505.6,1202.1z M488,1202.1l37.1,37.1l-6.3,6.3l-43.4-43.4l43.4-43.3l6.3,6.1L488,1202.1z M517.1,1263.1l-4.4-4.4
		l56.6-56.6l-56.6-56.6l4.4-4.4l61,61L517.1,1263.1z M597.6,1202.1l-70.8,70.8l-5.3-5.3l65.4-65.4l-65.4-65.4l5.3-5.3L597.6,1202.1z
		 M526.9,1124.4l-74.3-74.3l-74.3,74.3l-6.3-6.3l80.4-80.4l80.4,80.4L526.9,1124.4z M536.6,1114.6l-84-84l-84,84l-6.3-6.3l90.1-90.1
		l90.1,90.1L536.6,1114.6z M456.1,1014.8l90.1-90.1l6.3,6.3l-84,84l84,83.9l-6.3,6.3L456.1,1014.8z M640,1198.6l-90.1-90.1l6.1-6.1
		l84,83.9l84-84l6.1,6.1L640,1198.6z M727.5,1098.8l84-84l-84-84l6.3-6.3l90.1,90.1l-90.1,90.3L727.5,1098.8z M753.1,1272.9
		l-70.8-70.8l70.8-70.8l5.3,5.3L693,1202l65.4,65.4L753.1,1272.9z M826.5,1127l17.6-17.8l7.1,7.1l-23.9,23.9l-23.9-23.9l6.3-6.3
		L826.5,1127z M814.1,1105.8l13.3-13.3l13.3,13.3l-13.3,13.3L814.1,1105.8z M827.4,1149.1l28.3-28.3l5.4,5.3l-33.6,33.6l-33.6-33.6
		l5.3-5.3L827.4,1149.1z M827.4,1166.8l37.1-37.1l6.1,6.3l-43.3,43.3l-43.3-43.3l6.3-6.3L827.4,1166.8z M827.4,1186.3l46.9-46.9
		l6.3,6.3l-53,53l-53-53l6.3-6.3L827.4,1186.3z M827.4,1085.5l-56.6,56.6l-4.4-4.4l61-61l61,61l-4.4,4.4L827.4,1085.5z
		 M827.4,1067.8l-65.4,65.4l-5.3-5.4l70.8-70.8l70.8,70.8l-5.4,5.4L827.4,1067.8z M762.9,1263.1l-61-61l61-61l4.4,4.4l-56.6,56.6
		l56.6,56.6L762.9,1263.1z M752.3,1203l-17.6-17.8l7.1-7l23.9,23.9l-23.9,23.9l-6.3-6.3L752.3,1203z M731,1215.4l-13.3-13.3
		l13.3-13.3l13.3,13.3L731,1215.4z M774.4,1202.1l-28.3-28.3l5.4-5.3l33.6,33.6l-33.6,33.6l-5.4-5.3L774.4,1202.1z M792,1202.1
		l-37.1-37.1l6.3-6.1l43.4,43.3l-43.4,43.4l-6.3-6.3L792,1202.1z M764.6,1249l46.9-46.9l-46.9-46.9l6.3-6.3l53,53l-53,53L764.6,1249
		z M864.5,1274.6l-37.1-37.1l-37.1,37.1l-6.3-6.3l43.3-43.4l43.2,43.4L864.5,1274.6z M874.3,1264.9l-46.9-46.9l-46.9,46.9l-6.3-6.3
		l53-53l53,53L874.3,1264.9z M830.9,1202.1l53-53l6.3,6.3l-46.9,46.9l46.9,46.9l-6.3,6.1L830.9,1202.1z M902.5,1201.3l17.6,17.6
		l-7.1,7.1l-23.9-23.9l23.9-23.9l6.3,6.1L902.5,1201.3z M923.8,1188.9l13.3,13.3l-13.3,13.3l-13.3-13.3L923.8,1188.9z M880.4,1202.1
		l28.2,28.3l-5.3,5.3l-33.6-33.6l33.6-33.6l5.3,5.3L880.4,1202.1z M862.8,1202.1l37.1,37.1l-6.3,6.3l-43.4-43.4l43.4-43.3l6.3,6.1
		L862.8,1202.1z M891.9,1263.1l-4.4-4.4l56.6-56.6l-56.6-56.5l4.4-4.4l61,61L891.9,1263.1z M972.4,1202.1l-70.7,70.8l-5.3-5.3
		l65.4-65.4l-65.4-65.4l5.3-5.3L972.4,1202.1z M901.6,1124.4l-74.3-74.3l-74.3,74.3l-6.3-6.3l80.4-80.4l80.4,80.4L901.6,1124.4z
		 M911.4,1114.6l-84-84l-84,84l-6.1-6.3l90.1-90.1l90.1,90.1L911.4,1114.6z M1075.8,1079.3l-61,61l-61-61l4.4-4.4l56.6,56.6
		l56.6-56.6L1075.8,1079.3z M939.6,1015.6L922,998l7-7.1l23.9,23.9l-23.9,23.9l-6.1-6.3L939.6,1015.6z M918.4,1028l-13.2-13.2
		l13.2-13.2l13.3,13.2L918.4,1028z M961.8,1014.8l-28.2-28.3l5.3-5.4l33.6,33.6l-33.6,33.6l-5.3-5.3L961.8,1014.8z M979.4,1014.8
		l-37.1-37.1l6.3-6.1l43.2,43.2l-43.2,43.3l-6.3-6.1L979.4,1014.8z M998.9,1014.8L952,967.9l6.3-6.1l53,53l-53,53l-6.3-6.3
		L998.9,1014.8z M1015.6,1089.9l-17.6,17.6l-7.1-7.1l23.9-23.9l23.9,23.9l-6.1,6.3L1015.6,1089.9z M1028,1111.1l-13.2,13.3
		l-13.2-13.3l13.2-13.3L1028,1111.1z M1014.8,1067.8l-28.3,28.3l-5.4-5.4l33.6-33.6l33.6,33.6l-5.3,5.4L1014.8,1067.8z
		 M1014.8,1050.1l-37.1,37.1l-6.1-6.3l43.2-43.3l43.4,43.3l-6.3,6.3L1014.8,1050.1z M1067.8,1071.4l-6.3,6.1l-46.9-46.9l-46.8,46.9
		l-6.3-6.1l53-53L1067.8,1071.4z M1014.8,1011.3l-53-53l6.3-6.3l46.9,46.9l46.9-46.9l6.3,6.3L1014.8,1011.3z M1013.9,939.6
		l17.6-17.6l7.1,7l-23.9,23.9L990.9,929l6.3-6.3L1013.9,939.6z M1001.5,918.4l13.3-13.2l13.3,13.2l-13.3,13.3L1001.5,918.4z
		 M1014.8,961.8l28.3-28.2l5.3,5.3l-33.6,33.6l-33.5-33.6l5.4-5.3L1014.8,961.8z M1014.8,979.4l37.1-37.1l6.3,6.3l-43.4,43.4
		l-43.3-43.4l6.1-6.3L1014.8,979.4z M1014.8,889.3l61,61l-4.4,4.4l-56.6-56.6l-56.6,56.6l-4.4-4.4L1014.8,889.3z M950.3,953.8
		l4.4,4.4l-56.6,56.6l56.6,56.6l-4.4,4.4l-61-61L950.3,953.8z M945.9,949.4l-65.4,65.4l65.4,65.4l-5.3,5.3l-70.8-70.8l70.8-70.7
		L945.9,949.4z M937,940.5l-74.3,74.3L937,1089l-6.3,6.3l-80.5-80.4l80.5-80.4L937,940.5z M927.3,930.8l-84,84l84,84l-6.3,6.3
		l-90.1-90.1l90.1-90.1L927.3,930.8z M1011.3,827.4l-90.1,90.1l-6.3-6.3l84-84l-84-84l6.3-6.3L1011.3,827.4z M1075.8,704.5l-61,61
		l-61-61l4.4-4.4l56.6,56.6l56.6-56.6L1075.8,704.5z M939.6,640.9L922,623.3l7-7.1l23.9,23.9L929,663.9l-6.1-6.1L939.6,640.9z
		 M918.4,653.3L905.1,640l13.2-13.3l13.2,13.3L918.4,653.3z M961.8,640l-28.2-28.3l5.3-5.3l33.6,33.6l-33.6,33.5l-5.3-5.3L961.8,640
		z M979.4,640l-37.1-37.1l6.3-6.3l43.2,43.4l-43.2,43.3l-6.3-6.1L979.4,640z M998.9,640L952,593.1l6.3-6.1l53,53l-53,53l-6.3-6.3
		L998.9,640z M1015.6,715.1L998,732.9l-7.1-7.1l23.9-23.9l23.9,23.9l-6.1,6.3L1015.6,715.1z M1028,736.4l-13.2,13.2l-13.2-13.2
		l13.2-13.3L1028,736.4z M1014.8,693l-28.3,28.3l-5.4-5.3l33.6-33.6l33.6,33.6l-5.3,5.3L1014.8,693z M1014.8,675.4l-37.1,37.1
		l-6.1-6.3l43.2-43.3l43.4,43.3l-6.3,6.3L1014.8,675.4z M1067.8,696.6l-6.3,6.3l-46.9-46.9l-46.9,46.9l-6.3-6.3l53-53L1067.8,696.6z
		 M1014.8,636.5l-53-53l6.3-6.3l46.9,46.9l46.9-46.9l6.3,6.3L1014.8,636.5z M1013.9,564.9l17.6-17.6l7.1,7.1l-23.9,23.9l-23.9-23.9
		l6.3-6.3L1013.9,564.9z M1001.5,543.6l13.3-13.3l13.3,13.3l-13.3,13.3L1001.5,543.6z M1014.8,587l28.3-28.3l5.3,5.3l-33.6,33.6
		L981,564l5.4-5.3L1014.8,587z M1014.8,604.6l37.1-37.1l6.3,6.3l-43.4,43.4l-43.3-43.4l6.1-6.3L1014.8,604.6z M1014.8,514.5l61,61
		l-4.4,4.4l-56.6-56.6l-56.6,56.6l-4.4-4.4L1014.8,514.5z M950.3,579l4.4,4.4L898.1,640l56.6,56.6l-4.4,4.4l-61.1-61L950.3,579z
		 M945.9,574.6L880.4,640l65.4,65.4l-5.3,5.3L869.8,640l70.7-70.8L945.9,574.6z M937,565.8L862.8,640l74.3,74.3l-6.3,6.3L850.4,640
		l80.5-80.5L937,565.8z M927.3,556l-84,84l84,84l-6.3,6.1L830.9,640l90.1-90.1L927.3,556z M1011.3,452.6l-90.1,90.1l-6.3-6.3l84-84
		l-84-84l6.3-6.3L1011.3,452.6z M1075.8,329.8l-61,61l-61-61l4.4-4.4l56.6,56.6l56.6-56.6L1075.8,329.8z M939.6,266.1L922,248.5
		l7-7.1l23.9,23.9L929,289.1l-6.1-6.3L939.6,266.1z M918.4,278.5l-13.2-13.3l13.2-13.3l13.3,13.3L918.4,278.5z M961.8,265.3
		L933.5,237l5.3-5.2l33.6,33.6l-33.6,33.5l-5.3-5.4L961.8,265.3z M979.4,265.3l-37.1-37.1l6.3-6.3l43.2,43.4l-43.2,43.3l-6.3-6.1
		L979.4,265.3z M998.9,265.3L952,218.4l6.3-6.1l53,53l-53,53L952,312L998.9,265.3z M1015.6,340.4L998,358l-7.1-7.1l23.9-23.9
		l23.9,23.9l-6.1,6.3L1015.6,340.4z M1028,361.6l-13.2,13.3l-13.2-13.3l13.2-13.3L1028,361.6z M1014.8,318.3l-28.3,28.3l-5.4-5.3
		l33.6-33.6l33.6,33.6l-5.3,5.3L1014.8,318.3z M1014.8,300.6l-37.1,37.1l-6.1-6.3l43.2-43.3l43.4,43.3l-6.3,6.3L1014.8,300.6z
		 M1067.8,321.8l-6.3,6.3l-46.9-46.9L967.8,328l-6.3-6.3l53-53L1067.8,321.8z M1014.8,261.8l-53-53l6.3-6.3l46.9,46.9l46.9-46.9
		l6.3,6.3L1014.8,261.8z M1013.9,190.1l17.6-17.6l7.1,7.1l-23.9,23.9l-23.9-23.9l6.3-6.3L1013.9,190.1z M1001.5,168.9l13.3-13.2
		l13.3,13.2l-13.3,13.3L1001.5,168.9z M1014.8,212.3L1043,184l5.3,5.4l-33.6,33.6L981,189.4l5.4-5.4L1014.8,212.3z M1014.8,229.9
		l37.1-37.1l6.3,6.1l-43.4,43.4l-43.3-43.4l6.1-6.1L1014.8,229.9z M1014.8,139.8l61,61l-4.4,4.4l-56.6-56.6l-56.6,56.6l-4.4-4.4
		L1014.8,139.8z M950.3,204.3l4.4,4.4L898,265.3l56.6,56.6l-4.4,4.4l-61-61L950.3,204.3z M945.9,199.9l-65.4,65.4l65.4,65.4
		l-5.3,5.4l-70.8-70.8l70.8-70.8L945.9,199.9z M937,191l-74.3,74.3l74.3,74.3l-6.3,6.3l-80.5-80.4l80.5-80.5L937,191z M927.3,181.3
		l-84,84l84,84l-6.3,6.3l-90.1-90.1l90.1-90.1L927.3,181.3z M852.3,0h-8.9l-16,16l-16-16h-8.9l24.9,24.8L852.3,0z M829.3,0h-5.5
		l2.8,2.8L829.3,0z M477.5,0h-8.9l-16,16l-16-16h-8.9l24.9,24.8L477.5,0z M454.5,0H449l2.8,2.8L454.5,0z M827.4,1255.1l-24.9,24.9
		h8.9l16-16l16,16h8.9L827.4,1255.1z M828.3,1277.3l-2.8,2.8h5.5L828.3,1277.3z M452.6,1255.1l-24.9,24.9h8.9l16-16l16,16h8.9
		L452.6,1255.1z M453.5,1277.3l-2.8,2.8h5.5L453.5,1277.3z"/>
</g>
</svg>
