<?xml version="1.0" encoding="utf-8"?>
<!-- Generator: Adobe Illustrator 18.0.0, SVG Export Plug-In . SVG Version: 6.00 Build 0)  -->
<!DOCTYPE svg PUBLIC "-//W3C//DTD SVG 1.1//EN" "http://www.w3.org/Graphics/SVG/1.1/DTD/svg11.dtd">
<svg version="1.1" id="Layer_1" xmlns="http://www.w3.org/2000/svg" xmlns:xlink="http://www.w3.org/1999/xlink" x="0px" y="0px"
	 viewBox="0 0 1280 1280" enable-background="new 0 0 1280 1280" xml:space="preserve">
<g>
	<g>
		<path fill="#FFFFFF" d="M516.7,640.3l478.8-478.9c13.2-13.2,20.4-30.7,20.4-49.5c0-18.8-7.3-36.3-20.4-49.5l-42-41.9
			C940.4,7.3,922.8,0,904.1,0c-18.8,0-36.3,7.3-49.5,20.5L284.4,590.6c-13.2,13.2-20.5,30.9-20.4,49.6c-0.1,18.9,7.2,36.5,20.4,49.7
			L854,1259.5c13.2,13.2,30.8,20.5,49.5,20.5c18.8,0,36.3-7.3,49.5-20.5l41.9-41.9c27.3-27.3,27.3-71.7,0-99L516.7,640.3z"/>
	</g>
</g>
</svg>
