<?xml version="1.0" encoding="utf-8"?>
<!-- Generator: Adobe Illustrator 18.0.0, SVG Export Plug-In . SVG Version: 6.00 Build 0)  -->
<!DOCTYPE svg PUBLIC "-//W3C//DTD SVG 1.1//EN" "http://www.w3.org/Graphics/SVG/1.1/DTD/svg11.dtd">
<svg version="1.1" id="Layer_1" xmlns="http://www.w3.org/2000/svg" xmlns:xlink="http://www.w3.org/1999/xlink" x="0px" y="0px"
	 viewBox="0 0 512 512" enable-background="new 0 0 512 512" xml:space="preserve">
<g>
	<path fill="#FFFDFD" d="M256,508.6c-67.6,0-131.1-26.2-178.7-73.9C29.6,387.1,3.4,323.6,3.4,256c0-67.6,26.2-131.1,73.9-178.7
		S188.4,3.4,256,3.4c67.6,0,131.1,26.2,178.7,73.9c47.6,47.6,73.9,111.1,73.9,178.7c0,67.6-26.2,131.1-73.9,178.7
		C387.1,482.4,323.6,508.6,256,508.6z M83.6,396.6c40.9,50,103,82,172.4,82c69.5,0,131.6-32,172.4-82
		C386.2,323.7,323.8,282.1,256,282.1S125.8,323.7,83.6,396.6z M256,33.4C133.3,33.4,33.4,133.3,33.4,256
		c0,41.6,11.4,80.5,31.4,113.8c20.8-32.7,46.2-60,74.3-79.7c36.1-25.3,75.4-38.1,116.9-38.1s80.9,12.8,116.9,38.1
		c28.1,19.7,53.5,47,74.3,79.7c19.9-33.3,31.4-72.3,31.4-113.8C478.6,133.3,378.7,33.4,256,33.4z M256,247.8
		c-27.5,0-53.3-10.6-72.5-29.8c-19.2-19.2-29.8-45-29.8-72.5c0-56.4,45.9-102.3,102.3-102.3s102.3,45.9,102.3,102.3
		c0,27.5-10.6,53.3-29.8,72.5C309.3,237.2,283.5,247.8,256,247.8z M256,73.2c-39.9,0-72.3,32.4-72.3,72.3
		c0,40.5,31.8,72.3,72.3,72.3c40.5,0,72.3-31.8,72.3-72.3C328.3,105.6,295.9,73.2,256,73.2z"/>
</g>
</svg>
