<?xml version="1.0" encoding="utf-8"?>
<!-- Generator: Adobe Illustrator 18.0.0, SVG Export Plug-In . SVG Version: 6.00 Build 0)  -->
<!DOCTYPE svg PUBLIC "-//W3C//DTD SVG 1.1//EN" "http://www.w3.org/Graphics/SVG/1.1/DTD/svg11.dtd">
<svg version="1.1" id="Layer_1" xmlns="http://www.w3.org/2000/svg" xmlns:xlink="http://www.w3.org/1999/xlink" x="0px" y="0px"
	 viewBox="0 0 1280 1280" enable-background="new 0 0 1280 1280" xml:space="preserve">
<g>
	<g>
		<path fill="#FFFFFF" d="M995.6,590.1L426,20.4C412.8,7.3,395.2,0,376.4,0s-36.3,7.3-49.5,20.4L285,62.4c-27.3,27.3-27.3,71.7,0,99
			l478.3,478.3l-478.9,478.9c-13.2,13.2-20.4,30.8-20.4,49.5c0,18.8,7.3,36.3,20.4,49.5l41.9,41.9c13.2,13.2,30.8,20.4,49.5,20.4
			s36.3-7.3,49.5-20.4l570.1-570.1c13.2-13.2,20.5-30.9,20.4-49.7C1016,620.9,1008.8,603.3,995.6,590.1z"/>
	</g>
</g>
</svg>
